ISO-10303-21;
HEADER;
FILE_DESCRIPTION (( 'STEP AP214' ),
    '1' );
FILE_NAME ('Same_Sky_CPG-47-TH-B.step',
    '2025-02-12T16:17:28',
    ( '' ),
    ( '' ),
    'SwSTEP 2.0',
    'SolidWorks 2024',
    '' );
FILE_SCHEMA (( 'AUTOMOTIVE_DESIGN' ));
ENDSEC;

DATA;
#1 = PRODUCT_DEFINITION_CONTEXT ( 'detailed design', #33, 'design' ) ;
#2 = ORIENTED_EDGE ( 'NONE', *, *, #632, .T. ) ;
#3 = ADVANCED_FACE ( 'NONE', ( #190, #426 ), #472, .F. ) ;
#4 = CYLINDRICAL_SURFACE ( 'NONE', #403, 0.009842519685043750119 ) ;
#5 = AXIS2_PLACEMENT_3D ( 'NONE', #511, #571, #457 ) ;
#6 = EDGE_LOOP ( 'NONE', ( #22, #545, #449, #456 ) ) ;
#7 = ORIENTED_EDGE ( 'NONE', *, *, #580, .T. ) ;
#8 = CARTESIAN_POINT ( 'NONE',  ( 6.208045882293546036, 5.309759961552915186, 0.000000000000000000 ) ) ;
#9 = FACE_BOUND ( 'NONE', #166, .T. ) ;
#11 = ORIENTED_EDGE ( 'NONE', *, *, #124, .F. ) ;
#10 = EDGE_CURVE ( 'NONE', #680, #508, #66, .T. ) ;
#12 = DIRECTION ( 'NONE',  ( -3.700743415415815640E-14, -1.000000000000000000, 0.000000000000000000 ) ) ;
#13 = VECTOR ( 'NONE', #54, 39.37007874015748143 ) ;
#14 = EDGE_LOOP ( 'NONE', ( #396, #274, #114, #55, #109 ) ) ;
#15 = CIRCLE ( 'NONE', #561, 0.01771653543307656620 ) ;
#16 = EDGE_CURVE ( 'NONE', #415, #359, #194, .T. ) ;
#17 = DIRECTION ( 'NONE',  ( 0.000000000000000000, 0.000000000000000000, -1.000000000000000000 ) ) ;
#18 = CARTESIAN_POINT ( 'NONE',  ( 6.204108874419531183, 5.319602481237958536, 1.205361022783364445E-18 ) ) ;
#19 = VERTEX_POINT ( 'NONE', #628 ) ;
#20 =( CONVERSION_BASED_UNIT ( 'INCH', #425 ) LENGTH_UNIT ( ) NAMED_UNIT ( #72 ) );
#21 = FACE_OUTER_BOUND ( 'NONE', #576, .T. ) ;
#22 = ORIENTED_EDGE ( 'NONE', *, *, #53, .T. ) ;
#23 = FACE_OUTER_BOUND ( 'NONE', #6, .T. ) ;
#24 = DIRECTION ( 'NONE',  ( 1.000000000000000000, -2.775557561736261205E-14, 0.000000000000000000 ) ) ;
#25 = ORIENTED_EDGE ( 'NONE', *, *, #322, .F. ) ;
#26 = AXIS2_PLACEMENT_3D ( 'NONE', #389, #24, #223 ) ;
#27 = CONICAL_SURFACE ( 'NONE', #585, 0.03031496062974177105, 0.03997868712533183405 ) ;
#28 = CARTESIAN_POINT ( 'NONE',  ( 6.156864779931343179, 5.309759961552916074, 0.000000000000000000 ) ) ;
#29 = DIRECTION ( 'NONE',  ( 1.000000000000000000, -2.071311613106657458E-14, 0.000000000000000000 ) ) ;
#30 = EDGE_LOOP ( 'NONE', ( #319, #264 ) ) ;
#31 = DIRECTION ( 'NONE',  ( -1.000000000000000000, 2.071311613106657458E-14, 0.000000000000000000 ) ) ;
#32 = CARTESIAN_POINT ( 'NONE',  ( 6.204108874419531183, 5.345193032419059520, 0.000000000000000000 ) ) ;
#33 = APPLICATION_CONTEXT ( 'automotive_design' ) ;
#34 = EDGE_LOOP ( 'NONE', ( #620, #419, #230, #603, #145 ) ) ;
#35 = SHAPE_DEFINITION_REPRESENTATION ( #335, #395 ) ;
#36 = ADVANCED_FACE ( 'NONE', ( #91 ), #188, .T. ) ;
#37 = DIRECTION ( 'NONE',  ( -0.9992009587217063338, 0.03996803835094774743, 4.894673023464270816E-18 ) ) ;
#38 = ORIENTED_EDGE ( 'NONE', *, *, #376, .F. ) ;
#39 = AXIS2_PLACEMENT_3D ( 'NONE', #526, #538, #306 ) ;
#40 = CARTESIAN_POINT ( 'NONE',  ( 6.204108874418505337, 5.345193032417586032, 0.000000000000000000 ) ) ;
#41 = CIRCLE ( 'NONE', #664, 0.01771653543307656620 ) ;
#42 = CARTESIAN_POINT ( 'NONE',  ( 6.255289976781290839, 5.340074922182746597, 3.712511950160097344E-18 ) ) ;
#43 = CARTESIAN_POINT ( 'NONE',  ( 6.255289976783529049, 5.309759961552915186, 0.000000000000000000 ) ) ;
#44 = CARTESIAN_POINT ( 'NONE',  ( 6.274975016151811857, 5.309759961552913410, 0.000000000000000000 ) ) ;
#45 = CARTESIAN_POINT ( 'NONE',  ( 6.355683677569132328, 5.309759961552911633, 0.000000000000000000 ) ) ;
#46 = DIRECTION ( 'NONE',  ( -3.700743415416089532E-14, -1.000000000000000000, 0.000000000000000000 ) ) ;
#47 = ORIENTED_EDGE ( 'NONE', *, *, #105, .F. ) ;
#48 = CARTESIAN_POINT ( 'NONE',  ( 6.361589189380158160, 5.333382008797011409, 0.000000000000000000 ) ) ;
#49 = AXIS2_PLACEMENT_3D ( 'NONE', #45, #136, #83 ) ;
#50 = CARTESIAN_POINT ( 'NONE',  ( 6.355683677569132328, 5.309759961552911633, 0.000000000000000000 ) ) ;
#51 = ORIENTED_EDGE ( 'NONE', *, *, #369, .T. ) ;
#52 = ADVANCED_FACE ( 'NONE', ( #361 ), #559, .T. ) ;
#53 = EDGE_CURVE ( 'NONE', #565, #404, #142, .T. ) ;
#54 = DIRECTION ( 'NONE',  ( -1.000000000000000000, 2.071311613106657458E-14, 0.000000000000000000 ) ) ;
#55 = ORIENTED_EDGE ( 'NONE', *, *, #173, .F. ) ;
#56 = AXIS2_PLACEMENT_3D ( 'NONE', #482, #413, #46 ) ;
#57 = AXIS2_PLACEMENT_3D ( 'NONE', #298, #31, #681 ) ;
#58 = EDGE_LOOP ( 'NONE', ( #244, #106, #633, #659, #392 ) ) ;
#59 = CYLINDRICAL_SURFACE ( 'NONE', #573, 0.01771653543307656620 ) ;
#60 = DIRECTION ( 'NONE',  ( -1.000000000000000000, 3.604620209843343652E-14, 0.000000000000000000 ) ) ;
#61 = ORIENTED_EDGE ( 'NONE', *, *, #521, .T. ) ;
#62 = DIRECTION ( 'NONE',  ( -3.604620209832624610E-14, -1.000000000000000000, 0.000000000000000000 ) ) ;
#63 = EDGE_LOOP ( 'NONE', ( #185, #382, #197, #598 ) ) ;
#64 = CARTESIAN_POINT ( 'NONE',  ( 6.156864779930985243, 5.309759961552916963, 0.000000000000000000 ) ) ;
#65 = FACE_OUTER_BOUND ( 'NONE', #452, .T. ) ;
#66 = CIRCLE ( 'NONE', #431, 0.009842519685043750119 ) ;
#67 = AXIS2_PLACEMENT_3D ( 'NONE', #303, #564, #187 ) ;
#68 = ORIENTED_EDGE ( 'NONE', *, *, #634, .T. ) ;
#69 = EDGE_CURVE ( 'NONE', #645, #557, #249, .T. ) ;
#70 = DIRECTION ( 'NONE',  ( -2.775557561562657533E-14, -1.000000000000000000, 0.000000000000000000 ) ) ;
#71 = VECTOR ( 'NONE', #399, 39.37007874015748143 ) ;
#72 = DIMENSIONAL_EXPONENTS ( 1.000000000000000000, 0.000000000000000000, 0.000000000000000000, 0.000000000000000000, 0.000000000000000000, 0.000000000000000000, 0.000000000000000000 ) ;
#73 = CARTESIAN_POINT ( 'NONE',  ( 6.158833283863023311, 5.309759961552916963, 0.000000000000000000 ) ) ;
#74 = DIRECTION ( 'NONE',  ( -3.604620209832624610E-14, -1.000000000000000000, 0.000000000000000000 ) ) ;
#75 = CYLINDRICAL_SURFACE ( 'NONE', #583, 0.009842519685043750119 ) ;
#76 = ORIENTED_EDGE ( 'NONE', *, *, #248, .T. ) ;
#77 = DIRECTION ( 'NONE',  ( -1.000000000000000000, 2.071311613106657458E-14, 0.000000000000000000 ) ) ;
#78 = DIRECTION ( 'NONE',  ( -2.775557561562657533E-14, -1.000000000000000000, 0.000000000000000000 ) ) ;
#79 = APPLICATION_CONTEXT ( 'automotive_design' ) ;
#80 = ORIENTED_EDGE ( 'NONE', *, *, #280, .F. ) ;
#81 = VECTOR ( 'NONE', #119, 39.37007874015748143 ) ;
#82 = FACE_OUTER_BOUND ( 'NONE', #607, .T. ) ;
#83 = DIRECTION ( 'NONE',  ( -3.700743415415815640E-14, -1.000000000000000000, 0.000000000000000000 ) ) ;
#84 = EDGE_CURVE ( 'NONE', #300, #149, #310, .T. ) ;
#85 = EDGE_LOOP ( 'NONE', ( #478, #539 ) ) ;
#86 = PRODUCT_CONTEXT ( 'NONE', #79, 'mechanical' ) ;
#87 = CARTESIAN_POINT ( 'NONE',  ( 6.361589189380159048, 5.309759961552911633, 0.000000000000000000 ) ) ;
#88 = ORIENTED_EDGE ( 'NONE', *, *, #363, .F. ) ;
#89 =( NAMED_UNIT ( * ) SI_UNIT ( $, .STERADIAN. ) SOLID_ANGLE_UNIT ( ) );
#90 = DIRECTION ( 'NONE',  ( -1.000000000000000000, 2.071311613106657458E-14, 0.000000000000000000 ) ) ;
#91 = FACE_OUTER_BOUND ( 'NONE', #338, .T. ) ;
#92 = AXIS2_PLACEMENT_3D ( 'NONE', #32, #29, #405 ) ;
#93 = CIRCLE ( 'NONE', #312, 0.03543307086467137323 ) ;
#94 = CARTESIAN_POINT ( 'NONE',  ( 6.402927772057328326, 5.292043426119834137, 0.000000000000000000 ) ) ;
#95 = CARTESIAN_POINT ( 'NONE',  ( 6.255289976781734040, 5.340074922182836303, 0.000000000000000000 ) ) ;
#96 = CARTESIAN_POINT ( 'NONE',  ( 6.355683677569134993, 5.309759961552910745, -0.02362204724410390741 ) ) ;
#97 = LINE ( 'NONE', #522, #636 ) ;
#98 = VERTEX_POINT ( 'NONE', #467 ) ;
#99 = LINE ( 'NONE', #315, #13 ) ;
#100 = ORIENTED_EDGE ( 'NONE', *, *, #608, .T. ) ;
#101 = AXIS2_PLACEMENT_3D ( 'NONE', #95, #158, #687 ) ;
#102 = CARTESIAN_POINT ( 'NONE',  ( 6.158833283868347941, 5.299917441867872725, 0.000000000000000000 ) ) ;
#103 = CIRCLE ( 'NONE', #391, 0.009842519685043750119 ) ;
#104 = VECTOR ( 'NONE', #509, 39.37007874015748143 ) ;
#105 = EDGE_CURVE ( 'NONE', #268, #557, #631, .T. ) ;
#106 = ORIENTED_EDGE ( 'NONE', *, *, #385, .T. ) ;
#107 = SPHERICAL_SURFACE ( 'NONE', #313, 0.01771653543307000894 ) ;
#108 = EDGE_CURVE ( 'NONE', #366, #581, #356, .T. ) ;
#109 = ORIENTED_EDGE ( 'NONE', *, *, #345, .F. ) ;
#110 =( LENGTH_UNIT ( ) NAMED_UNIT ( * ) SI_UNIT ( $, .METRE. ) );
#111 = ORIENTED_EDGE ( 'NONE', *, *, #280, .T. ) ;
#112 = CONICAL_SURFACE ( 'NONE', #622, 0.009842519683276790277, 0.7853981633974482790 ) ;
#113 = AXIS2_PLACEMENT_3D ( 'NONE', #626, #352, #568 ) ;
#114 = ORIENTED_EDGE ( 'NONE', *, *, #84, .F. ) ;
#115 = CARTESIAN_POINT ( 'NONE',  ( 6.204108874419531183, 5.309759961552915186, 0.000000000000000000 ) ) ;
#116 = DIRECTION ( 'NONE',  ( -1.000000000000000000, 2.071311613106657458E-14, 0.000000000000000000 ) ) ;
#117 = ORIENTED_EDGE ( 'NONE', *, *, #370, .T. ) ;
#118 = DIRECTION ( 'NONE',  ( -0.9992009587217092204, -0.03996803835087570783, 0.000000000000000000 ) ) ;
#119 = DIRECTION ( 'NONE',  ( -1.000000000000000000, 2.071311613106657458E-14, 0.000000000000000000 ) ) ;
#120 = EDGE_LOOP ( 'NONE', ( #662, #316, #342, #674 ) ) ;
#121 = CYLINDRICAL_SURFACE ( 'NONE', #216, 0.03937007874016079656 ) ;
#122 = CIRCLE ( 'NONE', #488, 0.02952755905512906634 ) ;
#123 = CIRCLE ( 'NONE', #49, 0.02952755905512906634 ) ;
#124 = EDGE_CURVE ( 'NONE', #98, #508, #97, .T. ) ;
#125 =( NAMED_UNIT ( * ) SI_UNIT ( $, .STERADIAN. ) SOLID_ANGLE_UNIT ( ) );
#126 = PRODUCT_DEFINITION_FORMATION_WITH_SPECIFIED_SOURCE ( 'ANY', '', #239, .NOT_KNOWN. ) ;
#127 = CARTESIAN_POINT ( 'NONE',  ( 6.208045882293545148, 5.270389882812754223, 0.000000000000000000 ) ) ;
#128 = CARTESIAN_POINT ( 'NONE',  ( 6.156864779931344067, 5.339287520608045234, 3.616083068349825631E-18 ) ) ;
#129 = CARTESIAN_POINT ( 'NONE',  ( 6.158833283863023311, 5.309759961552916963, 0.009842519683276790277 ) ) ;
#130 = VERTEX_POINT ( 'NONE', #169 ) ;
#131 = CARTESIAN_POINT ( 'NONE',  ( 6.158833283868347941, 5.309759961552916963, 0.009842519688601709602 ) ) ;
#132 = DIRECTION ( 'NONE',  ( 0.000000000000000000, -1.000000000000000000, 0.000000000000000000 ) ) ;
#133 = ORIENTED_EDGE ( 'NONE', *, *, #208, .F. ) ;
#134 = APPLICATION_PROTOCOL_DEFINITION ( 'draft international standard', 'automotive_design', 1998, #33 ) ;
#135 = CIRCLE ( 'NONE', #347, 0.02362204724409953591 ) ;
#136 = DIRECTION ( 'NONE',  ( -1.000000000000000000, 2.071311613106657458E-14, 0.000000000000000000 ) ) ;
#137 = ORIENTED_EDGE ( 'NONE', *, *, #241, .T. ) ;
#138 = CARTESIAN_POINT ( 'NONE',  ( 6.158833283868347941, 5.309759961552916074, 0.000000000000000000 ) ) ;
#139 = DIRECTION ( 'NONE',  ( 0.000000000000000000, -1.000000000000000000, 0.000000000000000000 ) ) ;
#140 = DIRECTION ( 'NONE',  ( 1.000000000000000000, -2.071311613106657458E-14, 0.000000000000000000 ) ) ;
#141 = CARTESIAN_POINT ( 'NONE',  ( 6.156864779931344067, 5.349130040293077037, 4.821444091131717510E-18 ) ) ;
#142 = CIRCLE ( 'NONE', #56, 0.02952755905512688059 ) ;
#143 = CARTESIAN_POINT ( 'NONE',  ( 6.158833283868347941, 5.319602481237959424, 1.205361022783364445E-18 ) ) ;
#144 = DIRECTION ( 'NONE',  ( -1.000000000000000000, 2.071311613106657458E-14, 0.000000000000000000 ) ) ;
#145 = ORIENTED_EDGE ( 'NONE', *, *, #296, .T. ) ;
#146 = CARTESIAN_POINT ( 'NONE',  ( 6.274975016151813634, 5.339287520608042570, 3.616083068349959676E-18 ) ) ;
#147 = CARTESIAN_POINT ( 'NONE',  ( 6.274975016151811857, 5.309759961552913410, 0.000000000000000000 ) ) ;
#148 = FACE_OUTER_BOUND ( 'NONE', #302, .T. ) ;
#149 = VERTEX_POINT ( 'NONE', #394 ) ;
#150 = VECTOR ( 'NONE', #90, 39.37007874015748143 ) ;
#151 = FILL_AREA_STYLE ('',( #254 ) ) ;
#152 = CIRCLE ( 'NONE', #459, 0.009842519685043750119 ) ;
#153 = AXIS2_PLACEMENT_3D ( 'NONE', #64, #491, #17 ) ;
#154 = VECTOR ( 'NONE', #406, 39.37007874015748854 ) ;
#155 = DIRECTION ( 'NONE',  ( -1.000000000000000000, 2.071311613106657458E-14, 0.000000000000000000 ) ) ;
#156 = VERTEX_POINT ( 'NONE', #127 ) ;
#157 = CARTESIAN_POINT ( 'NONE',  ( 6.156864779931344067, 5.339287520608042570, 3.616083068349557541E-18 ) ) ;
#158 = DIRECTION ( 'NONE',  ( 1.000000000000000000, -2.071311613106657458E-14, 0.000000000000000000 ) ) ;
#159 = ORIENTED_EDGE ( 'NONE', *, *, #10, .F. ) ;
#160 = DIRECTION ( 'NONE',  ( 0.000000000000000000, -1.000000000000000000, 0.000000000000000000 ) ) ;
#161 = FACE_OUTER_BOUND ( 'NONE', #181, .T. ) ;
#162 = VECTOR ( 'NONE', #155, 39.37007874015748143 ) ;
#163 = ORIENTED_EDGE ( 'NONE', *, *, #84, .T. ) ;
#164 = DIRECTION ( 'NONE',  ( -1.000000000000000000, 0.000000000000000000, 0.000000000000000000 ) ) ;
#165 = CYLINDRICAL_SURFACE ( 'NONE', #287, 0.01771653543307656620 ) ;
#166 = EDGE_LOOP ( 'NONE', ( #271, #435 ) ) ;
#167 = DIRECTION ( 'NONE',  ( 1.000000000000000000, 0.000000000000000000, 0.000000000000000000 ) ) ;
#168 = EDGE_LOOP ( 'NONE', ( #193, #329, #656, #371, #159 ) ) ;
#169 = CARTESIAN_POINT ( 'NONE',  ( 6.361589189380158160, 5.309759961552910745, -0.02362204724409953591 ) ) ;
#170 = AXIS2_PLACEMENT_3D ( 'NONE', #360, #400, #183 ) ;
#171 = VECTOR ( 'NONE', #118, 39.37007874015748854 ) ;
#172 = DIRECTION ( 'NONE',  ( 1.000000000000000000, 0.000000000000000000, 0.000000000000000000 ) ) ;
#173 = EDGE_CURVE ( 'NONE', #616, #300, #122, .T. ) ;
#174 = DIRECTION ( 'NONE',  ( -3.700743415416089532E-14, -1.000000000000000000, 0.000000000000000000 ) ) ;
#175 = DIRECTION ( 'NONE',  ( -1.000000000000000000, 2.071311613106657458E-14, 0.000000000000000000 ) ) ;
#176 = ORIENTED_EDGE ( 'NONE', *, *, #551, .T. ) ;
#177 = DIRECTION ( 'NONE',  ( 0.000000000000000000, 0.000000000000000000, 1.000000000000000000 ) ) ;
#178 = ADVANCED_FACE ( 'NONE', ( #21 ), #458, .T. ) ;
#179 = UNCERTAINTY_MEASURE_WITH_UNIT (LENGTH_MEASURE( 1.000000000000000082E-05 ), #20, 'distance_accuracy_value', 'NONE');
#180 = DIRECTION ( 'NONE',  ( -1.000000000000000000, 3.604620209843343652E-14, 0.000000000000000000 ) ) ;
#181 = EDGE_LOOP ( 'NONE', ( #532, #111, #61, #554 ) ) ;
#182 = ADVANCED_FACE ( 'NONE', ( #161 ), #165, .T. ) ;
#183 = DIRECTION ( 'NONE',  ( -3.700743415415815640E-14, -1.000000000000000000, 0.000000000000000000 ) ) ;
#184 = CIRCLE ( 'NONE', #609, 0.03937007874016079656 ) ;
#185 = ORIENTED_EDGE ( 'NONE', *, *, #16, .F. ) ;
#186 = AXIS2_PLACEMENT_3D ( 'NONE', #420, #693, #474 ) ;
#187 = DIRECTION ( 'NONE',  ( 0.000000000000000000, 0.000000000000000000, -1.000000000000000000 ) ) ;
#188 = CYLINDRICAL_SURFACE ( 'NONE', #39, 0.02952755905512688059 ) ;
#189 =( LENGTH_UNIT ( ) NAMED_UNIT ( * ) SI_UNIT ( $, .METRE. ) );
#190 = FACE_OUTER_BOUND ( 'NONE', #523, .T. ) ;
#191 = FACE_OUTER_BOUND ( 'NONE', #63, .T. ) ;
#192 = FACE_OUTER_BOUND ( 'NONE', #120, .T. ) ;
#193 = ORIENTED_EDGE ( 'NONE', *, *, #213, .F. ) ;
#194 = CIRCLE ( 'NONE', #592, 0.02952755905512906634 ) ;
#195 = AXIS2_PLACEMENT_3D ( 'NONE', #8, #548, #70 ) ;
#196 = CARTESIAN_POINT ( 'NONE',  ( 6.156864779931343179, 5.319602481237959424, 1.205361022783364445E-18 ) ) ;
#197 = ORIENTED_EDGE ( 'NONE', *, *, #570, .T. ) ;
#198 = ADVANCED_FACE ( 'NONE', ( #9, #215 ), #378, .F. ) ;
#199 = LINE ( 'NONE', #196, #162 ) ;
#200 = PRESENTATION_STYLE_ASSIGNMENT (( #422 ) ) ;
#201 = AXIS2_PLACEMENT_3D ( 'NONE', #43, #60, #270 ) ;
#202 = CARTESIAN_POINT ( 'NONE',  ( 6.402927772057328326, 5.309759961552910745, 0.000000000000000000 ) ) ;
#203 =( GEOMETRIC_REPRESENTATION_CONTEXT ( 3 ) GLOBAL_UNCERTAINTY_ASSIGNED_CONTEXT ( ( #617 ) ) GLOBAL_UNIT_ASSIGNED_CONTEXT ( ( #567, #240, #89 ) ) REPRESENTATION_CONTEXT ( 'NONE', 'WORKASPACE' ) );
#204 = MECHANICAL_DESIGN_GEOMETRIC_PRESENTATION_REPRESENTATION (  '', ( #502 ), #301 ) ;
#205 = ADVANCED_FACE ( 'NONE', ( #597 ), #346, .T. ) ;
#206 = ORIENTED_EDGE ( 'NONE', *, *, #213, .T. ) ;
#207 = EDGE_LOOP ( 'NONE', ( #351, #648, #468, #562, #11 ) ) ;
#208 = EDGE_CURVE ( 'NONE', #255, #323, #421, .T. ) ;
#209 = VERTEX_POINT ( 'NONE', #544 ) ;
#210 =( NAMED_UNIT ( * ) PLANE_ANGLE_UNIT ( ) SI_UNIT ( $, .RADIAN. ) );
#211 = DIRECTION ( 'NONE',  ( -1.000000000000000000, 2.071311613106657458E-14, 0.000000000000000000 ) ) ;
#212 = ORIENTED_EDGE ( 'NONE', *, *, #257, .T. ) ;
#213 = EDGE_CURVE ( 'NONE', #487, #680, #434, .T. ) ;
#214 = DIRECTION ( 'NONE',  ( -1.000000000000000000, 2.071311613106657458E-14, 0.000000000000000000 ) ) ;
#215 = FACE_OUTER_BOUND ( 'NONE', #85, .T. ) ;
#216 = AXIS2_PLACEMENT_3D ( 'NONE', #437, #337, #332 ) ;
#217 = AXIS2_PLACEMENT_3D ( 'NONE', #669, #132, #463 ) ;
#218 = ORIENTED_EDGE ( 'NONE', *, *, #480, .F. ) ;
#219 = DIRECTION ( 'NONE',  ( 0.000000000000000000, -1.000000000000000000, 0.000000000000000000 ) ) ;
#220 = ADVANCED_FACE ( 'NONE', ( #65 ), #281, .T. ) ;
#221 = FACE_OUTER_BOUND ( 'NONE', #398, .T. ) ;
#222 = ORIENTED_EDGE ( 'NONE', *, *, #510, .F. ) ;
#223 = DIRECTION ( 'NONE',  ( 2.775557561736222394E-14, 1.000000000000000000, 0.000000000000000000 ) ) ;
#224 = ADVANCED_FACE ( 'NONE', ( #655 ), #112, .T. ) ;
#225 = VERTEX_POINT ( 'NONE', #18 ) ;
#226 = CARTESIAN_POINT ( 'NONE',  ( 6.361589189380159048, 5.309759961552911633, 0.000000000000000000 ) ) ;
#227 = DIRECTION ( 'NONE',  ( 0.000000000000000000, 0.000000000000000000, 1.000000000000000000 ) ) ;
#228 = AXIS2_PLACEMENT_3D ( 'NONE', #50, #357, #464 ) ;
#229 = CIRCLE ( 'NONE', #195, 0.03937007874016079656 ) ;
#230 = ORIENTED_EDGE ( 'NONE', *, *, #16, .T. ) ;
#231 = CARTESIAN_POINT ( 'NONE',  ( 0.000000000000000000, 0.000000000000000000, 0.000000000000000000 ) ) ;
#232 = LINE ( 'NONE', #563, #154 ) ;
#233 = DIRECTION ( 'NONE',  ( -1.000000000000000000, 0.000000000000000000, 2.312964634635249386E-14 ) ) ;
#234 = ORIENTED_EDGE ( 'NONE', *, *, #570, .F. ) ;
#235 = CARTESIAN_POINT ( 'NONE',  ( 6.156864779930985243, 5.309759961552916963, -0.007874015751238911190 ) ) ;
#236 = PLANE ( 'NONE',  #92 ) ;
#237 = ORIENTED_EDGE ( 'NONE', *, *, #208, .T. ) ;
#238 = APPLICATION_PROTOCOL_DEFINITION ( 'draft international standard', 'automotive_design', 1998, #79 ) ;
#239 = PRODUCT ( 'Same_Sky_CPG-47-TH-B', 'Same_Sky_CPG-47-TH-B', '', ( #86 ) ) ;
#240 =( NAMED_UNIT ( * ) PLANE_ANGLE_UNIT ( ) SI_UNIT ( $, .RADIAN. ) );
#241 = EDGE_CURVE ( 'NONE', #130, #497, #690, .T. ) ;
#242 = DIRECTION ( 'NONE',  ( 0.000000000000000000, -1.000000000000000000, 0.000000000000000000 ) ) ;
#243 = AXIS2_PLACEMENT_3D ( 'NONE', #486, #211, #441 ) ;
#244 = ORIENTED_EDGE ( 'NONE', *, *, #401, .F. ) ;
#245 = AXIS2_PLACEMENT_3D ( 'NONE', #226, #537, #540 ) ;
#246 = FACE_OUTER_BOUND ( 'NONE', #34, .T. ) ;
#247 = DIRECTION ( 'NONE',  ( 0.000000000000000000, 1.000000000000000000, 6.429395695523623381E-17 ) ) ;
#248 = EDGE_CURVE ( 'NONE', #520, #156, #381, .T. ) ;
#249 = LINE ( 'NONE', #408, #621 ) ;
#250 = DIRECTION ( 'NONE',  ( 1.000000000000000000, -2.071311613106657458E-14, 0.000000000000000000 ) ) ;
#251 = PLANE ( 'NONE',  #5 ) ;
#252 = ADVANCED_FACE ( 'NONE', ( #221 ), #121, .T. ) ;
#253 = DIRECTION ( 'NONE',  ( -1.000000000000000000, 2.071311613106657458E-14, 0.000000000000000000 ) ) ;
#254 = FILL_AREA_STYLE_COLOUR ( '', #278 ) ;
#255 = VERTEX_POINT ( 'NONE', #494 ) ;
#256 = ADVANCED_FACE ( 'NONE', ( #553 ), #75, .T. ) ;
#257 = EDGE_CURVE ( 'NONE', #520, #268, #184, .T. ) ;
#258 = AXIS2_PLACEMENT_3D ( 'NONE', #492, #116, #325 ) ;
#259 = VECTOR ( 'NONE', #266, 39.37007874015748143 ) ;
#260 = FACE_OUTER_BOUND ( 'NONE', #427, .T. ) ;
#261 = DIRECTION ( 'NONE',  ( -1.000000000000000000, 2.071311613106657458E-14, 0.000000000000000000 ) ) ;
#262 = FACE_OUTER_BOUND ( 'NONE', #207, .T. ) ;
#263 = CARTESIAN_POINT ( 'NONE',  ( 6.204108874419531183, 5.309759961552915186, 0.000000000000000000 ) ) ;
#264 = ORIENTED_EDGE ( 'NONE', *, *, #521, .F. ) ;
#265 = CIRCLE ( 'NONE', #663, 0.009842519685043750119 ) ;
#266 = DIRECTION ( 'NONE',  ( -1.000000000000000000, 2.071311613106657458E-14, 0.000000000000000000 ) ) ;
#267 = AXIS2_PLACEMENT_3D ( 'NONE', #330, #269, #160 ) ;
#268 = VERTEX_POINT ( 'NONE', #285 ) ;
#269 = DIRECTION ( 'NONE',  ( 1.000000000000000000, -2.071311613106657458E-14, 0.000000000000000000 ) ) ;
#270 = DIRECTION ( 'NONE',  ( -3.604620209843279281E-14, -1.000000000000000000, 0.000000000000000000 ) ) ;
#271 = ORIENTED_EDGE ( 'NONE', *, *, #596, .F. ) ;
#272 = CARTESIAN_POINT ( 'NONE',  ( 6.156864779931343179, 5.309759961552916074, 0.000000000000000000 ) ) ;
#273 = DIRECTION ( 'NONE',  ( -1.000000000000000000, 0.000000000000000000, 0.000000000000000000 ) ) ;
#274 = ORIENTED_EDGE ( 'NONE', *, *, #322, .T. ) ;
#275 = ADVANCED_FACE ( 'NONE', ( #192 ), #675, .T. ) ;
#276 = CARTESIAN_POINT ( 'NONE',  ( 6.223793913789605448, 5.270389882812754223, 0.000000000000000000 ) ) ;
#277 = DIRECTION ( 'NONE',  ( -1.000000000000000000, 2.071311613106657458E-14, 0.000000000000000000 ) ) ;
#278 = COLOUR_RGB ( '',0.7921568627450980005, 0.8196078431372548767, 0.9333333333333333481 ) ;
#279 = ORIENTED_EDGE ( 'NONE', *, *, #296, .F. ) ;
#280 = EDGE_CURVE ( 'NONE', #581, #292, #518, .T. ) ;
#281 = CYLINDRICAL_SURFACE ( 'NONE', #258, 0.03937007874016079656 ) ;
#282 = DIRECTION ( 'NONE',  ( -1.000000000000000000, 0.000000000000000000, 2.312964634635249386E-14 ) ) ;
#283 = ADVANCED_FACE ( 'NONE', ( #299 ), #251, .F. ) ;
#284 = ORIENTED_EDGE ( 'NONE', *, *, #53, .F. ) ;
#285 = CARTESIAN_POINT ( 'NONE',  ( 6.223793913789607224, 5.349130040293076149, 4.821444091131717510E-18 ) ) ;
#286 = ADVANCED_FACE ( 'NONE', ( #619, #635 ), #236, .F. ) ;
#287 = AXIS2_PLACEMENT_3D ( 'NONE', #328, #277, #384 ) ;
#288 = CIRCLE ( 'NONE', #414, 0.03543307086467137323 ) ;
#289 = VERTEX_POINT ( 'NONE', #143 ) ;
#290 = DIMENSIONAL_EXPONENTS ( 1.000000000000000000, 0.000000000000000000, 0.000000000000000000, 0.000000000000000000, 0.000000000000000000, 0.000000000000000000, 0.000000000000000000 ) ;
#291 = DIRECTION ( 'NONE',  ( 0.000000000000000000, 0.000000000000000000, 1.000000000000000000 ) ) ;
#292 = VERTEX_POINT ( 'NONE', #294 ) ;
#293 = LENGTH_MEASURE_WITH_UNIT ( LENGTH_MEASURE( 0.02539999999999999897 ), #189 );
#294 = CARTESIAN_POINT ( 'NONE',  ( 6.361589189380159048, 5.327476496985988241, 2.169649841009789067E-18 ) ) ;
#295 = ORIENTED_EDGE ( 'NONE', *, *, #297, .F. ) ;
#296 = EDGE_CURVE ( 'NONE', #19, #616, #477, .T. ) ;
#297 = EDGE_CURVE ( 'NONE', #415, #323, #560, .T. ) ;
#298 = CARTESIAN_POINT ( 'NONE',  ( 6.223793913789606336, 5.309759961552915186, 0.000000000000000000 ) ) ;
#299 = FACE_OUTER_BOUND ( 'NONE', #688, .T. ) ;
#300 = VERTEX_POINT ( 'NONE', #623 ) ;
#301 =( GEOMETRIC_REPRESENTATION_CONTEXT ( 3 ) GLOBAL_UNCERTAINTY_ASSIGNED_CONTEXT ( ( #179 ) ) GLOBAL_UNIT_ASSIGNED_CONTEXT ( ( #20, #210, #125 ) ) REPRESENTATION_CONTEXT ( 'NONE', 'WORKASPACE' ) );
#302 = EDGE_LOOP ( 'NONE', ( #348, #218 ) ) ;
#303 = CARTESIAN_POINT ( 'NONE',  ( 6.156864779930985243, 5.309759961552916963, 0.000000000000000000 ) ) ;
#304 = EDGE_CURVE ( 'NONE', #471, #289, #265, .T. ) ;
#305 = DIRECTION ( 'NONE',  ( -1.000000000000000000, 2.071311613106657458E-14, 0.000000000000000000 ) ) ;
#306 = DIRECTION ( 'NONE',  ( -3.700743415416089532E-14, -1.000000000000000000, 0.000000000000000000 ) ) ;
#307 = EDGE_LOOP ( 'NONE', ( #295, #430, #176, #237 ) ) ;
#308 = DIRECTION ( 'NONE',  ( -1.000000000000000000, 2.071311613106657458E-14, 0.000000000000000000 ) ) ;
#309 = DIRECTION ( 'NONE',  ( -3.700743415415815640E-14, -1.000000000000000000, 0.000000000000000000 ) ) ;
#310 = CIRCLE ( 'NONE', #228, 0.02952755905512906634 ) ;
#311 = ORIENTED_EDGE ( 'NONE', *, *, #650, .F. ) ;
#312 = AXIS2_PLACEMENT_3D ( 'NONE', #364, #591, #642 ) ;
#313 = AXIS2_PLACEMENT_3D ( 'NONE', #646, #368, #689 ) ;
#314 = SURFACE_STYLE_FILL_AREA ( #151 ) ;
#315 = CARTESIAN_POINT ( 'NONE',  ( 6.156864779931343179, 5.292043426119839467, 0.000000000000000000 ) ) ;
#316 = ORIENTED_EDGE ( 'NONE', *, *, #365, .T. ) ;
#317 = PRODUCT_DEFINITION ( 'UNKNOWN', '', #126, #1 ) ;
#318 = LINE ( 'NONE', #157, #259 ) ;
#319 = ORIENTED_EDGE ( 'NONE', *, *, #370, .F. ) ;
#320 = CARTESIAN_POINT ( 'NONE',  ( 6.255289976781289951, 5.309759961552915186, 0.000000000000000000 ) ) ;
#321 = ORIENTED_EDGE ( 'NONE', *, *, #640, .T. ) ;
#322 = EDGE_CURVE ( 'NONE', #130, #149, #445, .T. ) ;
#323 = VERTEX_POINT ( 'NONE', #42 ) ;
#324 = CYLINDRICAL_SURFACE ( 'NONE', #691, 0.02952755905512688059 ) ;
#325 = DIRECTION ( 'NONE',  ( -2.775557561562657533E-14, -1.000000000000000000, 0.000000000000000000 ) ) ;
#326 = EDGE_CURVE ( 'NONE', #497, #130, #135, .T. ) ;
#327 = ORIENTED_EDGE ( 'NONE', *, *, #602, .F. ) ;
#328 = CARTESIAN_POINT ( 'NONE',  ( 6.156864779931343179, 5.309759961552916074, 0.000000000000000000 ) ) ;
#329 = ORIENTED_EDGE ( 'NONE', *, *, #606, .T. ) ;
#330 = CARTESIAN_POINT ( 'NONE',  ( 6.158833283868347941, 5.309759961552916074, 0.000000000000000000 ) ) ;
#331 = AXIS2_PLACEMENT_3D ( 'NONE', #612, #282, #600 ) ;
#332 = DIRECTION ( 'NONE',  ( -2.775557561562657533E-14, -1.000000000000000000, 0.000000000000000000 ) ) ;
#333 = CIRCLE ( 'NONE', #113, 0.02952755905512688059 ) ;
#334 = ORIENTED_EDGE ( 'NONE', *, *, #442, .T. ) ;
#335 = PRODUCT_DEFINITION_SHAPE ( 'NONE', 'NONE',  #317 ) ;
#336 = DIRECTION ( 'NONE',  ( 1.000000000000000000, -3.604620209843343652E-14, 0.000000000000000000 ) ) ;
#337 = DIRECTION ( 'NONE',  ( -1.000000000000000000, 2.071311613106657458E-14, 0.000000000000000000 ) ) ;
#338 = EDGE_LOOP ( 'NONE', ( #493, #424, #100, #587 ) ) ;
#339 = DIRECTION ( 'NONE',  ( -3.700743415415815640E-14, -1.000000000000000000, 0.000000000000000000 ) ) ;
#340 = EDGE_CURVE ( 'NONE', #149, #19, #123, .T. ) ;
#341 = DIRECTION ( 'NONE',  ( -1.000000000000000000, 2.071311613106657458E-14, 0.000000000000000000 ) ) ;
#342 = ORIENTED_EDGE ( 'NONE', *, *, #69, .T. ) ;
#343 = CARTESIAN_POINT ( 'NONE',  ( 6.156864779931343179, 5.309759961552916074, 0.000000000000000000 ) ) ;
#344 = CARTESIAN_POINT ( 'NONE',  ( 6.208045882293546036, 5.309759961552915186, 0.000000000000000000 ) ) ;
#345 = EDGE_CURVE ( 'NONE', #497, #616, #528, .T. ) ;
#346 = TOROIDAL_SURFACE ( 'NONE', #525, 0.02362204724410390741, 0.005905511811022425873 ) ;
#347 = AXIS2_PLACEMENT_3D ( 'NONE', #500, #233, #247 ) ;
#348 = ORIENTED_EDGE ( 'NONE', *, *, #108, .F. ) ;
#349 = DIRECTION ( 'NONE',  ( 1.000000000000000000, -2.071311613106657458E-14, 0.000000000000000000 ) ) ;
#350 = DIRECTION ( 'NONE',  ( 1.000000000000000000, -2.775557561736261205E-14, 0.000000000000000000 ) ) ;
#351 = ORIENTED_EDGE ( 'NONE', *, *, #510, .T. ) ;
#352 = DIRECTION ( 'NONE',  ( -1.000000000000000000, 2.071311613106657458E-14, 0.000000000000000000 ) ) ;
#353 = CARTESIAN_POINT ( 'NONE',  ( 6.158833283868347941, 5.309759961552916074, 0.000000000000000000 ) ) ;
#354 = DIRECTION ( 'NONE',  ( -3.604620209843279281E-14, -1.000000000000000000, 0.000000000000000000 ) ) ;
#355 = DIRECTION ( 'NONE',  ( 3.083952846308964385E-14, 1.000000000000000000, 0.000000000000000000 ) ) ;
#356 = CIRCLE ( 'NONE', #499, 0.01771653543307656620 ) ;
#357 = DIRECTION ( 'NONE',  ( -1.000000000000000000, 2.071311613106657458E-14, 0.000000000000000000 ) ) ;
#358 = CIRCLE ( 'NONE', #536, 0.03031496062983137646 ) ;
#359 = VERTEX_POINT ( 'NONE', #407 ) ;
#360 = CARTESIAN_POINT ( 'NONE',  ( 6.355683677569132328, 5.309759961552911633, 0.000000000000000000 ) ) ;
#361 = FACE_OUTER_BOUND ( 'NONE', #307, .T. ) ;
#362 = FACE_BOUND ( 'NONE', #30, .T. ) ;
#363 = EDGE_CURVE ( 'NONE', #557, #156, #624, .T. ) ;
#364 = CARTESIAN_POINT ( 'NONE',  ( 6.204108874418503561, 5.309759961552915186, 0.000000000000000000 ) ) ;
#365 = EDGE_CURVE ( 'NONE', #209, #645, #288, .T. ) ;
#366 = VERTEX_POINT ( 'NONE', #94 ) ;
#367 = AXIS2_PLACEMENT_3D ( 'NONE', #48, #308, #524 ) ;
#368 = DIRECTION ( 'NONE',  ( -0.000000000000000000, -0.000000000000000000, -1.000000000000000000 ) ) ;
#369 = EDGE_CURVE ( 'NONE', #652, #487, #653, .T. ) ;
#370 = EDGE_CURVE ( 'NONE', #589, #292, #15, .T. ) ;
#371 = ORIENTED_EDGE ( 'NONE', *, *, #566, .F. ) ;
#372 = PLANE ( 'NONE',  #367 ) ;
#373 = DIRECTION ( 'NONE',  ( 1.000000000000000000, -2.071311613106657458E-14, 0.000000000000000000 ) ) ;
#374 = ORIENTED_EDGE ( 'NONE', *, *, #606, .F. ) ;
#375 = LINE ( 'NONE', #599, #460 ) ;
#376 = EDGE_CURVE ( 'NONE', #404, #565, #333, .T. ) ;
#377 = AXIS2_PLACEMENT_3D ( 'NONE', #651, #436, #174 ) ;
#378 = PLANE ( 'NONE',  #243 ) ;
#379 = ORIENTED_EDGE ( 'NONE', *, *, #385, .F. ) ;
#380 = DIRECTION ( 'NONE',  ( 0.000000000000000000, 0.000000000000000000, 1.000000000000000000 ) ) ;
#381 = LINE ( 'NONE', #429, #81 ) ;
#382 = ORIENTED_EDGE ( 'NONE', *, *, #297, .T. ) ;
#383 = LINE ( 'NONE', #657, #171 ) ;
#384 = DIRECTION ( 'NONE',  ( 0.000000000000000000, -1.000000000000000000, 0.000000000000000000 ) ) ;
#385 = EDGE_CURVE ( 'NONE', #225, #98, #103, .T. ) ;
#386 = VERTEX_POINT ( 'NONE', #418 ) ;
#387 = CARTESIAN_POINT ( 'NONE',  ( 6.156864779930985243, 5.309759961552916963, 0.007874015751238911190 ) ) ;
#388 = AXIS2_PLACEMENT_3D ( 'NONE', #682, #466, #686 ) ;
#389 = CARTESIAN_POINT ( 'NONE',  ( 6.208045882293768969, 5.309759961552915186, 0.000000000000000000 ) ) ;
#390 = CIRCLE ( 'NONE', #57, 0.03937007874016079656 ) ;
#391 = AXIS2_PLACEMENT_3D ( 'NONE', #263, #531, #644 ) ;
#392 = ORIENTED_EDGE ( 'NONE', *, *, #304, .T. ) ;
#393 = FACE_OUTER_BOUND ( 'NONE', #14, .T. ) ;
#394 = CARTESIAN_POINT ( 'NONE',  ( 6.355683677569132328, 5.309759961552910745, -0.02952755905512769938 ) ) ;
#395 = ADVANCED_BREP_SHAPE_REPRESENTATION ( 'Same_Sky_CPG-47-TH-B', ( #483, #515 ), #203 ) ;
#396 = ORIENTED_EDGE ( 'NONE', *, *, #326, .T. ) ;
#397 = LINE ( 'NONE', #555, #104 ) ;
#398 = EDGE_LOOP ( 'NONE', ( #212, #461, #506, #514 ) ) ;
#399 = DIRECTION ( 'NONE',  ( -1.000000000000000000, 2.071311613106657458E-14, 0.000000000000000000 ) ) ;
#400 = DIRECTION ( 'NONE',  ( -1.000000000000000000, 2.071311613106657458E-14, 0.000000000000000000 ) ) ;
#401 = EDGE_CURVE ( 'NONE', #225, #289, #199, .T. ) ;
#402 = CLOSED_SHELL ( 'NONE', ( #224, #476, #178, #252, #182, #590, #641, #672, #601, #205, #423, #679, #52, #36, #527, #220, #275, #256, #475, #3, #453, #198, #286, #283 ) ) ;
#403 = AXIS2_PLACEMENT_3D ( 'NONE', #588, #582, #533 ) ;
#404 = VERTEX_POINT ( 'NONE', #416 ) ;
#405 = DIRECTION ( 'NONE',  ( 2.071311613106657458E-14, 1.000000000000000000, 0.000000000000000000 ) ) ;
#406 = DIRECTION ( 'NONE',  ( 0.7071067813874996055, -0.7071067809855952069, 8.659560559893734905E-17 ) ) ;
#407 = CARTESIAN_POINT ( 'NONE',  ( 6.274975016151810969, 5.280232402497785138, 0.000000000000000000 ) ) ;
#408 = CARTESIAN_POINT ( 'NONE',  ( 6.208045882293770745, 5.349130040290614119, 0.000000000000000000 ) ) ;
#409 = EDGE_CURVE ( 'NONE', #404, #530, #318, .T. ) ;
#410 = ORIENTED_EDGE ( 'NONE', *, *, #480, .T. ) ;
#411 = CARTESIAN_POINT ( 'NONE',  ( 6.156864779931343179, 5.327476496985992682, 2.169649841009788682E-18 ) ) ;
#412 = VECTOR ( 'NONE', #549, 39.37007874015748854 ) ;
#413 = DIRECTION ( 'NONE',  ( -1.000000000000000000, 2.071311613106657458E-14, 0.000000000000000000 ) ) ;
#414 = AXIS2_PLACEMENT_3D ( 'NONE', #630, #350, #355 ) ;
#415 = VERTEX_POINT ( 'NONE', #146 ) ;
#416 = CARTESIAN_POINT ( 'NONE',  ( 6.255289976781735817, 5.339287520608040793, 3.616083068349557541E-18 ) ) ;
#417 = ORIENTED_EDGE ( 'NONE', *, *, #683, .T. ) ;
#418 = CARTESIAN_POINT ( 'NONE',  ( 6.223793913789605448, 5.280232402497787803, 0.000000000000000000 ) ) ;
#419 = ORIENTED_EDGE ( 'NONE', *, *, #650, .T. ) ;
#420 = CARTESIAN_POINT ( 'NONE',  ( 6.158833283863023311, 5.309759961552916963, 0.000000000000000000 ) ) ;
#421 = CIRCLE ( 'NONE', #512, 0.03031496062983137646 ) ;
#422 = SURFACE_STYLE_USAGE ( .BOTH. , #473 ) ;
#423 = ADVANCED_FACE ( 'NONE', ( #148 ), #107, .T. ) ;
#424 = ORIENTED_EDGE ( 'NONE', *, *, #376, .T. ) ;
#425 = LENGTH_MEASURE_WITH_UNIT ( LENGTH_MEASURE( 0.02539999999999999897 ), #110 );
#426 = FACE_BOUND ( 'NONE', #542, .T. ) ;
#427 = EDGE_LOOP ( 'NONE', ( #649, #692 ) ) ;
#428 = CARTESIAN_POINT ( 'NONE',  ( 6.402927772057328326, 5.327476496985987353, 2.169649841009789067E-18 ) ) ;
#429 = CARTESIAN_POINT ( 'NONE',  ( 6.156864779931341403, 5.270389882812755111, 0.000000000000000000 ) ) ;
#430 = ORIENTED_EDGE ( 'NONE', *, *, #632, .F. ) ;
#431 = AXIS2_PLACEMENT_3D ( 'NONE', #353, #373, #643 ) ;
#432 = DIRECTION ( 'NONE',  ( 0.000000000000000000, -1.000000000000000000, 0.000000000000000000 ) ) ;
#433 = AXIS2_PLACEMENT_3D ( 'NONE', #96, #455, #291 ) ;
#434 = LINE ( 'NONE', #129, #412 ) ;
#435 = ORIENTED_EDGE ( 'NONE', *, *, #627, .F. ) ;
#436 = DIRECTION ( 'NONE',  ( 1.000000000000000000, -2.071311613106657458E-14, 0.000000000000000000 ) ) ;
#437 = CARTESIAN_POINT ( 'NONE',  ( 6.156864779931343179, 5.309759961552916074, 0.000000000000000000 ) ) ;
#438 = EDGE_CURVE ( 'NONE', #645, #209, #93, .T. ) ;
#439 = EDGE_LOOP ( 'NONE', ( #639, #443 ) ) ;
#440 = CARTESIAN_POINT ( 'NONE',  ( 6.361589189380158160, 5.309759961552910745, 0.02362204724409953591 ) ) ;
#441 = DIRECTION ( 'NONE',  ( -2.071311613106657458E-14, -1.000000000000000000, 0.000000000000000000 ) ) ;
#442 = EDGE_CURVE ( 'NONE', #366, #589, #99, .T. ) ;
#443 = ORIENTED_EDGE ( 'NONE', *, *, #365, .F. ) ;
#444 = CARTESIAN_POINT ( 'NONE',  ( 6.156864779931343179, 5.309759961552916074, 0.000000000000000000 ) ) ;
#445 = CIRCLE ( 'NONE', #433, 0.005905511811022425873 ) ;
#446 = DIRECTION ( 'NONE',  ( 0.000000000000000000, -1.000000000000000000, 0.000000000000000000 ) ) ;
#447 = VECTOR ( 'NONE', #77, 39.37007874015748143 ) ;
#448 = CIRCLE ( 'NONE', #267, 0.009842519685043750119 ) ;
#449 = ORIENTED_EDGE ( 'NONE', *, *, #627, .T. ) ;
#450 = CARTESIAN_POINT ( 'NONE',  ( 6.255289976783529049, 5.309759961552915186, 0.000000000000000000 ) ) ;
#451 = CARTESIAN_POINT ( 'NONE',  ( 6.255289976783529937, 5.340074922182656891, 3.712511950149129558E-18 ) ) ;
#452 = EDGE_LOOP ( 'NONE', ( #47, #68, #76, #7 ) ) ;
#453 = ADVANCED_FACE ( 'NONE', ( #362, #260 ), #372, .F. ) ;
#454 = DIRECTION ( 'NONE',  ( -3.700743415415815640E-14, -1.000000000000000000, 0.000000000000000000 ) ) ;
#455 = DIRECTION ( 'NONE',  ( 0.000000000000000000, 1.000000000000000000, 1.224646799147353207E-16 ) ) ;
#456 = ORIENTED_EDGE ( 'NONE', *, *, #608, .F. ) ;
#457 = DIRECTION ( 'NONE',  ( 2.071311613106657458E-14, 1.000000000000000000, 0.000000000000000000 ) ) ;
#458 = CONICAL_SURFACE ( 'NONE', #26, 0.03937007873769885619, 0.7853981631132311847 ) ;
#459 = AXIS2_PLACEMENT_3D ( 'NONE', #115, #660, #432 ) ;
#460 = VECTOR ( 'NONE', #543, 39.37007874015748854 ) ;
#461 = ORIENTED_EDGE ( 'NONE', *, *, #105, .T. ) ;
#462 = CYLINDRICAL_SURFACE ( 'NONE', #489, 0.02952755905512906634 ) ;
#463 = DIRECTION ( 'NONE',  ( 0.000000000000000000, 0.000000000000000000, -1.000000000000000000 ) ) ;
#464 = DIRECTION ( 'NONE',  ( -3.700743415415815640E-14, -1.000000000000000000, 0.000000000000000000 ) ) ;
#465 = LINE ( 'NONE', #128, #71 ) ;
#466 = DIRECTION ( 'NONE',  ( 1.000000000000000000, -2.775557561736261205E-14, 0.000000000000000000 ) ) ;
#467 = CARTESIAN_POINT ( 'NONE',  ( 6.204108874419531183, 5.299917441867870949, 0.000000000000000000 ) ) ;
#468 = ORIENTED_EDGE ( 'NONE', *, *, #614, .T. ) ;
#469 = TOROIDAL_SURFACE ( 'NONE', #470, 0.02362204724410390741, 0.005905511811022425873 ) ;
#470 = AXIS2_PLACEMENT_3D ( 'NONE', #485, #164, #380 ) ;
#471 = VERTEX_POINT ( 'NONE', #579 ) ;
#472 = PLANE ( 'NONE',  #101 ) ;
#473 = SURFACE_SIDE_STYLE ('',( #314 ) ) ;
#474 = DIRECTION ( 'NONE',  ( 0.000000000000000000, 0.000000000000000000, -1.000000000000000000 ) ) ;
#475 = ADVANCED_FACE ( 'NONE', ( #586 ), #490, .T. ) ;
#476 = ADVANCED_FACE ( 'NONE', ( #262 ), #4, .T. ) ;
#477 = CIRCLE ( 'NONE', #170, 0.02952755905512906634 ) ;
#478 = ORIENTED_EDGE ( 'NONE', *, *, #257, .F. ) ;
#479 = DIRECTION ( 'NONE',  ( 0.000000000000000000, -1.000000000000000000, 0.000000000000000000 ) ) ;
#480 = EDGE_CURVE ( 'NONE', #581, #366, #41, .T. ) ;
#481 = ORIENTED_EDGE ( 'NONE', *, *, #614, .F. ) ;
#482 = CARTESIAN_POINT ( 'NONE',  ( 6.255289976781734040, 5.309759961552913410, 0.000000000000000000 ) ) ;
#483 = MANIFOLD_SOLID_BREP ( 'solid', #402 ) ;
#484 = ORIENTED_EDGE ( 'NONE', *, *, #438, .T. ) ;
#485 = CARTESIAN_POINT ( 'NONE',  ( 6.355683677569134993, 5.309759961552910745, -1.808041534174585793E-18 ) ) ;
#486 = CARTESIAN_POINT ( 'NONE',  ( 6.223793913789607224, 5.349130040293076149, 0.000000000000000000 ) ) ;
#487 = VERTEX_POINT ( 'NONE', #387 ) ;
#488 = AXIS2_PLACEMENT_3D ( 'NONE', #658, #175, #12 ) ;
#489 = AXIS2_PLACEMENT_3D ( 'NONE', #28, #668, #618 ) ;
#490 = CONICAL_SURFACE ( 'NONE', #186, 0.009842519683276790277, 0.7853981633974482790 ) ;
#491 = DIRECTION ( 'NONE',  ( 1.000000000000000000, 0.000000000000000000, 0.000000000000000000 ) ) ;
#492 = CARTESIAN_POINT ( 'NONE',  ( 6.156864779931343179, 5.309759961552916074, 0.000000000000000000 ) ) ;
#493 = ORIENTED_EDGE ( 'NONE', *, *, #409, .F. ) ;
#494 = CARTESIAN_POINT ( 'NONE',  ( 6.255289976781289063, 5.279445000923083775, 0.000000000000000000 ) ) ;
#495 = CARTESIAN_POINT ( 'NONE',  ( 6.361589189380159048, 5.292043426119835026, 0.000000000000000000 ) ) ;
#496 = CARTESIAN_POINT ( 'NONE',  ( 6.156864779931343179, 5.309759961552916074, 0.000000000000000000 ) ) ;
#497 = VERTEX_POINT ( 'NONE', #440 ) ;
#498 = CARTESIAN_POINT ( 'NONE',  ( 6.156864779931341403, 5.280232402497786914, 0.000000000000000000 ) ) ;
#499 = AXIS2_PLACEMENT_3D ( 'NONE', #638, #144, #578 ) ;
#500 = CARTESIAN_POINT ( 'NONE',  ( 6.361589189380158160, 5.309759961552911633, 1.518754888706692264E-18 ) ) ;
#501 = AXIS2_PLACEMENT_3D ( 'NONE', #44, #250, #339 ) ;
#502 = STYLED_ITEM ( 'NONE', ( #200 ), #483 ) ;
#503 = EDGE_LOOP ( 'NONE', ( #25, #137, #670, #279, #684 ) ) ;
#504 = CARTESIAN_POINT ( 'NONE',  ( 6.223793913789606336, 5.309759961552915186, 0.000000000000000000 ) ) ;
#505 = DIRECTION ( 'NONE',  ( 1.000000000000000000, -2.071311613106657458E-14, 0.000000000000000000 ) ) ;
#506 = ORIENTED_EDGE ( 'NONE', *, *, #363, .T. ) ;
#507 = DIRECTION ( 'NONE',  ( 1.000000000000000000, -2.071311613106657458E-14, 0.000000000000000000 ) ) ;
#508 = VERTEX_POINT ( 'NONE', #102 ) ;
#509 = DIRECTION ( 'NONE',  ( -1.000000000000000000, 2.071311613106657458E-14, 0.000000000000000000 ) ) ;
#510 = EDGE_CURVE ( 'NONE', #98, #225, #152, .T. ) ;
#511 = CARTESIAN_POINT ( 'NONE',  ( 6.156864779931343179, 5.317633977300946668, 0.000000000000000000 ) ) ;
#512 = AXIS2_PLACEMENT_3D ( 'NONE', #661, #556, #62 ) ;
#513 = AXIS2_PLACEMENT_3D ( 'NONE', #344, #505, #673 ) ;
#514 = ORIENTED_EDGE ( 'NONE', *, *, #248, .F. ) ;
#515 = AXIS2_PLACEMENT_3D ( 'NONE', #231, #177, #172 ) ;
#516 = ORIENTED_EDGE ( 'NONE', *, *, #340, .T. ) ;
#517 = CARTESIAN_POINT ( 'NONE',  ( 6.355683677569132328, 5.309759961552910745, 0.02952755905512769938 ) ) ;
#518 = LINE ( 'NONE', #411, #150 ) ;
#519 = PRODUCT_RELATED_PRODUCT_CATEGORY ( 'part', '', ( #239 ) ) ;
#520 = VERTEX_POINT ( 'NONE', #276 ) ;
#521 = EDGE_CURVE ( 'NONE', #292, #589, #547, .T. ) ;
#522 = CARTESIAN_POINT ( 'NONE',  ( 6.156864779931343179, 5.299917441867872725, 0.000000000000000000 ) ) ;
#523 = EDGE_LOOP ( 'NONE', ( #133, #234 ) ) ;
#524 = DIRECTION ( 'NONE',  ( -2.071311613106657458E-14, -1.000000000000000000, 0.000000000000000000 ) ) ;
#525 = AXIS2_PLACEMENT_3D ( 'NONE', #541, #273, #227 ) ;
#526 = CARTESIAN_POINT ( 'NONE',  ( 6.156864779931343179, 5.309759961552916074, 0.000000000000000000 ) ) ;
#527 = ADVANCED_FACE ( 'NONE', ( #610 ), #59, .T. ) ;
#528 = CIRCLE ( 'NONE', #217, 0.005905511811022425873 ) ;
#529 = CIRCLE ( 'NONE', #153, 0.007874015751238911190 ) ;
#530 = VERTEX_POINT ( 'NONE', #604 ) ;
#531 = DIRECTION ( 'NONE',  ( -1.000000000000000000, 2.071311613106657458E-14, 0.000000000000000000 ) ) ;
#532 = ORIENTED_EDGE ( 'NONE', *, *, #108, .T. ) ;
#533 = DIRECTION ( 'NONE',  ( 0.000000000000000000, -1.000000000000000000, 0.000000000000000000 ) ) ;
#534 = ORIENTED_EDGE ( 'NONE', *, *, #69, .F. ) ;
#535 = AXIS2_PLACEMENT_3D ( 'NONE', #504, #676, #685 ) ;
#536 = AXIS2_PLACEMENT_3D ( 'NONE', #320, #336, #74 ) ;
#537 = DIRECTION ( 'NONE',  ( 1.000000000000000000, -2.071311613106657458E-14, 0.000000000000000000 ) ) ;
#538 = DIRECTION ( 'NONE',  ( -1.000000000000000000, 2.071311613106657458E-14, 0.000000000000000000 ) ) ;
#539 = ORIENTED_EDGE ( 'NONE', *, *, #634, .F. ) ;
#540 = DIRECTION ( 'NONE',  ( 0.000000000000000000, -1.000000000000000000, 0.000000000000000000 ) ) ;
#541 = CARTESIAN_POINT ( 'NONE',  ( 6.355683677569134993, 5.309759961552910745, -1.808041534174585793E-18 ) ) ;
#542 = EDGE_LOOP ( 'NONE', ( #284, #38 ) ) ;
#543 = DIRECTION ( 'NONE',  ( 0.7071067811865474617, 0.000000000000000000, -0.7071067811865474617 ) ) ;
#544 = CARTESIAN_POINT ( 'NONE',  ( 6.204108874418502673, 5.274326890688243452, 4.580371886320521808E-18 ) ) ;
#545 = ORIENTED_EDGE ( 'NONE', *, *, #409, .T. ) ;
#546 = VECTOR ( 'NONE', #253, 39.37007874015748143 ) ;
#547 = CIRCLE ( 'NONE', #245, 0.01771653543307656620 ) ;
#548 = DIRECTION ( 'NONE',  ( 1.000000000000000000, -2.071311613106657458E-14, 0.000000000000000000 ) ) ;
#549 = DIRECTION ( 'NONE',  ( 0.7071067811865474617, 8.659560562354932858E-17, 0.7071067811865474617 ) ) ;
#550 = AXIS2_PLACEMENT_3D ( 'NONE', #343, #629, #454 ) ;
#551 = EDGE_CURVE ( 'NONE', #359, #255, #383, .T. ) ;
#552 = DIRECTION ( 'NONE',  ( -1.000000000000000000, 2.071311613106657458E-14, 0.000000000000000000 ) ) ;
#553 = FACE_OUTER_BOUND ( 'NONE', #58, .T. ) ;
#554 = ORIENTED_EDGE ( 'NONE', *, *, #442, .F. ) ;
#555 = CARTESIAN_POINT ( 'NONE',  ( 6.156864779931341403, 5.280232402497789579, 0.000000000000000000 ) ) ;
#556 = DIRECTION ( 'NONE',  ( 1.000000000000000000, -3.604620209843343652E-14, 0.000000000000000000 ) ) ;
#557 = VERTEX_POINT ( 'NONE', #654 ) ;
#558 = CYLINDRICAL_SURFACE ( 'NONE', #550, 0.02952755905512906634 ) ;
#559 = CONICAL_SURFACE ( 'NONE', #201, 0.03031496062974177105, 0.03997868712533183405 ) ;
#560 = LINE ( 'NONE', #451, #572 ) ;
#561 = AXIS2_PLACEMENT_3D ( 'NONE', #87, #507, #242 ) ;
#562 = ORIENTED_EDGE ( 'NONE', *, *, #10, .T. ) ;
#563 = CARTESIAN_POINT ( 'NONE',  ( 6.208045882293768081, 5.270389882815216254, 4.821444090830216259E-18 ) ) ;
#564 = DIRECTION ( 'NONE',  ( 1.000000000000000000, 0.000000000000000000, 0.000000000000000000 ) ) ;
#565 = VERTEX_POINT ( 'NONE', #595 ) ;
#566 = EDGE_CURVE ( 'NONE', #508, #471, #448, .T. ) ;
#567 =( CONVERSION_BASED_UNIT ( 'INCH', #293 ) LENGTH_UNIT ( ) NAMED_UNIT ( #290 ) );
#568 = DIRECTION ( 'NONE',  ( -3.700743415416089532E-14, -1.000000000000000000, 0.000000000000000000 ) ) ;
#569 = DIRECTION ( 'NONE',  ( 1.000000000000000000, -2.071311613106657458E-14, 0.000000000000000000 ) ) ;
#570 = EDGE_CURVE ( 'NONE', #323, #255, #358, .T. ) ;
#571 = DIRECTION ( 'NONE',  ( 1.000000000000000000, -2.071311613106657458E-14, 0.000000000000000000 ) ) ;
#572 = VECTOR ( 'NONE', #37, 39.37007874015748854 ) ;
#573 = AXIS2_PLACEMENT_3D ( 'NONE', #272, #552, #219 ) ;
#574 = CIRCLE ( 'NONE', #535, 0.02952755905512688059 ) ;
#575 = DIRECTION ( 'NONE',  ( 0.7071067813875390184, 0.7071067809855560160, 0.000000000000000000 ) ) ;
#576 = EDGE_LOOP ( 'NONE', ( #484, #417, #88, #534 ) ) ;
#577 = CARTESIAN_POINT ( 'NONE',  ( 6.158833283868347941, 5.309759961552916074, 0.000000000000000000 ) ) ;
#578 = DIRECTION ( 'NONE',  ( 0.000000000000000000, -1.000000000000000000, 0.000000000000000000 ) ) ;
#579 = CARTESIAN_POINT ( 'NONE',  ( 6.158833283868347941, 5.309759961552916963, -0.009842519688601709602 ) ) ;
#580 = EDGE_CURVE ( 'NONE', #156, #557, #229, .T. ) ;
#581 = VERTEX_POINT ( 'NONE', #428 ) ;
#582 = DIRECTION ( 'NONE',  ( -1.000000000000000000, 2.071311613106657458E-14, 0.000000000000000000 ) ) ;
#583 = AXIS2_PLACEMENT_3D ( 'NONE', #496, #666, #446 ) ;
#584 = ORIENTED_EDGE ( 'NONE', *, *, #369, .F. ) ;
#585 = AXIS2_PLACEMENT_3D ( 'NONE', #450, #180, #354 ) ;
#586 = FACE_OUTER_BOUND ( 'NONE', #168, .T. ) ;
#587 = ORIENTED_EDGE ( 'NONE', *, *, #596, .T. ) ;
#588 = CARTESIAN_POINT ( 'NONE',  ( 6.156864779931343179, 5.309759961552916074, 0.000000000000000000 ) ) ;
#589 = VERTEX_POINT ( 'NONE', #495 ) ;
#590 = ADVANCED_FACE ( 'NONE', ( #23 ), #324, .T. ) ;
#591 = DIRECTION ( 'NONE',  ( 1.000000000000000000, -2.775557561736261205E-14, 0.000000000000000000 ) ) ;
#592 = AXIS2_PLACEMENT_3D ( 'NONE', #147, #569, #309 ) ;
#593 = EDGE_LOOP ( 'NONE', ( #222, #379 ) ) ;
#594 = CIRCLE ( 'NONE', #501, 0.02952755905512906634 ) ;
#595 = CARTESIAN_POINT ( 'NONE',  ( 6.255289976781733152, 5.280232402497786914, 0.000000000000000000 ) ) ;
#596 = EDGE_CURVE ( 'NONE', #386, #530, #637, .T. ) ;
#597 = FACE_OUTER_BOUND ( 'NONE', #503, .T. ) ;
#598 = ORIENTED_EDGE ( 'NONE', *, *, #551, .F. ) ;
#599 = CARTESIAN_POINT ( 'NONE',  ( 6.158833283863023311, 5.309759961552916963, -0.009842519683276790277 ) ) ;
#600 = DIRECTION ( 'NONE',  ( 0.000000000000000000, 1.000000000000000000, 6.429395695523623381E-17 ) ) ;
#601 = ADVANCED_FACE ( 'NONE', ( #393 ), #469, .T. ) ;
#602 = EDGE_CURVE ( 'NONE', #652, #471, #375, .T. ) ;
#603 = ORIENTED_EDGE ( 'NONE', *, *, #640, .F. ) ;
#604 = CARTESIAN_POINT ( 'NONE',  ( 6.223793913789607224, 5.339287520608041682, 3.616083068349692357E-18 ) ) ;
#605 = DIRECTION ( 'NONE',  ( 0.000000000000000000, 0.000000000000000000, -1.000000000000000000 ) ) ;
#606 = EDGE_CURVE ( 'NONE', #487, #652, #529, .T. ) ;
#607 = EDGE_LOOP ( 'NONE', ( #311, #163, #516, #321, #2 ) ) ;
#608 = EDGE_CURVE ( 'NONE', #565, #386, #397, .T. ) ;
#609 = AXIS2_PLACEMENT_3D ( 'NONE', #615, #341, #78 ) ;
#610 = FACE_OUTER_BOUND ( 'NONE', #667, .T. ) ;
#611 = AXIS2_PLACEMENT_3D ( 'NONE', #138, #349, #139 ) ;
#612 = CARTESIAN_POINT ( 'NONE',  ( 6.361589189380158160, 5.309759961552911633, 1.518754888706692264E-18 ) ) ;
#613 = ORIENTED_EDGE ( 'NONE', *, *, #304, .F. ) ;
#614 = EDGE_CURVE ( 'NONE', #289, #680, #647, .T. ) ;
#615 = CARTESIAN_POINT ( 'NONE',  ( 6.223793913789606336, 5.309759961552915186, 0.000000000000000000 ) ) ;
#616 = VERTEX_POINT ( 'NONE', #517 ) ;
#617 = UNCERTAINTY_MEASURE_WITH_UNIT (LENGTH_MEASURE( 1.000000000000000082E-05 ), #567, 'distance_accuracy_value', 'NONE');
#618 = DIRECTION ( 'NONE',  ( -3.700743415415815640E-14, -1.000000000000000000, 0.000000000000000000 ) ) ;
#619 = FACE_OUTER_BOUND ( 'NONE', #439, .T. ) ;
#620 = ORIENTED_EDGE ( 'NONE', *, *, #173, .T. ) ;
#621 = VECTOR ( 'NONE', #575, 39.37007874015748143 ) ;
#622 = AXIS2_PLACEMENT_3D ( 'NONE', #73, #167, #605 ) ;
#623 = CARTESIAN_POINT ( 'NONE',  ( 6.355683677569134105, 5.339287520608040793, 3.616083068349825631E-18 ) ) ;
#624 = CIRCLE ( 'NONE', #513, 0.03937007874016079656 ) ;
#625 = EDGE_LOOP ( 'NONE', ( #51, #206, #481, #613, #327 ) ) ;
#626 = CARTESIAN_POINT ( 'NONE',  ( 6.255289976781734040, 5.309759961552913410, 0.000000000000000000 ) ) ;
#627 = EDGE_CURVE ( 'NONE', #530, #386, #574, .T. ) ;
#628 = CARTESIAN_POINT ( 'NONE',  ( 6.355683677569131440, 5.280232402497782473, 0.000000000000000000 ) ) ;
#629 = DIRECTION ( 'NONE',  ( -1.000000000000000000, 2.071311613106657458E-14, 0.000000000000000000 ) ) ;
#630 = CARTESIAN_POINT ( 'NONE',  ( 6.204108874418503561, 5.309759961552915186, 0.000000000000000000 ) ) ;
#631 = LINE ( 'NONE', #141, #546 ) ;
#632 = EDGE_CURVE ( 'NONE', #359, #415, #594, .T. ) ;
#633 = ORIENTED_EDGE ( 'NONE', *, *, #124, .T. ) ;
#634 = EDGE_CURVE ( 'NONE', #268, #520, #390, .T. ) ;
#635 = FACE_BOUND ( 'NONE', #593, .T. ) ;
#636 = VECTOR ( 'NONE', #261, 39.37007874015748143 ) ;
#637 = CIRCLE ( 'NONE', #377, 0.02952755905512688059 ) ;
#638 = CARTESIAN_POINT ( 'NONE',  ( 6.402927772057328326, 5.309759961552910745, 0.000000000000000000 ) ) ;
#639 = ORIENTED_EDGE ( 'NONE', *, *, #438, .F. ) ;
#640 = EDGE_CURVE ( 'NONE', #19, #359, #671, .T. ) ;
#641 = ADVANCED_FACE ( 'NONE', ( #191 ), #27, .T. ) ;
#642 = DIRECTION ( 'NONE',  ( 3.083952846308964385E-14, 1.000000000000000000, 0.000000000000000000 ) ) ;
#643 = DIRECTION ( 'NONE',  ( 0.000000000000000000, -1.000000000000000000, 0.000000000000000000 ) ) ;
#644 = DIRECTION ( 'NONE',  ( 0.000000000000000000, -1.000000000000000000, 0.000000000000000000 ) ) ;
#645 = VERTEX_POINT ( 'NONE', #40 ) ;
#646 = CARTESIAN_POINT ( 'NONE',  ( 6.402927772057326550, 5.309759961552917851, 0.000000000000000000 ) ) ;
#647 = CIRCLE ( 'NONE', #611, 0.009842519685043750119 ) ;
#648 = ORIENTED_EDGE ( 'NONE', *, *, #401, .T. ) ;
#649 = ORIENTED_EDGE ( 'NONE', *, *, #326, .F. ) ;
#650 = EDGE_CURVE ( 'NONE', #300, #415, #465, .T. ) ;
#651 = CARTESIAN_POINT ( 'NONE',  ( 6.223793913789606336, 5.309759961552915186, 0.000000000000000000 ) ) ;
#652 = VERTEX_POINT ( 'NONE', #235 ) ;
#653 = CIRCLE ( 'NONE', #67, 0.007874015751238911190 ) ;
#654 = CARTESIAN_POINT ( 'NONE',  ( 6.208045882293547812, 5.349130040293076149, 4.821444091131717510E-18 ) ) ;
#655 = FACE_OUTER_BOUND ( 'NONE', #625, .T. ) ;
#656 = ORIENTED_EDGE ( 'NONE', *, *, #602, .T. ) ;
#657 = CARTESIAN_POINT ( 'NONE',  ( 6.255289976783527273, 5.279445000923173481, 0.000000000000000000 ) ) ;
#658 = CARTESIAN_POINT ( 'NONE',  ( 6.355683677569132328, 5.309759961552911633, 0.000000000000000000 ) ) ;
#659 = ORIENTED_EDGE ( 'NONE', *, *, #566, .T. ) ;
#660 = DIRECTION ( 'NONE',  ( -1.000000000000000000, 2.071311613106657458E-14, 0.000000000000000000 ) ) ;
#661 = CARTESIAN_POINT ( 'NONE',  ( 6.255289976781289951, 5.309759961552915186, 0.000000000000000000 ) ) ;
#662 = ORIENTED_EDGE ( 'NONE', *, *, #683, .F. ) ;
#663 = AXIS2_PLACEMENT_3D ( 'NONE', #577, #140, #678 ) ;
#664 = AXIS2_PLACEMENT_3D ( 'NONE', #202, #305, #479 ) ;
#665 = DIRECTION ( 'NONE',  ( -3.700743415416089532E-14, -1.000000000000000000, 0.000000000000000000 ) ) ;
#666 = DIRECTION ( 'NONE',  ( -1.000000000000000000, 2.071311613106657458E-14, 0.000000000000000000 ) ) ;
#667 = EDGE_LOOP ( 'NONE', ( #80, #410, #334, #117 ) ) ;
#668 = DIRECTION ( 'NONE',  ( -1.000000000000000000, 2.071311613106657458E-14, 0.000000000000000000 ) ) ;
#669 = CARTESIAN_POINT ( 'NONE',  ( 6.355683677569134993, 5.309759961552910745, 0.02362204724410390741 ) ) ;
#670 = ORIENTED_EDGE ( 'NONE', *, *, #345, .T. ) ;
#671 = LINE ( 'NONE', #498, #447 ) ;
#672 = ADVANCED_FACE ( 'NONE', ( #246 ), #558, .T. ) ;
#673 = DIRECTION ( 'NONE',  ( -2.775557561562657533E-14, -1.000000000000000000, 0.000000000000000000 ) ) ;
#674 = ORIENTED_EDGE ( 'NONE', *, *, #580, .F. ) ;
#675 = CONICAL_SURFACE ( 'NONE', #388, 0.03937007873769885619, 0.7853981631132311847 ) ;
#676 = DIRECTION ( 'NONE',  ( 1.000000000000000000, -2.071311613106657458E-14, 0.000000000000000000 ) ) ;
#677 = PRESENTATION_LAYER_ASSIGNMENT (  '', '', ( #502 ) ) ;
#678 = DIRECTION ( 'NONE',  ( 0.000000000000000000, -1.000000000000000000, 0.000000000000000000 ) ) ;
#679 = ADVANCED_FACE ( 'NONE', ( #82 ), #462, .T. ) ;
#680 = VERTEX_POINT ( 'NONE', #131 ) ;
#681 = DIRECTION ( 'NONE',  ( -2.775557561562657533E-14, -1.000000000000000000, 0.000000000000000000 ) ) ;
#682 = CARTESIAN_POINT ( 'NONE',  ( 6.208045882293768969, 5.309759961552915186, 0.000000000000000000 ) ) ;
#683 = EDGE_CURVE ( 'NONE', #209, #156, #232, .T. ) ;
#684 = ORIENTED_EDGE ( 'NONE', *, *, #340, .F. ) ;
#685 = DIRECTION ( 'NONE',  ( -3.700743415416089532E-14, -1.000000000000000000, 0.000000000000000000 ) ) ;
#686 = DIRECTION ( 'NONE',  ( 2.775557561736222394E-14, 1.000000000000000000, 0.000000000000000000 ) ) ;
#687 = DIRECTION ( 'NONE',  ( 2.071311613106657458E-14, 1.000000000000000000, 0.000000000000000000 ) ) ;
#688 = EDGE_LOOP ( 'NONE', ( #584, #374 ) ) ;
#689 = DIRECTION ( 'NONE',  ( -1.000000000000000000, 0.000000000000000000, 0.000000000000000000 ) ) ;
#690 = CIRCLE ( 'NONE', #331, 0.02362204724409953591 ) ;
#691 = AXIS2_PLACEMENT_3D ( 'NONE', #444, #214, #665 ) ;
#692 = ORIENTED_EDGE ( 'NONE', *, *, #241, .F. ) ;
#693 = DIRECTION ( 'NONE',  ( 1.000000000000000000, 0.000000000000000000, 0.000000000000000000 ) ) ;
ENDSEC;
END-ISO-10303-21;
