ISO-10303-21;
HEADER;
/* Generated by software containing ST-Developer
 * from STEP Tools, Inc. (www.steptools.com) 
 */

FILE_DESCRIPTION(
/* description */ ('STEP AP214'),
/* implementation_level */ '2;1');

FILE_NAME(
/* name */ 'cpg.step',
/* time_stamp */ '2026-05-06T17:14:43+02:00',
/* author */ (''),
/* organization */ (''),
/* preprocessor_version */ 'ST-DEVELOPER v20.1',
/* originating_system */ 'Autodesk Translation Framework v15.8.0.0',
/* authorisation */ '');

FILE_SCHEMA (('AUTOMOTIVE_DESIGN { 1 0 10303 214 3 1 1 }'));
ENDSEC;

DATA;
#10=MECHANICAL_DESIGN_GEOMETRIC_PRESENTATION_REPRESENTATION('',(#13),#407);
#11=SHAPE_REPRESENTATION_RELATIONSHIP('SRR','None',#417,#12);
#12=ADVANCED_BREP_SHAPE_REPRESENTATION('',(#14),#406);
#13=STYLED_ITEM('',(#427),#14);
#14=MANIFOLD_SOLID_BREP('Body1',#217);
#15=FACE_BOUND('',#57,.T.);
#16=FACE_BOUND('',#59,.T.);
#17=FACE_BOUND('',#61,.T.);
#18=FACE_BOUND('',#63,.T.);
#19=PLANE('',#260);
#20=PLANE('',#261);
#21=PLANE('',#262);
#22=PLANE('',#263);
#23=PLANE('',#264);
#24=SPHERICAL_SURFACE('',#258,0.01771653543307);
#25=TOROIDAL_SURFACE('',#255,0.0236220472441039,0.00590551181102243);
#26=CYLINDRICAL_SURFACE('',#235,0.00984251968504375);
#27=CYLINDRICAL_SURFACE('',#241,0.0393700787401608);
#28=CYLINDRICAL_SURFACE('',#243,0.0177165354330766);
#29=CYLINDRICAL_SURFACE('',#246,0.0295275590551269);
#30=CYLINDRICAL_SURFACE('',#252,0.0295275590551291);
#31=FACE_OUTER_BOUND('',#46,.T.);
#32=FACE_OUTER_BOUND('',#47,.T.);
#33=FACE_OUTER_BOUND('',#48,.T.);
#34=FACE_OUTER_BOUND('',#49,.T.);
#35=FACE_OUTER_BOUND('',#50,.T.);
#36=FACE_OUTER_BOUND('',#51,.T.);
#37=FACE_OUTER_BOUND('',#52,.T.);
#38=FACE_OUTER_BOUND('',#53,.T.);
#39=FACE_OUTER_BOUND('',#54,.T.);
#40=FACE_OUTER_BOUND('',#55,.T.);
#41=FACE_OUTER_BOUND('',#56,.T.);
#42=FACE_OUTER_BOUND('',#58,.T.);
#43=FACE_OUTER_BOUND('',#60,.T.);
#44=FACE_OUTER_BOUND('',#62,.T.);
#45=FACE_OUTER_BOUND('',#64,.T.);
#46=EDGE_LOOP('',(#145,#146,#147,#148,#149));
#47=EDGE_LOOP('',(#150,#151,#152,#153,#154));
#48=EDGE_LOOP('',(#155,#156,#157,#158,#159));
#49=EDGE_LOOP('',(#160,#161,#162,#163,#164));
#50=EDGE_LOOP('',(#165,#166,#167,#168));
#51=EDGE_LOOP('',(#169,#170,#171,#172));
#52=EDGE_LOOP('',(#173,#174,#175,#176));
#53=EDGE_LOOP('',(#177,#178,#179,#180,#181));
#54=EDGE_LOOP('',(#182,#183,#184,#185,#186));
#55=EDGE_LOOP('',(#187,#188,#189));
#56=EDGE_LOOP('',(#190));
#57=EDGE_LOOP('',(#191));
#58=EDGE_LOOP('',(#192));
#59=EDGE_LOOP('',(#193));
#60=EDGE_LOOP('',(#194));
#61=EDGE_LOOP('',(#195));
#62=EDGE_LOOP('',(#196));
#63=EDGE_LOOP('',(#197));
#64=EDGE_LOOP('',(#198));
#65=LINE('',#349,#73);
#66=LINE('',#354,#74);
#67=LINE('',#362,#75);
#68=LINE('',#366,#76);
#69=LINE('',#372,#77);
#70=LINE('',#378,#78);
#71=LINE('',#384,#79);
#72=LINE('',#388,#80);
#73=VECTOR('',#271,0.00984251968327679);
#74=VECTOR('',#278,0.00984251968504375);
#75=VECTOR('',#287,0.0393700787376988);
#76=VECTOR('',#292,0.0393700787401608);
#77=VECTOR('',#299,0.0177165354330766);
#78=VECTOR('',#306,0.0295275590551269);
#79=VECTOR('',#313,0.0303149606297418);
#80=VECTOR('',#318,0.0295275590551291);
#81=CIRCLE('',#232,0.00984251968504375);
#82=CIRCLE('',#233,0.00787401575123891);
#83=CIRCLE('',#234,0.00984251968504375);
#84=CIRCLE('',#236,0.00984251968504375);
#85=CIRCLE('',#238,0.0393700787401608);
#86=CIRCLE('',#239,0.0393700787401608);
#87=CIRCLE('',#240,0.0354330708646714);
#88=CIRCLE('',#242,0.0393700787401608);
#89=CIRCLE('',#244,0.0177165354330766);
#90=CIRCLE('',#245,0.0177165354330766);
#91=CIRCLE('',#247,0.0295275590551269);
#92=CIRCLE('',#248,0.0295275590551269);
#93=CIRCLE('',#250,0.0303149606298314);
#94=CIRCLE('',#251,0.0295275590551291);
#95=CIRCLE('',#253,0.0295275590551291);
#96=CIRCLE('',#254,0.0295275590551291);
#97=CIRCLE('',#256,0.00590551181102243);
#98=CIRCLE('',#257,0.0236220472440995);
#99=CIRCLE('',#259,0.0177165354330701);
#100=VERTEX_POINT('',#345);
#101=VERTEX_POINT('',#346);
#102=VERTEX_POINT('',#348);
#103=VERTEX_POINT('',#353);
#104=VERTEX_POINT('',#357);
#105=VERTEX_POINT('',#358);
#106=VERTEX_POINT('',#361);
#107=VERTEX_POINT('',#365);
#108=VERTEX_POINT('',#369);
#109=VERTEX_POINT('',#371);
#110=VERTEX_POINT('',#375);
#111=VERTEX_POINT('',#377);
#112=VERTEX_POINT('',#381);
#113=VERTEX_POINT('',#383);
#114=VERTEX_POINT('',#387);
#115=VERTEX_POINT('',#389);
#116=VERTEX_POINT('',#393);
#117=VERTEX_POINT('',#397);
#118=EDGE_CURVE('',#100,#101,#81,.T.);
#119=EDGE_CURVE('',#100,#102,#65,.T.);
#120=EDGE_CURVE('',#102,#102,#82,.T.);
#121=EDGE_CURVE('',#101,#100,#83,.T.);
#122=EDGE_CURVE('',#101,#103,#66,.T.);
#123=EDGE_CURVE('',#103,#103,#84,.T.);
#124=EDGE_CURVE('',#104,#105,#85,.T.);
#125=EDGE_CURVE('',#105,#104,#86,.T.);
#126=EDGE_CURVE('',#105,#106,#67,.T.);
#127=EDGE_CURVE('',#106,#106,#87,.T.);
#128=EDGE_CURVE('',#104,#107,#68,.T.);
#129=EDGE_CURVE('',#107,#107,#88,.T.);
#130=EDGE_CURVE('',#108,#108,#89,.T.);
#131=EDGE_CURVE('',#108,#109,#69,.T.);
#132=EDGE_CURVE('',#109,#109,#90,.T.);
#133=EDGE_CURVE('',#110,#110,#91,.T.);
#134=EDGE_CURVE('',#110,#111,#70,.T.);
#135=EDGE_CURVE('',#111,#111,#92,.T.);
#136=EDGE_CURVE('',#112,#112,#93,.T.);
#137=EDGE_CURVE('',#112,#113,#71,.T.);
#138=EDGE_CURVE('',#113,#113,#94,.T.);
#139=EDGE_CURVE('',#113,#114,#72,.T.);
#140=EDGE_CURVE('',#114,#115,#95,.T.);
#141=EDGE_CURVE('',#115,#114,#96,.T.);
#142=EDGE_CURVE('',#115,#116,#97,.T.);
#143=EDGE_CURVE('',#116,#116,#98,.T.);
#144=EDGE_CURVE('',#117,#109,#99,.T.);
#145=ORIENTED_EDGE('',*,*,#118,.F.);
#146=ORIENTED_EDGE('',*,*,#119,.T.);
#147=ORIENTED_EDGE('',*,*,#120,.T.);
#148=ORIENTED_EDGE('',*,*,#119,.F.);
#149=ORIENTED_EDGE('',*,*,#121,.F.);
#150=ORIENTED_EDGE('',*,*,#118,.T.);
#151=ORIENTED_EDGE('',*,*,#122,.T.);
#152=ORIENTED_EDGE('',*,*,#123,.T.);
#153=ORIENTED_EDGE('',*,*,#122,.F.);
#154=ORIENTED_EDGE('',*,*,#121,.T.);
#155=ORIENTED_EDGE('',*,*,#124,.F.);
#156=ORIENTED_EDGE('',*,*,#125,.F.);
#157=ORIENTED_EDGE('',*,*,#126,.T.);
#158=ORIENTED_EDGE('',*,*,#127,.T.);
#159=ORIENTED_EDGE('',*,*,#126,.F.);
#160=ORIENTED_EDGE('',*,*,#124,.T.);
#161=ORIENTED_EDGE('',*,*,#125,.T.);
#162=ORIENTED_EDGE('',*,*,#128,.T.);
#163=ORIENTED_EDGE('',*,*,#129,.T.);
#164=ORIENTED_EDGE('',*,*,#128,.F.);
#165=ORIENTED_EDGE('',*,*,#130,.T.);
#166=ORIENTED_EDGE('',*,*,#131,.T.);
#167=ORIENTED_EDGE('',*,*,#132,.T.);
#168=ORIENTED_EDGE('',*,*,#131,.F.);
#169=ORIENTED_EDGE('',*,*,#133,.T.);
#170=ORIENTED_EDGE('',*,*,#134,.T.);
#171=ORIENTED_EDGE('',*,*,#135,.T.);
#172=ORIENTED_EDGE('',*,*,#134,.F.);
#173=ORIENTED_EDGE('',*,*,#136,.T.);
#174=ORIENTED_EDGE('',*,*,#137,.T.);
#175=ORIENTED_EDGE('',*,*,#138,.F.);
#176=ORIENTED_EDGE('',*,*,#137,.F.);
#177=ORIENTED_EDGE('',*,*,#138,.T.);
#178=ORIENTED_EDGE('',*,*,#139,.T.);
#179=ORIENTED_EDGE('',*,*,#140,.T.);
#180=ORIENTED_EDGE('',*,*,#141,.T.);
#181=ORIENTED_EDGE('',*,*,#139,.F.);
#182=ORIENTED_EDGE('',*,*,#141,.F.);
#183=ORIENTED_EDGE('',*,*,#142,.T.);
#184=ORIENTED_EDGE('',*,*,#143,.T.);
#185=ORIENTED_EDGE('',*,*,#142,.F.);
#186=ORIENTED_EDGE('',*,*,#140,.F.);
#187=ORIENTED_EDGE('',*,*,#132,.F.);
#188=ORIENTED_EDGE('',*,*,#144,.F.);
#189=ORIENTED_EDGE('',*,*,#144,.T.);
#190=ORIENTED_EDGE('',*,*,#136,.F.);
#191=ORIENTED_EDGE('',*,*,#135,.F.);
#192=ORIENTED_EDGE('',*,*,#143,.F.);
#193=ORIENTED_EDGE('',*,*,#130,.F.);
#194=ORIENTED_EDGE('',*,*,#129,.F.);
#195=ORIENTED_EDGE('',*,*,#133,.F.);
#196=ORIENTED_EDGE('',*,*,#127,.F.);
#197=ORIENTED_EDGE('',*,*,#123,.F.);
#198=ORIENTED_EDGE('',*,*,#120,.F.);
#199=CONICAL_SURFACE('',#231,0.00984251968327679,0.785398163397448);
#200=CONICAL_SURFACE('',#237,0.0393700787376989,0.785398163113231);
#201=CONICAL_SURFACE('',#249,0.0303149606297418,0.0399786871253318);
#202=ADVANCED_FACE('',(#31),#199,.T.);
#203=ADVANCED_FACE('',(#32),#26,.T.);
#204=ADVANCED_FACE('',(#33),#200,.T.);
#205=ADVANCED_FACE('',(#34),#27,.T.);
#206=ADVANCED_FACE('',(#35),#28,.T.);
#207=ADVANCED_FACE('',(#36),#29,.T.);
#208=ADVANCED_FACE('',(#37),#201,.T.);
#209=ADVANCED_FACE('',(#38),#30,.T.);
#210=ADVANCED_FACE('',(#39),#25,.T.);
#211=ADVANCED_FACE('',(#40),#24,.T.);
#212=ADVANCED_FACE('',(#41,#15),#19,.F.);
#213=ADVANCED_FACE('',(#42,#16),#20,.F.);
#214=ADVANCED_FACE('',(#43,#17),#21,.F.);
#215=ADVANCED_FACE('',(#44,#18),#22,.F.);
#216=ADVANCED_FACE('',(#45),#23,.F.);
#217=CLOSED_SHELL('',(#202,#203,#204,#205,#206,#207,#208,#209,#210,#211,
#212,#213,#214,#215,#216));
#218=DERIVED_UNIT_ELEMENT(#220,1.);
#219=DERIVED_UNIT_ELEMENT(#411,-3.);
#220=(
MASS_UNIT()
NAMED_UNIT(*)
SI_UNIT(.KILO.,.GRAM.)
);
#221=DERIVED_UNIT((#218,#219));
#222=MEASURE_REPRESENTATION_ITEM('density measure',
POSITIVE_RATIO_MEASURE(7850.),#221);
#223=PROPERTY_DEFINITION_REPRESENTATION(#228,#225);
#224=PROPERTY_DEFINITION_REPRESENTATION(#229,#226);
#225=REPRESENTATION('material name',(#227),#406);
#226=REPRESENTATION('density',(#222),#406);
#227=DESCRIPTIVE_REPRESENTATION_ITEM('Steel','Steel');
#228=PROPERTY_DEFINITION('material property','material name',#419);
#229=PROPERTY_DEFINITION('material property','density of part',#419);
#230=AXIS2_PLACEMENT_3D('',#343,#265,#266);
#231=AXIS2_PLACEMENT_3D('',#344,#267,#268);
#232=AXIS2_PLACEMENT_3D('',#347,#269,#270);
#233=AXIS2_PLACEMENT_3D('',#350,#272,#273);
#234=AXIS2_PLACEMENT_3D('',#351,#274,#275);
#235=AXIS2_PLACEMENT_3D('',#352,#276,#277);
#236=AXIS2_PLACEMENT_3D('',#355,#279,#280);
#237=AXIS2_PLACEMENT_3D('',#356,#281,#282);
#238=AXIS2_PLACEMENT_3D('',#359,#283,#284);
#239=AXIS2_PLACEMENT_3D('',#360,#285,#286);
#240=AXIS2_PLACEMENT_3D('',#363,#288,#289);
#241=AXIS2_PLACEMENT_3D('',#364,#290,#291);
#242=AXIS2_PLACEMENT_3D('',#367,#293,#294);
#243=AXIS2_PLACEMENT_3D('',#368,#295,#296);
#244=AXIS2_PLACEMENT_3D('',#370,#297,#298);
#245=AXIS2_PLACEMENT_3D('',#373,#300,#301);
#246=AXIS2_PLACEMENT_3D('',#374,#302,#303);
#247=AXIS2_PLACEMENT_3D('',#376,#304,#305);
#248=AXIS2_PLACEMENT_3D('',#379,#307,#308);
#249=AXIS2_PLACEMENT_3D('',#380,#309,#310);
#250=AXIS2_PLACEMENT_3D('',#382,#311,#312);
#251=AXIS2_PLACEMENT_3D('',#385,#314,#315);
#252=AXIS2_PLACEMENT_3D('',#386,#316,#317);
#253=AXIS2_PLACEMENT_3D('',#390,#319,#320);
#254=AXIS2_PLACEMENT_3D('',#391,#321,#322);
#255=AXIS2_PLACEMENT_3D('',#392,#323,#324);
#256=AXIS2_PLACEMENT_3D('',#394,#325,#326);
#257=AXIS2_PLACEMENT_3D('',#395,#327,#328);
#258=AXIS2_PLACEMENT_3D('',#396,#329,#330);
#259=AXIS2_PLACEMENT_3D('',#398,#331,#332);
#260=AXIS2_PLACEMENT_3D('',#399,#333,#334);
#261=AXIS2_PLACEMENT_3D('',#400,#335,#336);
#262=AXIS2_PLACEMENT_3D('',#401,#337,#338);
#263=AXIS2_PLACEMENT_3D('',#402,#339,#340);
#264=AXIS2_PLACEMENT_3D('',#403,#341,#342);
#265=DIRECTION('axis',(0.,0.,1.));
#266=DIRECTION('refdir',(1.,0.,0.));
#267=DIRECTION('center_axis',(1.,0.,0.));
#268=DIRECTION('ref_axis',(0.,0.,-1.));
#269=DIRECTION('center_axis',(1.,-2.07131161310666E-14,0.));
#270=DIRECTION('ref_axis',(-2.07131161310666E-14,-1.,0.));
#271=DIRECTION('',(-0.707106781186547,8.65956056235493E-17,-0.707106781186547));
#272=DIRECTION('center_axis',(1.,0.,0.));
#273=DIRECTION('ref_axis',(0.,0.,-1.));
#274=DIRECTION('center_axis',(1.,-2.07131161310666E-14,0.));
#275=DIRECTION('ref_axis',(-2.07131161310666E-14,-1.,0.));
#276=DIRECTION('center_axis',(-1.,2.07131161310666E-14,0.));
#277=DIRECTION('ref_axis',(-2.07131161310666E-14,-1.,0.));
#278=DIRECTION('',(1.,-2.07131161310666E-14,0.));
#279=DIRECTION('center_axis',(-1.,2.07131161310666E-14,0.));
#280=DIRECTION('ref_axis',(-2.07131161310666E-14,-1.,0.));
#281=DIRECTION('center_axis',(1.,-2.77555756173626E-14,0.));
#282=DIRECTION('ref_axis',(2.77555756173626E-14,1.,0.));
#283=DIRECTION('center_axis',(1.,-2.07131161310666E-14,0.));
#284=DIRECTION('ref_axis',(-2.07131161310666E-14,-1.,0.));
#285=DIRECTION('center_axis',(1.,-2.07131161310666E-14,0.));
#286=DIRECTION('ref_axis',(-2.07131161310666E-14,-1.,0.));
#287=DIRECTION('',(-0.7071067813875,0.707106780985595,8.65956055989374E-17));
#288=DIRECTION('center_axis',(1.,-2.77555756173626E-14,0.));
#289=DIRECTION('ref_axis',(2.77555756173626E-14,1.,0.));
#290=DIRECTION('center_axis',(-1.,2.07131161310666E-14,0.));
#291=DIRECTION('ref_axis',(-2.07131161310666E-14,-1.,0.));
#292=DIRECTION('',(1.,-2.07131161310666E-14,0.));
#293=DIRECTION('center_axis',(-1.,2.07131161310666E-14,0.));
#294=DIRECTION('ref_axis',(-2.07131161310666E-14,-1.,0.));
#295=DIRECTION('center_axis',(-1.,2.07131161310666E-14,0.));
#296=DIRECTION('ref_axis',(-2.07131161310666E-14,-1.,0.));
#297=DIRECTION('center_axis',(1.,-2.07131161310666E-14,0.));
#298=DIRECTION('ref_axis',(-2.07131161310666E-14,-1.,0.));
#299=DIRECTION('',(1.,-2.07131161310666E-14,0.));
#300=DIRECTION('center_axis',(-1.,2.07131161310666E-14,0.));
#301=DIRECTION('ref_axis',(-2.07131161310666E-14,-1.,0.));
#302=DIRECTION('center_axis',(-1.,2.07131161310666E-14,0.));
#303=DIRECTION('ref_axis',(-2.07131161310666E-14,-1.,0.));
#304=DIRECTION('center_axis',(1.,-2.07131161310666E-14,0.));
#305=DIRECTION('ref_axis',(-2.07131161310666E-14,-1.,0.));
#306=DIRECTION('',(1.,-2.07131161310666E-14,0.));
#307=DIRECTION('center_axis',(-1.,2.07131161310666E-14,0.));
#308=DIRECTION('ref_axis',(-2.07131161310666E-14,-1.,0.));
#309=DIRECTION('center_axis',(-1.,3.60462020984334E-14,0.));
#310=DIRECTION('ref_axis',(-3.60462020984334E-14,-1.,0.));
#311=DIRECTION('center_axis',(1.,-3.60462020984334E-14,0.));
#312=DIRECTION('ref_axis',(-3.60462020984334E-14,-1.,0.));
#313=DIRECTION('',(0.999200958721706,-0.0399680383509478,4.89467302346427E-18));
#314=DIRECTION('center_axis',(1.,-2.07131161310666E-14,0.));
#315=DIRECTION('ref_axis',(-2.07131161310666E-14,-1.,0.));
#316=DIRECTION('center_axis',(-1.,2.07131161310666E-14,0.));
#317=DIRECTION('ref_axis',(-2.07131161310666E-14,-1.,0.));
#318=DIRECTION('',(1.,-2.07131161310666E-14,0.));
#319=DIRECTION('center_axis',(-1.,2.07131161310666E-14,0.));
#320=DIRECTION('ref_axis',(-2.07131161310666E-14,-1.,0.));
#321=DIRECTION('center_axis',(-1.,2.07131161310666E-14,0.));
#322=DIRECTION('ref_axis',(-2.07131161310666E-14,-1.,0.));
#323=DIRECTION('center_axis',(-1.,0.,0.));
#324=DIRECTION('ref_axis',(0.,0.,1.));
#325=DIRECTION('center_axis',(0.,-1.,0.));
#326=DIRECTION('ref_axis',(0.,0.,-1.));
#327=DIRECTION('center_axis',(-1.,0.,2.31296463463525E-14));
#328=DIRECTION('ref_axis',(1.48709648658222E-30,1.,6.42939569552362E-17));
#329=DIRECTION('center_axis',(1.,0.,0.));
#330=DIRECTION('ref_axis',(0.,-1.,0.));
#331=DIRECTION('center_axis',(0.,-1.22464679914734E-16,1.));
#332=DIRECTION('ref_axis',(0.,1.,1.22464679914734E-16));
#333=DIRECTION('center_axis',(1.,-2.07131161310666E-14,0.));
#334=DIRECTION('ref_axis',(2.07131161310666E-14,1.,0.));
#335=DIRECTION('center_axis',(-1.,2.07131161310666E-14,0.));
#336=DIRECTION('ref_axis',(-2.07131161310666E-14,-1.,0.));
#337=DIRECTION('center_axis',(-1.,2.07131161310666E-14,0.));
#338=DIRECTION('ref_axis',(-2.07131161310666E-14,-1.,0.));
#339=DIRECTION('center_axis',(1.,-2.07131161310666E-14,0.));
#340=DIRECTION('ref_axis',(2.07131161310666E-14,1.,0.));
#341=DIRECTION('center_axis',(1.,-2.07131161310666E-14,0.));
#342=DIRECTION('ref_axis',(2.07131161310666E-14,1.,0.));
#343=CARTESIAN_POINT('',(0.,0.,0.));
#344=CARTESIAN_POINT('Origin',(6.15883328386302,5.30975996155292,0.));
#345=CARTESIAN_POINT('',(6.15883328386657,5.30975996155292,0.00984251968682356));
#346=CARTESIAN_POINT('',(6.15883328386835,5.31960248123796,-1.20536102278336E-18));
#347=CARTESIAN_POINT('Origin',(6.15883328386835,5.30975996155292,0.));
#348=CARTESIAN_POINT('',(6.15686477993099,5.30975996155292,0.00787401575123891));
#349=CARTESIAN_POINT('',(6.15883328386302,5.30975996155292,0.00984251968327679));
#350=CARTESIAN_POINT('Origin',(6.15686477993099,5.30975996155292,0.));
#351=CARTESIAN_POINT('Origin',(6.15883328386835,5.30975996155292,0.));
#352=CARTESIAN_POINT('Origin',(6.15686477993134,5.30975996155292,0.));
#353=CARTESIAN_POINT('',(6.20410887441953,5.31960248123796,-1.20536102278336E-18));
#354=CARTESIAN_POINT('',(6.15686477993134,5.31960248123796,-1.20536102278336E-18));
#355=CARTESIAN_POINT('Origin',(6.20410887441953,5.30975996155292,0.));
#356=CARTESIAN_POINT('Origin',(6.20804588229377,5.30975996155292,0.));
#357=CARTESIAN_POINT('',(6.20804588229355,5.34913004029308,4.82144409113172E-18));
#358=CARTESIAN_POINT('',(6.20804588229489,5.2703898828141,-4.82144409096738E-18));
#359=CARTESIAN_POINT('Origin',(6.20804588229355,5.30975996155292,0.));
#360=CARTESIAN_POINT('Origin',(6.20804588229355,5.30975996155292,0.));
#361=CARTESIAN_POINT('',(6.2041088744185,5.27432689068824,-4.33929968183807E-18));
#362=CARTESIAN_POINT('',(6.20804588229377,5.27038988281522,-4.82144409083022E-18));
#363=CARTESIAN_POINT('Origin',(6.2041088744185,5.30975996155292,0.));
#364=CARTESIAN_POINT('Origin',(6.15686477993134,5.30975996155292,0.));
#365=CARTESIAN_POINT('',(6.22379391378961,5.34913004029308,-4.82144409113172E-18));
#366=CARTESIAN_POINT('',(6.15686477993134,5.34913004029308,-4.82144409113172E-18));
#367=CARTESIAN_POINT('Origin',(6.22379391378961,5.30975996155292,0.));
#368=CARTESIAN_POINT('Origin',(6.15686477993134,5.30975996155292,0.));
#369=CARTESIAN_POINT('',(6.36158918938016,5.32747649698599,-2.16964984100979E-18));
#370=CARTESIAN_POINT('Origin',(6.36158918938016,5.30975996155291,0.));
#371=CARTESIAN_POINT('',(6.40292777205733,5.32747649698599,-2.16964984100979E-18));
#372=CARTESIAN_POINT('',(6.15686477993134,5.32747649698599,-2.16964984100979E-18));
#373=CARTESIAN_POINT('Origin',(6.40292777205733,5.30975996155291,0.));
#374=CARTESIAN_POINT('Origin',(6.15686477993134,5.30975996155292,0.));
#375=CARTESIAN_POINT('',(6.22379391378961,5.33928752060804,-3.61608306834956E-18));
#376=CARTESIAN_POINT('Origin',(6.22379391378961,5.30975996155292,0.));
#377=CARTESIAN_POINT('',(6.25528997678173,5.33928752060804,-3.61608306834956E-18));
#378=CARTESIAN_POINT('',(6.15686477993134,5.33928752060804,-3.61608306834956E-18));
#379=CARTESIAN_POINT('Origin',(6.25528997678173,5.30975996155291,0.));
#380=CARTESIAN_POINT('Origin',(6.25528997678353,5.30975996155292,0.));
#381=CARTESIAN_POINT('',(6.25528997678129,5.34007492218275,-3.7125119501601E-18));
#382=CARTESIAN_POINT('Origin',(6.25528997678129,5.30975996155292,0.));
#383=CARTESIAN_POINT('',(6.27497501615181,5.33928752060788,-3.6160830683304E-18));
#384=CARTESIAN_POINT('',(6.25528997678353,5.34007492218266,-3.71251195014913E-18));
#385=CARTESIAN_POINT('Origin',(6.27497501615181,5.30975996155291,0.));
#386=CARTESIAN_POINT('Origin',(6.15686477993134,5.30975996155292,0.));
#387=CARTESIAN_POINT('',(6.35568367756913,5.33928752060804,-3.61608306834983E-18));
#388=CARTESIAN_POINT('',(6.15686477993134,5.33928752060804,-3.61608306834983E-18));
#389=CARTESIAN_POINT('',(6.35568367756913,5.30975996155291,-0.0295275590551291));
#390=CARTESIAN_POINT('Origin',(6.35568367756913,5.30975996155291,0.));
#391=CARTESIAN_POINT('Origin',(6.35568367756913,5.30975996155291,0.));
#392=CARTESIAN_POINT('Origin',(6.35568367756913,5.30975996155291,-1.80804153417459E-18));
#393=CARTESIAN_POINT('',(6.36158918938016,5.30975996155291,-0.0236220472440995));
#394=CARTESIAN_POINT('Origin',(6.35568367756913,5.30975996155291,-0.0236220472441039));
#395=CARTESIAN_POINT('Origin',(6.36158918938016,5.30975996155291,1.51875488870669E-18));
#396=CARTESIAN_POINT('Origin',(6.40292777205733,5.30975996155292,0.));
#397=CARTESIAN_POINT('',(6.4206443074904,5.30975996155292,1.32852736653111E-34));
#398=CARTESIAN_POINT('Origin',(6.40292777205733,5.30975996155292,0.));
#399=CARTESIAN_POINT('Origin',(6.25528997678173,5.34007492218284,0.));
#400=CARTESIAN_POINT('Origin',(6.36158918938016,5.33338200879701,0.));
#401=CARTESIAN_POINT('Origin',(6.22379391378961,5.34913004029308,0.));
#402=CARTESIAN_POINT('Origin',(6.20410887441953,5.34519303241906,0.));
#403=CARTESIAN_POINT('Origin',(6.15686477993134,5.31763397730095,0.));
#404=UNCERTAINTY_MEASURE_WITH_UNIT(LENGTH_MEASURE(0.000393700787401575),
#409,'DISTANCE_ACCURACY_VALUE',
'Maximum model space distance between geometric entities at asserted c
onnectivities');
#405=UNCERTAINTY_MEASURE_WITH_UNIT(LENGTH_MEASURE(0.000393700787401575),
#409,'DISTANCE_ACCURACY_VALUE',
'Maximum model space distance between geometric entities at asserted c
onnectivities');
#406=(
GEOMETRIC_REPRESENTATION_CONTEXT(3)
GLOBAL_UNCERTAINTY_ASSIGNED_CONTEXT((#404))
GLOBAL_UNIT_ASSIGNED_CONTEXT((#409,#413,#414))
REPRESENTATION_CONTEXT('','3D')
);
#407=(
GEOMETRIC_REPRESENTATION_CONTEXT(3)
GLOBAL_UNCERTAINTY_ASSIGNED_CONTEXT((#405))
GLOBAL_UNIT_ASSIGNED_CONTEXT((#409,#413,#414))
REPRESENTATION_CONTEXT('','3D')
);
#408=DIMENSIONAL_EXPONENTS(1.,0.,0.,0.,0.,0.,0.);
#409=(
CONVERSION_BASED_UNIT('inch',#412)
LENGTH_UNIT()
NAMED_UNIT(#408)
);
#410=(
LENGTH_UNIT()
NAMED_UNIT(*)
SI_UNIT(.MILLI.,.METRE.)
);
#411=(
LENGTH_UNIT()
NAMED_UNIT(*)
SI_UNIT($,.METRE.)
);
#412=LENGTH_MEASURE_WITH_UNIT(LENGTH_MEASURE(25.4),#410);
#413=(
NAMED_UNIT(*)
PLANE_ANGLE_UNIT()
SI_UNIT($,.RADIAN.)
);
#414=(
NAMED_UNIT(*)
SI_UNIT($,.STERADIAN.)
SOLID_ANGLE_UNIT()
);
#415=SHAPE_DEFINITION_REPRESENTATION(#416,#417);
#416=PRODUCT_DEFINITION_SHAPE('',$,#419);
#417=SHAPE_REPRESENTATION('',(#230),#406);
#418=PRODUCT_DEFINITION_CONTEXT('part definition',#423,'design');
#419=PRODUCT_DEFINITION('Same_Sky_CPG-47-TH-B','CPG-47-TH-B v1',#420,#418);
#420=PRODUCT_DEFINITION_FORMATION('',$,#425);
#421=PRODUCT_RELATED_PRODUCT_CATEGORY('CPG-47-TH-B v1','CPG-47-TH-B v1',
(#425));
#422=APPLICATION_PROTOCOL_DEFINITION('international standard',
'automotive_design',2009,#423);
#423=APPLICATION_CONTEXT(
'Core Data for Automotive Mechanical Design Process');
#424=PRODUCT_CONTEXT('part definition',#423,'mechanical');
#425=PRODUCT('Same_Sky_CPG-47-TH-B','CPG-47-TH-B v1','STEP AP214',(#424));
#426=PRESENTATION_STYLE_ASSIGNMENT((#428));
#427=PRESENTATION_STYLE_ASSIGNMENT((#429));
#428=SURFACE_STYLE_USAGE(.BOTH.,#430);
#429=SURFACE_STYLE_USAGE(.BOTH.,#431);
#430=SURFACE_SIDE_STYLE('',(#432));
#431=SURFACE_SIDE_STYLE('',(#433));
#432=SURFACE_STYLE_FILL_AREA(#434);
#433=SURFACE_STYLE_FILL_AREA(#435);
#434=FILL_AREA_STYLE('Steel - Satin',(#436));
#435=FILL_AREA_STYLE('Opaque(202,209,238)',(#437));
#436=FILL_AREA_STYLE_COLOUR('Steel - Satin',#438);
#437=FILL_AREA_STYLE_COLOUR('Opaque(202,209,238)',#439);
#438=COLOUR_RGB('Steel - Satin',0.627450980392157,0.627450980392157,0.627450980392157);
#439=COLOUR_RGB('Opaque(202,209,238)',0.792156862745098,0.819607843137255,
0.933333333333333);
ENDSEC;
END-ISO-10303-21;
