ISO-10303-21;
HEADER;
/* Generated by software containing ST-Developer
 * from STEP Tools, Inc. (www.steptools.com) 
 */

FILE_DESCRIPTION(
/* description */ (''),
/* implementation_level */ '2;1');

FILE_NAME(
/* name */ 'inductor_ 22u.step',
/* time_stamp */ '2026-04-22T23:16:00+02:00',
/* author */ (''),
/* organization */ (''),
/* preprocessor_version */ 'ST-DEVELOPER v20.1',
/* originating_system */ 'Autodesk Translation Framework v15.8.0.0',
/* authorisation */ '');

FILE_SCHEMA (('AUTOMOTIVE_DESIGN { 1 0 10303 214 3 1 1 }'));
ENDSEC;

DATA;
#10=MECHANICAL_DESIGN_GEOMETRIC_PRESENTATION_REPRESENTATION('',(#13,#14,
#15),#617);
#11=SHAPE_REPRESENTATION_RELATIONSHIP('SRR','None',#624,#12);
#12=ADVANCED_BREP_SHAPE_REPRESENTATION('',(#16,#17,#18),#616);
#13=STYLED_ITEM('',(#634),#16);
#14=STYLED_ITEM('',(#635),#17);
#15=STYLED_ITEM('',(#635),#18);
#16=MANIFOLD_SOLID_BREP('Body1',#379);
#17=MANIFOLD_SOLID_BREP('Body2',#380);
#18=MANIFOLD_SOLID_BREP('Body3',#381);
#19=FACE_OUTER_BOUND('',#41,.T.);
#20=FACE_OUTER_BOUND('',#42,.T.);
#21=FACE_OUTER_BOUND('',#43,.T.);
#22=FACE_OUTER_BOUND('',#44,.T.);
#23=FACE_OUTER_BOUND('',#45,.T.);
#24=FACE_OUTER_BOUND('',#46,.T.);
#25=FACE_OUTER_BOUND('',#47,.T.);
#26=FACE_OUTER_BOUND('',#48,.T.);
#27=FACE_OUTER_BOUND('',#49,.T.);
#28=FACE_OUTER_BOUND('',#50,.T.);
#29=FACE_OUTER_BOUND('',#51,.T.);
#30=FACE_OUTER_BOUND('',#52,.T.);
#31=FACE_OUTER_BOUND('',#53,.T.);
#32=FACE_OUTER_BOUND('',#54,.T.);
#33=FACE_OUTER_BOUND('',#55,.T.);
#34=FACE_OUTER_BOUND('',#56,.T.);
#35=FACE_OUTER_BOUND('',#57,.T.);
#36=FACE_OUTER_BOUND('',#58,.T.);
#37=FACE_OUTER_BOUND('',#59,.T.);
#38=FACE_OUTER_BOUND('',#60,.T.);
#39=FACE_OUTER_BOUND('',#61,.T.);
#40=FACE_OUTER_BOUND('',#62,.T.);
#41=EDGE_LOOP('',(#239,#240,#241,#242));
#42=EDGE_LOOP('',(#243,#244,#245,#246));
#43=EDGE_LOOP('',(#247,#248,#249,#250));
#44=EDGE_LOOP('',(#251,#252,#253,#254));
#45=EDGE_LOOP('',(#255,#256,#257,#258));
#46=EDGE_LOOP('',(#259,#260,#261,#262));
#47=EDGE_LOOP('',(#263,#264,#265,#266));
#48=EDGE_LOOP('',(#267,#268,#269,#270));
#49=EDGE_LOOP('',(#271,#272,#273,#274));
#50=EDGE_LOOP('',(#275,#276,#277,#278,#279,#280));
#51=EDGE_LOOP('',(#281,#282,#283,#284));
#52=EDGE_LOOP('',(#285,#286,#287,#288,#289,#290));
#53=EDGE_LOOP('',(#291,#292,#293,#294));
#54=EDGE_LOOP('',(#295,#296,#297,#298));
#55=EDGE_LOOP('',(#299,#300,#301,#302));
#56=EDGE_LOOP('',(#303,#304,#305,#306));
#57=EDGE_LOOP('',(#307,#308,#309,#310));
#58=EDGE_LOOP('',(#311,#312,#313,#314));
#59=EDGE_LOOP('',(#315,#316,#317,#318,#319,#320));
#60=EDGE_LOOP('',(#321,#322,#323,#324,#325,#326));
#61=EDGE_LOOP('',(#327,#328,#329,#330));
#62=EDGE_LOOP('',(#331,#332,#333,#334));
#63=LINE('',#515,#111);
#64=LINE('',#517,#112);
#65=LINE('',#519,#113);
#66=LINE('',#520,#114);
#67=LINE('',#523,#115);
#68=LINE('',#525,#116);
#69=LINE('',#526,#117);
#70=LINE('',#529,#118);
#71=LINE('',#531,#119);
#72=LINE('',#532,#120);
#73=LINE('',#534,#121);
#74=LINE('',#535,#122);
#75=LINE('',#541,#123);
#76=LINE('',#543,#124);
#77=LINE('',#545,#125);
#78=LINE('',#546,#126);
#79=LINE('',#550,#127);
#80=LINE('',#552,#128);
#81=LINE('',#554,#129);
#82=LINE('',#555,#130);
#83=LINE('',#557,#131);
#84=LINE('',#558,#132);
#85=LINE('',#561,#133);
#86=LINE('',#563,#134);
#87=LINE('',#564,#135);
#88=LINE('',#567,#136);
#89=LINE('',#569,#137);
#90=LINE('',#570,#138);
#91=LINE('',#572,#139);
#92=LINE('',#573,#140);
#93=LINE('',#579,#141);
#94=LINE('',#581,#142);
#95=LINE('',#583,#143);
#96=LINE('',#584,#144);
#97=LINE('',#588,#145);
#98=LINE('',#590,#146);
#99=LINE('',#592,#147);
#100=LINE('',#593,#148);
#101=LINE('',#595,#149);
#102=LINE('',#596,#150);
#103=LINE('',#600,#151);
#104=LINE('',#602,#152);
#105=LINE('',#604,#153);
#106=LINE('',#605,#154);
#107=LINE('',#607,#155);
#108=LINE('',#608,#156);
#109=LINE('',#610,#157);
#110=LINE('',#611,#158);
#111=VECTOR('',#421,10.);
#112=VECTOR('',#422,10.);
#113=VECTOR('',#423,10.);
#114=VECTOR('',#424,10.);
#115=VECTOR('',#427,10.);
#116=VECTOR('',#428,10.);
#117=VECTOR('',#429,10.);
#118=VECTOR('',#432,10.);
#119=VECTOR('',#433,10.);
#120=VECTOR('',#434,10.);
#121=VECTOR('',#437,10.);
#122=VECTOR('',#438,10.);
#123=VECTOR('',#445,10.);
#124=VECTOR('',#446,10.);
#125=VECTOR('',#447,10.);
#126=VECTOR('',#448,10.);
#127=VECTOR('',#451,10.);
#128=VECTOR('',#452,10.);
#129=VECTOR('',#453,10.);
#130=VECTOR('',#454,10.);
#131=VECTOR('',#457,10.);
#132=VECTOR('',#458,10.);
#133=VECTOR('',#461,10.);
#134=VECTOR('',#462,10.);
#135=VECTOR('',#463,10.);
#136=VECTOR('',#466,10.);
#137=VECTOR('',#467,10.);
#138=VECTOR('',#468,10.);
#139=VECTOR('',#471,10.);
#140=VECTOR('',#472,10.);
#141=VECTOR('',#479,10.);
#142=VECTOR('',#480,10.);
#143=VECTOR('',#481,10.);
#144=VECTOR('',#482,10.);
#145=VECTOR('',#485,10.);
#146=VECTOR('',#486,10.);
#147=VECTOR('',#487,10.);
#148=VECTOR('',#488,10.);
#149=VECTOR('',#491,10.);
#150=VECTOR('',#492,10.);
#151=VECTOR('',#495,10.);
#152=VECTOR('',#496,10.);
#153=VECTOR('',#497,10.);
#154=VECTOR('',#498,10.);
#155=VECTOR('',#501,10.);
#156=VECTOR('',#502,10.);
#157=VECTOR('',#505,10.);
#158=VECTOR('',#506,10.);
#159=VERTEX_POINT('',#513);
#160=VERTEX_POINT('',#514);
#161=VERTEX_POINT('',#516);
#162=VERTEX_POINT('',#518);
#163=VERTEX_POINT('',#522);
#164=VERTEX_POINT('',#524);
#165=VERTEX_POINT('',#528);
#166=VERTEX_POINT('',#530);
#167=VERTEX_POINT('',#539);
#168=VERTEX_POINT('',#540);
#169=VERTEX_POINT('',#542);
#170=VERTEX_POINT('',#544);
#171=VERTEX_POINT('',#548);
#172=VERTEX_POINT('',#549);
#173=VERTEX_POINT('',#551);
#174=VERTEX_POINT('',#553);
#175=VERTEX_POINT('',#560);
#176=VERTEX_POINT('',#562);
#177=VERTEX_POINT('',#566);
#178=VERTEX_POINT('',#568);
#179=VERTEX_POINT('',#577);
#180=VERTEX_POINT('',#578);
#181=VERTEX_POINT('',#580);
#182=VERTEX_POINT('',#582);
#183=VERTEX_POINT('',#586);
#184=VERTEX_POINT('',#587);
#185=VERTEX_POINT('',#589);
#186=VERTEX_POINT('',#591);
#187=VERTEX_POINT('',#598);
#188=VERTEX_POINT('',#599);
#189=VERTEX_POINT('',#601);
#190=VERTEX_POINT('',#603);
#191=EDGE_CURVE('',#159,#160,#63,.T.);
#192=EDGE_CURVE('',#160,#161,#64,.T.);
#193=EDGE_CURVE('',#162,#161,#65,.T.);
#194=EDGE_CURVE('',#159,#162,#66,.T.);
#195=EDGE_CURVE('',#163,#159,#67,.T.);
#196=EDGE_CURVE('',#164,#162,#68,.T.);
#197=EDGE_CURVE('',#163,#164,#69,.T.);
#198=EDGE_CURVE('',#165,#163,#70,.T.);
#199=EDGE_CURVE('',#166,#164,#71,.T.);
#200=EDGE_CURVE('',#165,#166,#72,.T.);
#201=EDGE_CURVE('',#160,#165,#73,.T.);
#202=EDGE_CURVE('',#161,#166,#74,.T.);
#203=EDGE_CURVE('',#167,#168,#75,.T.);
#204=EDGE_CURVE('',#167,#169,#76,.T.);
#205=EDGE_CURVE('',#170,#169,#77,.T.);
#206=EDGE_CURVE('',#168,#170,#78,.T.);
#207=EDGE_CURVE('',#171,#172,#79,.T.);
#208=EDGE_CURVE('',#172,#173,#80,.T.);
#209=EDGE_CURVE('',#174,#173,#81,.T.);
#210=EDGE_CURVE('',#171,#174,#82,.T.);
#211=EDGE_CURVE('',#169,#174,#83,.T.);
#212=EDGE_CURVE('',#173,#170,#84,.T.);
#213=EDGE_CURVE('',#171,#175,#85,.T.);
#214=EDGE_CURVE('',#176,#167,#86,.T.);
#215=EDGE_CURVE('',#175,#176,#87,.T.);
#216=EDGE_CURVE('',#175,#177,#88,.T.);
#217=EDGE_CURVE('',#178,#176,#89,.T.);
#218=EDGE_CURVE('',#177,#178,#90,.T.);
#219=EDGE_CURVE('',#172,#177,#91,.T.);
#220=EDGE_CURVE('',#168,#178,#92,.T.);
#221=EDGE_CURVE('',#179,#180,#93,.T.);
#222=EDGE_CURVE('',#179,#181,#94,.T.);
#223=EDGE_CURVE('',#182,#181,#95,.T.);
#224=EDGE_CURVE('',#180,#182,#96,.T.);
#225=EDGE_CURVE('',#183,#184,#97,.T.);
#226=EDGE_CURVE('',#183,#185,#98,.T.);
#227=EDGE_CURVE('',#186,#185,#99,.T.);
#228=EDGE_CURVE('',#184,#186,#100,.T.);
#229=EDGE_CURVE('',#185,#182,#101,.T.);
#230=EDGE_CURVE('',#181,#186,#102,.T.);
#231=EDGE_CURVE('',#187,#188,#103,.T.);
#232=EDGE_CURVE('',#188,#189,#104,.T.);
#233=EDGE_CURVE('',#190,#189,#105,.T.);
#234=EDGE_CURVE('',#187,#190,#106,.T.);
#235=EDGE_CURVE('',#187,#183,#107,.T.);
#236=EDGE_CURVE('',#180,#190,#108,.T.);
#237=EDGE_CURVE('',#188,#184,#109,.T.);
#238=EDGE_CURVE('',#189,#179,#110,.T.);
#239=ORIENTED_EDGE('',*,*,#191,.T.);
#240=ORIENTED_EDGE('',*,*,#192,.T.);
#241=ORIENTED_EDGE('',*,*,#193,.F.);
#242=ORIENTED_EDGE('',*,*,#194,.F.);
#243=ORIENTED_EDGE('',*,*,#195,.T.);
#244=ORIENTED_EDGE('',*,*,#194,.T.);
#245=ORIENTED_EDGE('',*,*,#196,.F.);
#246=ORIENTED_EDGE('',*,*,#197,.F.);
#247=ORIENTED_EDGE('',*,*,#198,.T.);
#248=ORIENTED_EDGE('',*,*,#197,.T.);
#249=ORIENTED_EDGE('',*,*,#199,.F.);
#250=ORIENTED_EDGE('',*,*,#200,.F.);
#251=ORIENTED_EDGE('',*,*,#201,.T.);
#252=ORIENTED_EDGE('',*,*,#200,.T.);
#253=ORIENTED_EDGE('',*,*,#202,.F.);
#254=ORIENTED_EDGE('',*,*,#192,.F.);
#255=ORIENTED_EDGE('',*,*,#202,.T.);
#256=ORIENTED_EDGE('',*,*,#199,.T.);
#257=ORIENTED_EDGE('',*,*,#196,.T.);
#258=ORIENTED_EDGE('',*,*,#193,.T.);
#259=ORIENTED_EDGE('',*,*,#201,.F.);
#260=ORIENTED_EDGE('',*,*,#191,.F.);
#261=ORIENTED_EDGE('',*,*,#195,.F.);
#262=ORIENTED_EDGE('',*,*,#198,.F.);
#263=ORIENTED_EDGE('',*,*,#203,.F.);
#264=ORIENTED_EDGE('',*,*,#204,.T.);
#265=ORIENTED_EDGE('',*,*,#205,.F.);
#266=ORIENTED_EDGE('',*,*,#206,.F.);
#267=ORIENTED_EDGE('',*,*,#207,.T.);
#268=ORIENTED_EDGE('',*,*,#208,.T.);
#269=ORIENTED_EDGE('',*,*,#209,.F.);
#270=ORIENTED_EDGE('',*,*,#210,.F.);
#271=ORIENTED_EDGE('',*,*,#211,.T.);
#272=ORIENTED_EDGE('',*,*,#209,.T.);
#273=ORIENTED_EDGE('',*,*,#212,.T.);
#274=ORIENTED_EDGE('',*,*,#205,.T.);
#275=ORIENTED_EDGE('',*,*,#213,.F.);
#276=ORIENTED_EDGE('',*,*,#210,.T.);
#277=ORIENTED_EDGE('',*,*,#211,.F.);
#278=ORIENTED_EDGE('',*,*,#204,.F.);
#279=ORIENTED_EDGE('',*,*,#214,.F.);
#280=ORIENTED_EDGE('',*,*,#215,.F.);
#281=ORIENTED_EDGE('',*,*,#216,.F.);
#282=ORIENTED_EDGE('',*,*,#215,.T.);
#283=ORIENTED_EDGE('',*,*,#217,.F.);
#284=ORIENTED_EDGE('',*,*,#218,.F.);
#285=ORIENTED_EDGE('',*,*,#219,.T.);
#286=ORIENTED_EDGE('',*,*,#218,.T.);
#287=ORIENTED_EDGE('',*,*,#220,.F.);
#288=ORIENTED_EDGE('',*,*,#206,.T.);
#289=ORIENTED_EDGE('',*,*,#212,.F.);
#290=ORIENTED_EDGE('',*,*,#208,.F.);
#291=ORIENTED_EDGE('',*,*,#203,.T.);
#292=ORIENTED_EDGE('',*,*,#220,.T.);
#293=ORIENTED_EDGE('',*,*,#217,.T.);
#294=ORIENTED_EDGE('',*,*,#214,.T.);
#295=ORIENTED_EDGE('',*,*,#213,.T.);
#296=ORIENTED_EDGE('',*,*,#216,.T.);
#297=ORIENTED_EDGE('',*,*,#219,.F.);
#298=ORIENTED_EDGE('',*,*,#207,.F.);
#299=ORIENTED_EDGE('',*,*,#221,.F.);
#300=ORIENTED_EDGE('',*,*,#222,.T.);
#301=ORIENTED_EDGE('',*,*,#223,.F.);
#302=ORIENTED_EDGE('',*,*,#224,.F.);
#303=ORIENTED_EDGE('',*,*,#225,.F.);
#304=ORIENTED_EDGE('',*,*,#226,.T.);
#305=ORIENTED_EDGE('',*,*,#227,.F.);
#306=ORIENTED_EDGE('',*,*,#228,.F.);
#307=ORIENTED_EDGE('',*,*,#227,.T.);
#308=ORIENTED_EDGE('',*,*,#229,.T.);
#309=ORIENTED_EDGE('',*,*,#223,.T.);
#310=ORIENTED_EDGE('',*,*,#230,.T.);
#311=ORIENTED_EDGE('',*,*,#231,.T.);
#312=ORIENTED_EDGE('',*,*,#232,.T.);
#313=ORIENTED_EDGE('',*,*,#233,.F.);
#314=ORIENTED_EDGE('',*,*,#234,.F.);
#315=ORIENTED_EDGE('',*,*,#235,.F.);
#316=ORIENTED_EDGE('',*,*,#234,.T.);
#317=ORIENTED_EDGE('',*,*,#236,.F.);
#318=ORIENTED_EDGE('',*,*,#224,.T.);
#319=ORIENTED_EDGE('',*,*,#229,.F.);
#320=ORIENTED_EDGE('',*,*,#226,.F.);
#321=ORIENTED_EDGE('',*,*,#237,.T.);
#322=ORIENTED_EDGE('',*,*,#228,.T.);
#323=ORIENTED_EDGE('',*,*,#230,.F.);
#324=ORIENTED_EDGE('',*,*,#222,.F.);
#325=ORIENTED_EDGE('',*,*,#238,.F.);
#326=ORIENTED_EDGE('',*,*,#232,.F.);
#327=ORIENTED_EDGE('',*,*,#238,.T.);
#328=ORIENTED_EDGE('',*,*,#221,.T.);
#329=ORIENTED_EDGE('',*,*,#236,.T.);
#330=ORIENTED_EDGE('',*,*,#233,.T.);
#331=ORIENTED_EDGE('',*,*,#237,.F.);
#332=ORIENTED_EDGE('',*,*,#231,.F.);
#333=ORIENTED_EDGE('',*,*,#235,.T.);
#334=ORIENTED_EDGE('',*,*,#225,.T.);
#335=PLANE('',#395);
#336=PLANE('',#396);
#337=PLANE('',#397);
#338=PLANE('',#398);
#339=PLANE('',#399);
#340=PLANE('',#400);
#341=PLANE('',#401);
#342=PLANE('',#402);
#343=PLANE('',#403);
#344=PLANE('',#404);
#345=PLANE('',#405);
#346=PLANE('',#406);
#347=PLANE('',#407);
#348=PLANE('',#408);
#349=PLANE('',#409);
#350=PLANE('',#410);
#351=PLANE('',#411);
#352=PLANE('',#412);
#353=PLANE('',#413);
#354=PLANE('',#414);
#355=PLANE('',#415);
#356=PLANE('',#416);
#357=ADVANCED_FACE('',(#19),#335,.T.);
#358=ADVANCED_FACE('',(#20),#336,.T.);
#359=ADVANCED_FACE('',(#21),#337,.T.);
#360=ADVANCED_FACE('',(#22),#338,.T.);
#361=ADVANCED_FACE('',(#23),#339,.T.);
#362=ADVANCED_FACE('',(#24),#340,.F.);
#363=ADVANCED_FACE('',(#25),#341,.T.);
#364=ADVANCED_FACE('',(#26),#342,.T.);
#365=ADVANCED_FACE('',(#27),#343,.T.);
#366=ADVANCED_FACE('',(#28),#344,.T.);
#367=ADVANCED_FACE('',(#29),#345,.T.);
#368=ADVANCED_FACE('',(#30),#346,.T.);
#369=ADVANCED_FACE('',(#31),#347,.T.);
#370=ADVANCED_FACE('',(#32),#348,.F.);
#371=ADVANCED_FACE('',(#33),#349,.T.);
#372=ADVANCED_FACE('',(#34),#350,.T.);
#373=ADVANCED_FACE('',(#35),#351,.T.);
#374=ADVANCED_FACE('',(#36),#352,.T.);
#375=ADVANCED_FACE('',(#37),#353,.T.);
#376=ADVANCED_FACE('',(#38),#354,.T.);
#377=ADVANCED_FACE('',(#39),#355,.T.);
#378=ADVANCED_FACE('',(#40),#356,.F.);
#379=CLOSED_SHELL('',(#357,#358,#359,#360,#361,#362));
#380=CLOSED_SHELL('',(#363,#364,#365,#366,#367,#368,#369,#370));
#381=CLOSED_SHELL('',(#371,#372,#373,#374,#375,#376,#377,#378));
#382=DERIVED_UNIT_ELEMENT(#384,1.);
#383=DERIVED_UNIT_ELEMENT(#619,-3.);
#384=(
MASS_UNIT()
NAMED_UNIT(*)
SI_UNIT(.KILO.,.GRAM.)
);
#385=DERIVED_UNIT((#382,#383));
#386=MEASURE_REPRESENTATION_ITEM('density measure',
POSITIVE_RATIO_MEASURE(7850.),#385);
#387=PROPERTY_DEFINITION_REPRESENTATION(#392,#389);
#388=PROPERTY_DEFINITION_REPRESENTATION(#393,#390);
#389=REPRESENTATION('material name',(#391),#616);
#390=REPRESENTATION('density',(#386),#616);
#391=DESCRIPTIVE_REPRESENTATION_ITEM('Steel','Steel');
#392=PROPERTY_DEFINITION('material property','material name',#626);
#393=PROPERTY_DEFINITION('material property','density of part',#626);
#394=AXIS2_PLACEMENT_3D('',#511,#417,#418);
#395=AXIS2_PLACEMENT_3D('',#512,#419,#420);
#396=AXIS2_PLACEMENT_3D('',#521,#425,#426);
#397=AXIS2_PLACEMENT_3D('',#527,#430,#431);
#398=AXIS2_PLACEMENT_3D('',#533,#435,#436);
#399=AXIS2_PLACEMENT_3D('',#536,#439,#440);
#400=AXIS2_PLACEMENT_3D('',#537,#441,#442);
#401=AXIS2_PLACEMENT_3D('',#538,#443,#444);
#402=AXIS2_PLACEMENT_3D('',#547,#449,#450);
#403=AXIS2_PLACEMENT_3D('',#556,#455,#456);
#404=AXIS2_PLACEMENT_3D('',#559,#459,#460);
#405=AXIS2_PLACEMENT_3D('',#565,#464,#465);
#406=AXIS2_PLACEMENT_3D('',#571,#469,#470);
#407=AXIS2_PLACEMENT_3D('',#574,#473,#474);
#408=AXIS2_PLACEMENT_3D('',#575,#475,#476);
#409=AXIS2_PLACEMENT_3D('',#576,#477,#478);
#410=AXIS2_PLACEMENT_3D('',#585,#483,#484);
#411=AXIS2_PLACEMENT_3D('',#594,#489,#490);
#412=AXIS2_PLACEMENT_3D('',#597,#493,#494);
#413=AXIS2_PLACEMENT_3D('',#606,#499,#500);
#414=AXIS2_PLACEMENT_3D('',#609,#503,#504);
#415=AXIS2_PLACEMENT_3D('',#612,#507,#508);
#416=AXIS2_PLACEMENT_3D('',#613,#509,#510);
#417=DIRECTION('axis',(0.,0.,1.));
#418=DIRECTION('refdir',(1.,0.,0.));
#419=DIRECTION('center_axis',(0.,1.,0.));
#420=DIRECTION('ref_axis',(-1.,0.,0.));
#421=DIRECTION('',(-1.,0.,0.));
#422=DIRECTION('',(0.,0.,1.));
#423=DIRECTION('',(-1.,0.,0.));
#424=DIRECTION('',(0.,0.,1.));
#425=DIRECTION('center_axis',(1.,0.,0.));
#426=DIRECTION('ref_axis',(0.,1.,0.));
#427=DIRECTION('',(0.,1.,0.));
#428=DIRECTION('',(0.,1.,0.));
#429=DIRECTION('',(0.,0.,1.));
#430=DIRECTION('center_axis',(1.73117298371886E-33,-1.,0.));
#431=DIRECTION('ref_axis',(1.,1.73117298371886E-33,0.));
#432=DIRECTION('',(1.,1.73117298371886E-33,0.));
#433=DIRECTION('',(1.,1.73117298371886E-33,0.));
#434=DIRECTION('',(0.,0.,1.));
#435=DIRECTION('center_axis',(-1.,1.81263994765857E-33,0.));
#436=DIRECTION('ref_axis',(-1.81263994765857E-33,-1.,0.));
#437=DIRECTION('',(-1.81263994765857E-33,-1.,0.));
#438=DIRECTION('',(-1.81263994765857E-33,-1.,0.));
#439=DIRECTION('center_axis',(0.,0.,1.));
#440=DIRECTION('ref_axis',(1.,0.,0.));
#441=DIRECTION('center_axis',(0.,0.,1.));
#442=DIRECTION('ref_axis',(1.,0.,0.));
#443=DIRECTION('center_axis',(1.,-1.81263994765857E-33,0.));
#444=DIRECTION('ref_axis',(1.81263994765857E-33,1.,0.));
#445=DIRECTION('',(-1.81263994765857E-33,-1.,0.));
#446=DIRECTION('',(0.,0.,1.));
#447=DIRECTION('',(1.81263994765857E-33,1.,0.));
#448=DIRECTION('',(0.,0.,1.));
#449=DIRECTION('center_axis',(-1.,0.,0.));
#450=DIRECTION('ref_axis',(0.,-1.,0.));
#451=DIRECTION('',(0.,-1.,0.));
#452=DIRECTION('',(0.,0.,1.));
#453=DIRECTION('',(0.,-1.,0.));
#454=DIRECTION('',(0.,0.,1.));
#455=DIRECTION('center_axis',(0.,0.,1.));
#456=DIRECTION('ref_axis',(1.,0.,0.));
#457=DIRECTION('',(-1.,5.55111512312578E-15,0.));
#458=DIRECTION('',(1.,0.,0.));
#459=DIRECTION('center_axis',(0.,1.,0.));
#460=DIRECTION('ref_axis',(-1.,0.,0.));
#461=DIRECTION('',(1.,0.,0.));
#462=DIRECTION('',(-1.,0.,0.));
#463=DIRECTION('',(0.,0.,1.));
#464=DIRECTION('center_axis',(1.,3.70074341541719E-16,0.));
#465=DIRECTION('ref_axis',(-3.70074341541719E-16,1.,0.));
#466=DIRECTION('',(3.70074341541719E-16,-1.,0.));
#467=DIRECTION('',(-3.70074341541719E-16,1.,0.));
#468=DIRECTION('',(0.,0.,1.));
#469=DIRECTION('center_axis',(3.3643121958338E-16,-1.,0.));
#470=DIRECTION('ref_axis',(1.,3.3643121958338E-16,0.));
#471=DIRECTION('',(1.,0.,0.));
#472=DIRECTION('',(1.,3.3643121958338E-16,0.));
#473=DIRECTION('center_axis',(0.,0.,1.));
#474=DIRECTION('ref_axis',(1.,0.,0.));
#475=DIRECTION('center_axis',(0.,0.,1.));
#476=DIRECTION('ref_axis',(1.,0.,0.));
#477=DIRECTION('center_axis',(-1.,0.,0.));
#478=DIRECTION('ref_axis',(0.,-1.,0.));
#479=DIRECTION('',(0.,1.,0.));
#480=DIRECTION('',(0.,0.,1.));
#481=DIRECTION('',(0.,-1.,0.));
#482=DIRECTION('',(0.,0.,1.));
#483=DIRECTION('center_axis',(1.,0.,0.));
#484=DIRECTION('ref_axis',(0.,1.,0.));
#485=DIRECTION('',(0.,-1.,0.));
#486=DIRECTION('',(0.,0.,1.));
#487=DIRECTION('',(0.,1.,0.));
#488=DIRECTION('',(0.,0.,1.));
#489=DIRECTION('center_axis',(0.,0.,1.));
#490=DIRECTION('ref_axis',(1.,0.,0.));
#491=DIRECTION('',(-1.,-5.55111512312578E-15,0.));
#492=DIRECTION('',(1.,0.,0.));
#493=DIRECTION('center_axis',(-1.,3.70074341541719E-16,0.));
#494=DIRECTION('ref_axis',(-3.70074341541719E-16,-1.,0.));
#495=DIRECTION('',(-3.70074341541719E-16,-1.,0.));
#496=DIRECTION('',(0.,0.,1.));
#497=DIRECTION('',(-3.70074341541719E-16,-1.,0.));
#498=DIRECTION('',(0.,0.,1.));
#499=DIRECTION('center_axis',(0.,1.,0.));
#500=DIRECTION('ref_axis',(-1.,0.,0.));
#501=DIRECTION('',(1.,5.55111512312578E-15,0.));
#502=DIRECTION('',(-1.,0.,0.));
#503=DIRECTION('center_axis',(-3.3643121958338E-16,-1.,0.));
#504=DIRECTION('ref_axis',(1.,-3.3643121958338E-16,0.));
#505=DIRECTION('',(1.,-3.3643121958338E-16,0.));
#506=DIRECTION('',(1.,-3.3643121958338E-16,0.));
#507=DIRECTION('center_axis',(0.,0.,1.));
#508=DIRECTION('ref_axis',(1.,0.,0.));
#509=DIRECTION('center_axis',(0.,0.,1.));
#510=DIRECTION('ref_axis',(1.,0.,0.));
#511=CARTESIAN_POINT('',(0.,0.,0.));
#512=CARTESIAN_POINT('Origin',(17.8,17.,0.));
#513=CARTESIAN_POINT('',(17.8,17.,0.));
#514=CARTESIAN_POINT('',(3.08148791101958E-32,17.,0.));
#515=CARTESIAN_POINT('',(17.8,17.,0.));
#516=CARTESIAN_POINT('',(3.08148791101958E-32,17.,7.));
#517=CARTESIAN_POINT('',(3.08148791101958E-32,17.,0.));
#518=CARTESIAN_POINT('',(17.8,17.,7.));
#519=CARTESIAN_POINT('',(17.8,17.,7.));
#520=CARTESIAN_POINT('',(17.8,17.,0.));
#521=CARTESIAN_POINT('Origin',(17.8,3.08148791101958E-32,0.));
#522=CARTESIAN_POINT('',(17.8,3.08148791101958E-32,0.));
#523=CARTESIAN_POINT('',(17.8,3.08148791101958E-32,0.));
#524=CARTESIAN_POINT('',(17.8,0.,7.));
#525=CARTESIAN_POINT('',(17.8,3.08148791101958E-32,7.));
#526=CARTESIAN_POINT('',(17.8,3.08148791101958E-32,0.));
#527=CARTESIAN_POINT('Origin',(0.,0.,0.));
#528=CARTESIAN_POINT('',(0.,0.,0.));
#529=CARTESIAN_POINT('',(0.,0.,0.));
#530=CARTESIAN_POINT('',(0.,0.,7.));
#531=CARTESIAN_POINT('',(0.,0.,7.));
#532=CARTESIAN_POINT('',(0.,0.,0.));
#533=CARTESIAN_POINT('Origin',(3.08148791101958E-32,17.,0.));
#534=CARTESIAN_POINT('',(3.08148791101958E-32,17.,0.));
#535=CARTESIAN_POINT('',(3.08148791101958E-32,17.,7.));
#536=CARTESIAN_POINT('Origin',(8.9,8.5,7.));
#537=CARTESIAN_POINT('Origin',(8.9,8.5,0.));
#538=CARTESIAN_POINT('Origin',(4.53159986914644E-33,2.5,0.));
#539=CARTESIAN_POINT('',(0.,14.5,0.2));
#540=CARTESIAN_POINT('',(0.,2.5,0.2));
#541=CARTESIAN_POINT('',(3.08148791101958E-32,17.,0.2));
#542=CARTESIAN_POINT('',(0.,14.5,5.));
#543=CARTESIAN_POINT('',(0.,14.5,0.));
#544=CARTESIAN_POINT('',(0.,2.5,5.));
#545=CARTESIAN_POINT('',(3.08148791101958E-32,17.,5.));
#546=CARTESIAN_POINT('',(0.,2.5,0.));
#547=CARTESIAN_POINT('Origin',(-0.4,14.5,0.));
#548=CARTESIAN_POINT('',(-0.4,14.5,0.));
#549=CARTESIAN_POINT('',(-0.4,2.5,0.));
#550=CARTESIAN_POINT('',(-0.4,14.5,0.));
#551=CARTESIAN_POINT('',(-0.4,2.5,5.));
#552=CARTESIAN_POINT('',(-0.4,2.5,0.));
#553=CARTESIAN_POINT('',(-0.4,14.5,5.));
#554=CARTESIAN_POINT('',(-0.4,14.5,5.));
#555=CARTESIAN_POINT('',(-0.4,14.5,0.));
#556=CARTESIAN_POINT('Origin',(-0.2,8.5,5.));
#557=CARTESIAN_POINT('',(0.,14.5,5.));
#558=CARTESIAN_POINT('',(-0.4,2.5,5.));
#559=CARTESIAN_POINT('Origin',(3.3,14.5,0.));
#560=CARTESIAN_POINT('',(3.3,14.5,0.));
#561=CARTESIAN_POINT('',(0.,14.5,0.));
#562=CARTESIAN_POINT('',(3.3,14.5,0.2));
#563=CARTESIAN_POINT('',(0.,14.5,0.2));
#564=CARTESIAN_POINT('',(3.3,14.5,0.));
#565=CARTESIAN_POINT('Origin',(3.30000000000001,2.5,0.));
#566=CARTESIAN_POINT('',(3.30000000000001,2.5,0.));
#567=CARTESIAN_POINT('',(3.3,14.5,0.));
#568=CARTESIAN_POINT('',(3.30000000000001,2.5,0.2));
#569=CARTESIAN_POINT('',(3.3,14.5,0.2));
#570=CARTESIAN_POINT('',(3.30000000000001,2.5,0.));
#571=CARTESIAN_POINT('Origin',(0.,2.5,0.));
#572=CARTESIAN_POINT('',(-0.4,2.5,0.));
#573=CARTESIAN_POINT('',(3.30000000000001,2.5,0.2));
#574=CARTESIAN_POINT('Origin',(1.65,8.5,0.2));
#575=CARTESIAN_POINT('Origin',(1.65,8.5,0.));
#576=CARTESIAN_POINT('Origin',(17.8,14.5,0.));
#577=CARTESIAN_POINT('',(17.8,2.5,0.2));
#578=CARTESIAN_POINT('',(17.8,14.5,0.2));
#579=CARTESIAN_POINT('',(17.8,3.08148791101958E-32,0.2));
#580=CARTESIAN_POINT('',(17.8,2.5,5.));
#581=CARTESIAN_POINT('',(17.8,2.5,0.));
#582=CARTESIAN_POINT('',(17.8,14.5,5.));
#583=CARTESIAN_POINT('',(17.8,3.08148791101958E-32,5.));
#584=CARTESIAN_POINT('',(17.8,14.5,0.));
#585=CARTESIAN_POINT('Origin',(18.2,2.5,0.));
#586=CARTESIAN_POINT('',(18.2,14.5,0.));
#587=CARTESIAN_POINT('',(18.2,2.5,0.));
#588=CARTESIAN_POINT('',(18.2,14.5,0.));
#589=CARTESIAN_POINT('',(18.2,14.5,5.));
#590=CARTESIAN_POINT('',(18.2,14.5,0.));
#591=CARTESIAN_POINT('',(18.2,2.5,5.));
#592=CARTESIAN_POINT('',(18.2,14.5,5.));
#593=CARTESIAN_POINT('',(18.2,2.5,0.));
#594=CARTESIAN_POINT('Origin',(18.,8.5,5.));
#595=CARTESIAN_POINT('',(17.8,14.5,5.));
#596=CARTESIAN_POINT('',(18.2,2.5,5.));
#597=CARTESIAN_POINT('Origin',(14.5,14.5,0.));
#598=CARTESIAN_POINT('',(14.5,14.5,0.));
#599=CARTESIAN_POINT('',(14.5,2.5,0.));
#600=CARTESIAN_POINT('',(14.5,14.5,0.));
#601=CARTESIAN_POINT('',(14.5,2.5,0.2));
#602=CARTESIAN_POINT('',(14.5,2.5,0.));
#603=CARTESIAN_POINT('',(14.5,14.5,0.2));
#604=CARTESIAN_POINT('',(14.5,14.5,0.2));
#605=CARTESIAN_POINT('',(14.5,14.5,0.));
#606=CARTESIAN_POINT('Origin',(17.8,14.5,0.));
#607=CARTESIAN_POINT('',(17.8,14.5,0.));
#608=CARTESIAN_POINT('',(17.8,14.5,0.2));
#609=CARTESIAN_POINT('Origin',(14.5,2.5,0.));
#610=CARTESIAN_POINT('',(14.5,2.5,0.));
#611=CARTESIAN_POINT('',(14.5,2.5,0.2));
#612=CARTESIAN_POINT('Origin',(16.15,8.5,0.2));
#613=CARTESIAN_POINT('Origin',(16.15,8.5,0.));
#614=UNCERTAINTY_MEASURE_WITH_UNIT(LENGTH_MEASURE(0.01),#618,
'DISTANCE_ACCURACY_VALUE',
'Maximum model space distance between geometric entities at asserted c
onnectivities');
#615=UNCERTAINTY_MEASURE_WITH_UNIT(LENGTH_MEASURE(0.01),#618,
'DISTANCE_ACCURACY_VALUE',
'Maximum model space distance between geometric entities at asserted c
onnectivities');
#616=(
GEOMETRIC_REPRESENTATION_CONTEXT(3)
GLOBAL_UNCERTAINTY_ASSIGNED_CONTEXT((#614))
GLOBAL_UNIT_ASSIGNED_CONTEXT((#618,#620,#621))
REPRESENTATION_CONTEXT('','3D')
);
#617=(
GEOMETRIC_REPRESENTATION_CONTEXT(3)
GLOBAL_UNCERTAINTY_ASSIGNED_CONTEXT((#615))
GLOBAL_UNIT_ASSIGNED_CONTEXT((#618,#620,#621))
REPRESENTATION_CONTEXT('','3D')
);
#618=(
LENGTH_UNIT()
NAMED_UNIT(*)
SI_UNIT(.MILLI.,.METRE.)
);
#619=(
LENGTH_UNIT()
NAMED_UNIT(*)
SI_UNIT($,.METRE.)
);
#620=(
NAMED_UNIT(*)
PLANE_ANGLE_UNIT()
SI_UNIT($,.RADIAN.)
);
#621=(
NAMED_UNIT(*)
SI_UNIT($,.STERADIAN.)
SOLID_ANGLE_UNIT()
);
#622=SHAPE_DEFINITION_REPRESENTATION(#623,#624);
#623=PRODUCT_DEFINITION_SHAPE('',$,#626);
#624=SHAPE_REPRESENTATION('',(#394),#616);
#625=PRODUCT_DEFINITION_CONTEXT('part definition',#630,'design');
#626=PRODUCT_DEFINITION('inductor_ 22u','inductor_ 22u v1',#627,#625);
#627=PRODUCT_DEFINITION_FORMATION('',$,#632);
#628=PRODUCT_RELATED_PRODUCT_CATEGORY('inductor_ 22u v1',
'inductor_ 22u v1',(#632));
#629=APPLICATION_PROTOCOL_DEFINITION('international standard',
'automotive_design',2009,#630);
#630=APPLICATION_CONTEXT(
'Core Data for Automotive Mechanical Design Process');
#631=PRODUCT_CONTEXT('part definition',#630,'mechanical');
#632=PRODUCT('inductor_ 22u','inductor_ 22u v1',$,(#631));
#633=PRESENTATION_STYLE_ASSIGNMENT((#636));
#634=PRESENTATION_STYLE_ASSIGNMENT((#637));
#635=PRESENTATION_STYLE_ASSIGNMENT((#638));
#636=SURFACE_STYLE_USAGE(.BOTH.,#639);
#637=SURFACE_STYLE_USAGE(.BOTH.,#640);
#638=SURFACE_STYLE_USAGE(.BOTH.,#641);
#639=SURFACE_SIDE_STYLE('',(#642));
#640=SURFACE_SIDE_STYLE('',(#643));
#641=SURFACE_SIDE_STYLE('',(#644));
#642=SURFACE_STYLE_FILL_AREA(#645);
#643=SURFACE_STYLE_FILL_AREA(#646);
#644=SURFACE_STYLE_FILL_AREA(#647);
#645=FILL_AREA_STYLE('Steel - Satin',(#648));
#646=FILL_AREA_STYLE(
'PEKK - Polyetherketoneketone Reinforced With Carbon Fibers - HT-23 (w
ith EOS P 810 3D Printer)',(#649));
#647=FILL_AREA_STYLE('Aluminum - Polished',(#650));
#648=FILL_AREA_STYLE_COLOUR('Steel - Satin',#651);
#649=FILL_AREA_STYLE_COLOUR(
'PEKK - Polyetherketoneketone Reinforced With Carbon Fibers - HT-23 (w
ith EOS P 810 3D Printer)',#652);
#650=FILL_AREA_STYLE_COLOUR('Aluminum - Polished',#653);
#651=COLOUR_RGB('Steel - Satin',0.627450980392157,0.627450980392157,0.627450980392157);
#652=COLOUR_RGB(
'PEKK - Polyetherketoneketone Reinforced With Carbon Fibers - HT-23 (w
ith EOS P 810 3D Printer)',0.352941176470588,0.352941176470588,0.352941176470588);
#653=COLOUR_RGB('Aluminum - Polished',0.96078431372549,0.96078431372549,
0.964705882352941);
ENDSEC;
END-ISO-10303-21;
