ISO-10303-21;
HEADER;
/* Generated by software containing ST-Developer
 * from STEP Tools, Inc. (www.steptools.com) 
 */

FILE_DESCRIPTION(
/* description */ (''),
/* implementation_level */ '2;1');

FILE_NAME(
/* name */ 'inductor_47u.step',
/* time_stamp */ '2026-04-22T23:15:51+02:00',
/* author */ (''),
/* organization */ (''),
/* preprocessor_version */ 'ST-DEVELOPER v20.1',
/* originating_system */ 'Autodesk Translation Framework v15.8.0.0',
/* authorisation */ '');

FILE_SCHEMA (('AUTOMOTIVE_DESIGN { 1 0 10303 214 3 1 1 }'));
ENDSEC;

DATA;
#10=MECHANICAL_DESIGN_GEOMETRIC_PRESENTATION_REPRESENTATION('',(#13,#14,
#15),#665);
#11=SHAPE_REPRESENTATION_RELATIONSHIP('SRR','None',#672,#12);
#12=ADVANCED_BREP_SHAPE_REPRESENTATION('',(#16,#17,#18),#664);
#13=STYLED_ITEM('',(#682),#16);
#14=STYLED_ITEM('',(#683),#17);
#15=STYLED_ITEM('',(#684),#18);
#16=MANIFOLD_SOLID_BREP('Body1',#409);
#17=MANIFOLD_SOLID_BREP('Body2',#410);
#18=MANIFOLD_SOLID_BREP('Body3',#411);
#19=FACE_OUTER_BOUND('',#43,.T.);
#20=FACE_OUTER_BOUND('',#44,.T.);
#21=FACE_OUTER_BOUND('',#45,.T.);
#22=FACE_OUTER_BOUND('',#46,.T.);
#23=FACE_OUTER_BOUND('',#47,.T.);
#24=FACE_OUTER_BOUND('',#48,.T.);
#25=FACE_OUTER_BOUND('',#49,.T.);
#26=FACE_OUTER_BOUND('',#50,.T.);
#27=FACE_OUTER_BOUND('',#51,.T.);
#28=FACE_OUTER_BOUND('',#52,.T.);
#29=FACE_OUTER_BOUND('',#53,.T.);
#30=FACE_OUTER_BOUND('',#54,.T.);
#31=FACE_OUTER_BOUND('',#55,.T.);
#32=FACE_OUTER_BOUND('',#56,.T.);
#33=FACE_OUTER_BOUND('',#57,.T.);
#34=FACE_OUTER_BOUND('',#58,.T.);
#35=FACE_OUTER_BOUND('',#59,.T.);
#36=FACE_OUTER_BOUND('',#60,.T.);
#37=FACE_OUTER_BOUND('',#61,.T.);
#38=FACE_OUTER_BOUND('',#62,.T.);
#39=FACE_OUTER_BOUND('',#63,.T.);
#40=FACE_OUTER_BOUND('',#64,.T.);
#41=FACE_OUTER_BOUND('',#65,.T.);
#42=FACE_OUTER_BOUND('',#66,.T.);
#43=EDGE_LOOP('',(#257,#258,#259,#260));
#44=EDGE_LOOP('',(#261,#262,#263,#264));
#45=EDGE_LOOP('',(#265,#266,#267,#268));
#46=EDGE_LOOP('',(#269,#270,#271,#272));
#47=EDGE_LOOP('',(#273,#274,#275,#276));
#48=EDGE_LOOP('',(#277,#278,#279,#280));
#49=EDGE_LOOP('',(#281,#282,#283,#284,#285));
#50=EDGE_LOOP('',(#286,#287,#288,#289));
#51=EDGE_LOOP('',(#290,#291,#292,#293));
#52=EDGE_LOOP('',(#294,#295,#296,#297));
#53=EDGE_LOOP('',(#298,#299,#300,#301));
#54=EDGE_LOOP('',(#302,#303,#304,#305,#306,#307));
#55=EDGE_LOOP('',(#308,#309,#310,#311));
#56=EDGE_LOOP('',(#312,#313,#314,#315));
#57=EDGE_LOOP('',(#316,#317,#318,#319,#320));
#58=EDGE_LOOP('',(#321,#322,#323,#324));
#59=EDGE_LOOP('',(#325,#326,#327,#328,#329));
#60=EDGE_LOOP('',(#330,#331,#332,#333));
#61=EDGE_LOOP('',(#334,#335,#336,#337));
#62=EDGE_LOOP('',(#338,#339,#340,#341,#342,#343));
#63=EDGE_LOOP('',(#344,#345,#346,#347));
#64=EDGE_LOOP('',(#348,#349,#350,#351));
#65=EDGE_LOOP('',(#352,#353,#354,#355));
#66=EDGE_LOOP('',(#356,#357,#358,#359,#360));
#67=LINE('',#555,#119);
#68=LINE('',#557,#120);
#69=LINE('',#559,#121);
#70=LINE('',#560,#122);
#71=LINE('',#563,#123);
#72=LINE('',#565,#124);
#73=LINE('',#566,#125);
#74=LINE('',#569,#126);
#75=LINE('',#571,#127);
#76=LINE('',#572,#128);
#77=LINE('',#574,#129);
#78=LINE('',#575,#130);
#79=LINE('',#581,#131);
#80=LINE('',#583,#132);
#81=LINE('',#585,#133);
#82=LINE('',#587,#134);
#83=LINE('',#588,#135);
#84=LINE('',#591,#136);
#85=LINE('',#593,#137);
#86=LINE('',#594,#138);
#87=LINE('',#597,#139);
#88=LINE('',#599,#140);
#89=LINE('',#600,#141);
#90=LINE('',#602,#142);
#91=LINE('',#606,#143);
#92=LINE('',#608,#144);
#93=LINE('',#610,#145);
#94=LINE('',#611,#146);
#95=LINE('',#613,#147);
#96=LINE('',#614,#148);
#97=LINE('',#616,#149);
#98=LINE('',#617,#150);
#99=LINE('',#623,#151);
#100=LINE('',#625,#152);
#101=LINE('',#627,#153);
#102=LINE('',#628,#154);
#103=LINE('',#632,#155);
#104=LINE('',#633,#156);
#105=LINE('',#635,#157);
#106=LINE('',#636,#158);
#107=LINE('',#639,#159);
#108=LINE('',#641,#160);
#109=LINE('',#642,#161);
#110=LINE('',#644,#162);
#111=LINE('',#647,#163);
#112=LINE('',#649,#164);
#113=LINE('',#650,#165);
#114=LINE('',#653,#166);
#115=LINE('',#655,#167);
#116=LINE('',#656,#168);
#117=LINE('',#658,#169);
#118=LINE('',#659,#170);
#119=VECTOR('',#453,10.);
#120=VECTOR('',#454,10.);
#121=VECTOR('',#455,10.);
#122=VECTOR('',#456,10.);
#123=VECTOR('',#459,10.);
#124=VECTOR('',#460,10.);
#125=VECTOR('',#461,10.);
#126=VECTOR('',#464,10.);
#127=VECTOR('',#465,10.);
#128=VECTOR('',#466,10.);
#129=VECTOR('',#469,10.);
#130=VECTOR('',#470,10.);
#131=VECTOR('',#477,10.);
#132=VECTOR('',#478,10.);
#133=VECTOR('',#479,10.);
#134=VECTOR('',#480,10.);
#135=VECTOR('',#481,10.);
#136=VECTOR('',#484,10.);
#137=VECTOR('',#485,10.);
#138=VECTOR('',#486,10.);
#139=VECTOR('',#489,10.);
#140=VECTOR('',#490,10.);
#141=VECTOR('',#491,10.);
#142=VECTOR('',#494,10.);
#143=VECTOR('',#497,10.);
#144=VECTOR('',#498,10.);
#145=VECTOR('',#499,10.);
#146=VECTOR('',#500,10.);
#147=VECTOR('',#503,10.);
#148=VECTOR('',#504,10.);
#149=VECTOR('',#507,10.);
#150=VECTOR('',#508,10.);
#151=VECTOR('',#515,10.);
#152=VECTOR('',#516,10.);
#153=VECTOR('',#517,10.);
#154=VECTOR('',#518,10.);
#155=VECTOR('',#521,10.);
#156=VECTOR('',#522,10.);
#157=VECTOR('',#523,10.);
#158=VECTOR('',#524,10.);
#159=VECTOR('',#527,10.);
#160=VECTOR('',#528,10.);
#161=VECTOR('',#529,10.);
#162=VECTOR('',#532,10.);
#163=VECTOR('',#535,10.);
#164=VECTOR('',#536,10.);
#165=VECTOR('',#537,10.);
#166=VECTOR('',#540,10.);
#167=VECTOR('',#541,10.);
#168=VECTOR('',#542,10.);
#169=VECTOR('',#545,10.);
#170=VECTOR('',#546,10.);
#171=VERTEX_POINT('',#553);
#172=VERTEX_POINT('',#554);
#173=VERTEX_POINT('',#556);
#174=VERTEX_POINT('',#558);
#175=VERTEX_POINT('',#562);
#176=VERTEX_POINT('',#564);
#177=VERTEX_POINT('',#568);
#178=VERTEX_POINT('',#570);
#179=VERTEX_POINT('',#579);
#180=VERTEX_POINT('',#580);
#181=VERTEX_POINT('',#582);
#182=VERTEX_POINT('',#584);
#183=VERTEX_POINT('',#586);
#184=VERTEX_POINT('',#590);
#185=VERTEX_POINT('',#592);
#186=VERTEX_POINT('',#596);
#187=VERTEX_POINT('',#598);
#188=VERTEX_POINT('',#604);
#189=VERTEX_POINT('',#605);
#190=VERTEX_POINT('',#607);
#191=VERTEX_POINT('',#609);
#192=VERTEX_POINT('',#621);
#193=VERTEX_POINT('',#622);
#194=VERTEX_POINT('',#624);
#195=VERTEX_POINT('',#626);
#196=VERTEX_POINT('',#630);
#197=VERTEX_POINT('',#631);
#198=VERTEX_POINT('',#634);
#199=VERTEX_POINT('',#638);
#200=VERTEX_POINT('',#640);
#201=VERTEX_POINT('',#646);
#202=VERTEX_POINT('',#648);
#203=VERTEX_POINT('',#652);
#204=VERTEX_POINT('',#654);
#205=EDGE_CURVE('',#171,#172,#67,.T.);
#206=EDGE_CURVE('',#172,#173,#68,.T.);
#207=EDGE_CURVE('',#174,#173,#69,.T.);
#208=EDGE_CURVE('',#171,#174,#70,.T.);
#209=EDGE_CURVE('',#175,#171,#71,.T.);
#210=EDGE_CURVE('',#176,#174,#72,.T.);
#211=EDGE_CURVE('',#175,#176,#73,.T.);
#212=EDGE_CURVE('',#177,#175,#74,.T.);
#213=EDGE_CURVE('',#178,#176,#75,.T.);
#214=EDGE_CURVE('',#177,#178,#76,.T.);
#215=EDGE_CURVE('',#172,#177,#77,.T.);
#216=EDGE_CURVE('',#173,#178,#78,.T.);
#217=EDGE_CURVE('',#179,#180,#79,.T.);
#218=EDGE_CURVE('',#179,#181,#80,.T.);
#219=EDGE_CURVE('',#182,#181,#81,.T.);
#220=EDGE_CURVE('',#183,#182,#82,.T.);
#221=EDGE_CURVE('',#180,#183,#83,.T.);
#222=EDGE_CURVE('',#183,#184,#84,.T.);
#223=EDGE_CURVE('',#185,#182,#85,.T.);
#224=EDGE_CURVE('',#184,#185,#86,.T.);
#225=EDGE_CURVE('',#186,#179,#87,.T.);
#226=EDGE_CURVE('',#186,#187,#88,.T.);
#227=EDGE_CURVE('',#181,#187,#89,.T.);
#228=EDGE_CURVE('',#187,#185,#90,.T.);
#229=EDGE_CURVE('',#188,#189,#91,.T.);
#230=EDGE_CURVE('',#189,#190,#92,.T.);
#231=EDGE_CURVE('',#191,#190,#93,.T.);
#232=EDGE_CURVE('',#188,#191,#94,.T.);
#233=EDGE_CURVE('',#188,#186,#95,.T.);
#234=EDGE_CURVE('',#184,#191,#96,.T.);
#235=EDGE_CURVE('',#189,#180,#97,.T.);
#236=EDGE_CURVE('',#190,#183,#98,.T.);
#237=EDGE_CURVE('',#192,#193,#99,.T.);
#238=EDGE_CURVE('',#192,#194,#100,.T.);
#239=EDGE_CURVE('',#195,#194,#101,.T.);
#240=EDGE_CURVE('',#193,#195,#102,.T.);
#241=EDGE_CURVE('',#196,#197,#103,.T.);
#242=EDGE_CURVE('',#197,#193,#104,.T.);
#243=EDGE_CURVE('',#198,#195,#105,.T.);
#244=EDGE_CURVE('',#196,#198,#106,.T.);
#245=EDGE_CURVE('',#199,#196,#107,.T.);
#246=EDGE_CURVE('',#200,#198,#108,.T.);
#247=EDGE_CURVE('',#199,#200,#109,.T.);
#248=EDGE_CURVE('',#194,#200,#110,.T.);
#249=EDGE_CURVE('',#199,#201,#111,.T.);
#250=EDGE_CURVE('',#202,#192,#112,.T.);
#251=EDGE_CURVE('',#201,#202,#113,.T.);
#252=EDGE_CURVE('',#201,#203,#114,.T.);
#253=EDGE_CURVE('',#204,#202,#115,.T.);
#254=EDGE_CURVE('',#203,#204,#116,.T.);
#255=EDGE_CURVE('',#203,#197,#117,.T.);
#256=EDGE_CURVE('',#193,#204,#118,.T.);
#257=ORIENTED_EDGE('',*,*,#205,.T.);
#258=ORIENTED_EDGE('',*,*,#206,.T.);
#259=ORIENTED_EDGE('',*,*,#207,.F.);
#260=ORIENTED_EDGE('',*,*,#208,.F.);
#261=ORIENTED_EDGE('',*,*,#209,.T.);
#262=ORIENTED_EDGE('',*,*,#208,.T.);
#263=ORIENTED_EDGE('',*,*,#210,.F.);
#264=ORIENTED_EDGE('',*,*,#211,.F.);
#265=ORIENTED_EDGE('',*,*,#212,.T.);
#266=ORIENTED_EDGE('',*,*,#211,.T.);
#267=ORIENTED_EDGE('',*,*,#213,.F.);
#268=ORIENTED_EDGE('',*,*,#214,.F.);
#269=ORIENTED_EDGE('',*,*,#215,.T.);
#270=ORIENTED_EDGE('',*,*,#214,.T.);
#271=ORIENTED_EDGE('',*,*,#216,.F.);
#272=ORIENTED_EDGE('',*,*,#206,.F.);
#273=ORIENTED_EDGE('',*,*,#216,.T.);
#274=ORIENTED_EDGE('',*,*,#213,.T.);
#275=ORIENTED_EDGE('',*,*,#210,.T.);
#276=ORIENTED_EDGE('',*,*,#207,.T.);
#277=ORIENTED_EDGE('',*,*,#215,.F.);
#278=ORIENTED_EDGE('',*,*,#205,.F.);
#279=ORIENTED_EDGE('',*,*,#209,.F.);
#280=ORIENTED_EDGE('',*,*,#212,.F.);
#281=ORIENTED_EDGE('',*,*,#217,.F.);
#282=ORIENTED_EDGE('',*,*,#218,.T.);
#283=ORIENTED_EDGE('',*,*,#219,.F.);
#284=ORIENTED_EDGE('',*,*,#220,.F.);
#285=ORIENTED_EDGE('',*,*,#221,.F.);
#286=ORIENTED_EDGE('',*,*,#222,.F.);
#287=ORIENTED_EDGE('',*,*,#220,.T.);
#288=ORIENTED_EDGE('',*,*,#223,.F.);
#289=ORIENTED_EDGE('',*,*,#224,.F.);
#290=ORIENTED_EDGE('',*,*,#225,.F.);
#291=ORIENTED_EDGE('',*,*,#226,.T.);
#292=ORIENTED_EDGE('',*,*,#227,.F.);
#293=ORIENTED_EDGE('',*,*,#218,.F.);
#294=ORIENTED_EDGE('',*,*,#227,.T.);
#295=ORIENTED_EDGE('',*,*,#228,.T.);
#296=ORIENTED_EDGE('',*,*,#223,.T.);
#297=ORIENTED_EDGE('',*,*,#219,.T.);
#298=ORIENTED_EDGE('',*,*,#229,.T.);
#299=ORIENTED_EDGE('',*,*,#230,.T.);
#300=ORIENTED_EDGE('',*,*,#231,.F.);
#301=ORIENTED_EDGE('',*,*,#232,.F.);
#302=ORIENTED_EDGE('',*,*,#233,.F.);
#303=ORIENTED_EDGE('',*,*,#232,.T.);
#304=ORIENTED_EDGE('',*,*,#234,.F.);
#305=ORIENTED_EDGE('',*,*,#224,.T.);
#306=ORIENTED_EDGE('',*,*,#228,.F.);
#307=ORIENTED_EDGE('',*,*,#226,.F.);
#308=ORIENTED_EDGE('',*,*,#235,.T.);
#309=ORIENTED_EDGE('',*,*,#221,.T.);
#310=ORIENTED_EDGE('',*,*,#236,.F.);
#311=ORIENTED_EDGE('',*,*,#230,.F.);
#312=ORIENTED_EDGE('',*,*,#236,.T.);
#313=ORIENTED_EDGE('',*,*,#222,.T.);
#314=ORIENTED_EDGE('',*,*,#234,.T.);
#315=ORIENTED_EDGE('',*,*,#231,.T.);
#316=ORIENTED_EDGE('',*,*,#235,.F.);
#317=ORIENTED_EDGE('',*,*,#229,.F.);
#318=ORIENTED_EDGE('',*,*,#233,.T.);
#319=ORIENTED_EDGE('',*,*,#225,.T.);
#320=ORIENTED_EDGE('',*,*,#217,.T.);
#321=ORIENTED_EDGE('',*,*,#237,.F.);
#322=ORIENTED_EDGE('',*,*,#238,.T.);
#323=ORIENTED_EDGE('',*,*,#239,.F.);
#324=ORIENTED_EDGE('',*,*,#240,.F.);
#325=ORIENTED_EDGE('',*,*,#241,.T.);
#326=ORIENTED_EDGE('',*,*,#242,.T.);
#327=ORIENTED_EDGE('',*,*,#240,.T.);
#328=ORIENTED_EDGE('',*,*,#243,.F.);
#329=ORIENTED_EDGE('',*,*,#244,.F.);
#330=ORIENTED_EDGE('',*,*,#245,.T.);
#331=ORIENTED_EDGE('',*,*,#244,.T.);
#332=ORIENTED_EDGE('',*,*,#246,.F.);
#333=ORIENTED_EDGE('',*,*,#247,.F.);
#334=ORIENTED_EDGE('',*,*,#248,.T.);
#335=ORIENTED_EDGE('',*,*,#246,.T.);
#336=ORIENTED_EDGE('',*,*,#243,.T.);
#337=ORIENTED_EDGE('',*,*,#239,.T.);
#338=ORIENTED_EDGE('',*,*,#249,.F.);
#339=ORIENTED_EDGE('',*,*,#247,.T.);
#340=ORIENTED_EDGE('',*,*,#248,.F.);
#341=ORIENTED_EDGE('',*,*,#238,.F.);
#342=ORIENTED_EDGE('',*,*,#250,.F.);
#343=ORIENTED_EDGE('',*,*,#251,.F.);
#344=ORIENTED_EDGE('',*,*,#252,.F.);
#345=ORIENTED_EDGE('',*,*,#251,.T.);
#346=ORIENTED_EDGE('',*,*,#253,.F.);
#347=ORIENTED_EDGE('',*,*,#254,.F.);
#348=ORIENTED_EDGE('',*,*,#255,.F.);
#349=ORIENTED_EDGE('',*,*,#254,.T.);
#350=ORIENTED_EDGE('',*,*,#256,.F.);
#351=ORIENTED_EDGE('',*,*,#242,.F.);
#352=ORIENTED_EDGE('',*,*,#237,.T.);
#353=ORIENTED_EDGE('',*,*,#256,.T.);
#354=ORIENTED_EDGE('',*,*,#253,.T.);
#355=ORIENTED_EDGE('',*,*,#250,.T.);
#356=ORIENTED_EDGE('',*,*,#249,.T.);
#357=ORIENTED_EDGE('',*,*,#252,.T.);
#358=ORIENTED_EDGE('',*,*,#255,.T.);
#359=ORIENTED_EDGE('',*,*,#241,.F.);
#360=ORIENTED_EDGE('',*,*,#245,.F.);
#361=PLANE('',#425);
#362=PLANE('',#426);
#363=PLANE('',#427);
#364=PLANE('',#428);
#365=PLANE('',#429);
#366=PLANE('',#430);
#367=PLANE('',#431);
#368=PLANE('',#432);
#369=PLANE('',#433);
#370=PLANE('',#434);
#371=PLANE('',#435);
#372=PLANE('',#436);
#373=PLANE('',#437);
#374=PLANE('',#438);
#375=PLANE('',#439);
#376=PLANE('',#440);
#377=PLANE('',#441);
#378=PLANE('',#442);
#379=PLANE('',#443);
#380=PLANE('',#444);
#381=PLANE('',#445);
#382=PLANE('',#446);
#383=PLANE('',#447);
#384=PLANE('',#448);
#385=ADVANCED_FACE('',(#19),#361,.T.);
#386=ADVANCED_FACE('',(#20),#362,.T.);
#387=ADVANCED_FACE('',(#21),#363,.T.);
#388=ADVANCED_FACE('',(#22),#364,.T.);
#389=ADVANCED_FACE('',(#23),#365,.T.);
#390=ADVANCED_FACE('',(#24),#366,.F.);
#391=ADVANCED_FACE('',(#25),#367,.T.);
#392=ADVANCED_FACE('',(#26),#368,.T.);
#393=ADVANCED_FACE('',(#27),#369,.T.);
#394=ADVANCED_FACE('',(#28),#370,.T.);
#395=ADVANCED_FACE('',(#29),#371,.T.);
#396=ADVANCED_FACE('',(#30),#372,.T.);
#397=ADVANCED_FACE('',(#31),#373,.T.);
#398=ADVANCED_FACE('',(#32),#374,.T.);
#399=ADVANCED_FACE('',(#33),#375,.F.);
#400=ADVANCED_FACE('',(#34),#376,.T.);
#401=ADVANCED_FACE('',(#35),#377,.T.);
#402=ADVANCED_FACE('',(#36),#378,.T.);
#403=ADVANCED_FACE('',(#37),#379,.T.);
#404=ADVANCED_FACE('',(#38),#380,.T.);
#405=ADVANCED_FACE('',(#39),#381,.T.);
#406=ADVANCED_FACE('',(#40),#382,.T.);
#407=ADVANCED_FACE('',(#41),#383,.T.);
#408=ADVANCED_FACE('',(#42),#384,.F.);
#409=CLOSED_SHELL('',(#385,#386,#387,#388,#389,#390));
#410=CLOSED_SHELL('',(#391,#392,#393,#394,#395,#396,#397,#398,#399));
#411=CLOSED_SHELL('',(#400,#401,#402,#403,#404,#405,#406,#407,#408));
#412=DERIVED_UNIT_ELEMENT(#414,1.);
#413=DERIVED_UNIT_ELEMENT(#667,-3.);
#414=(
MASS_UNIT()
NAMED_UNIT(*)
SI_UNIT(.KILO.,.GRAM.)
);
#415=DERIVED_UNIT((#412,#413));
#416=MEASURE_REPRESENTATION_ITEM('density measure',
POSITIVE_RATIO_MEASURE(7850.),#415);
#417=PROPERTY_DEFINITION_REPRESENTATION(#422,#419);
#418=PROPERTY_DEFINITION_REPRESENTATION(#423,#420);
#419=REPRESENTATION('material name',(#421),#664);
#420=REPRESENTATION('density',(#416),#664);
#421=DESCRIPTIVE_REPRESENTATION_ITEM('Steel','Steel');
#422=PROPERTY_DEFINITION('material property','material name',#674);
#423=PROPERTY_DEFINITION('material property','density of part',#674);
#424=AXIS2_PLACEMENT_3D('',#551,#449,#450);
#425=AXIS2_PLACEMENT_3D('',#552,#451,#452);
#426=AXIS2_PLACEMENT_3D('',#561,#457,#458);
#427=AXIS2_PLACEMENT_3D('',#567,#462,#463);
#428=AXIS2_PLACEMENT_3D('',#573,#467,#468);
#429=AXIS2_PLACEMENT_3D('',#576,#471,#472);
#430=AXIS2_PLACEMENT_3D('',#577,#473,#474);
#431=AXIS2_PLACEMENT_3D('',#578,#475,#476);
#432=AXIS2_PLACEMENT_3D('',#589,#482,#483);
#433=AXIS2_PLACEMENT_3D('',#595,#487,#488);
#434=AXIS2_PLACEMENT_3D('',#601,#492,#493);
#435=AXIS2_PLACEMENT_3D('',#603,#495,#496);
#436=AXIS2_PLACEMENT_3D('',#612,#501,#502);
#437=AXIS2_PLACEMENT_3D('',#615,#505,#506);
#438=AXIS2_PLACEMENT_3D('',#618,#509,#510);
#439=AXIS2_PLACEMENT_3D('',#619,#511,#512);
#440=AXIS2_PLACEMENT_3D('',#620,#513,#514);
#441=AXIS2_PLACEMENT_3D('',#629,#519,#520);
#442=AXIS2_PLACEMENT_3D('',#637,#525,#526);
#443=AXIS2_PLACEMENT_3D('',#643,#530,#531);
#444=AXIS2_PLACEMENT_3D('',#645,#533,#534);
#445=AXIS2_PLACEMENT_3D('',#651,#538,#539);
#446=AXIS2_PLACEMENT_3D('',#657,#543,#544);
#447=AXIS2_PLACEMENT_3D('',#660,#547,#548);
#448=AXIS2_PLACEMENT_3D('',#661,#549,#550);
#449=DIRECTION('axis',(0.,0.,1.));
#450=DIRECTION('refdir',(1.,0.,0.));
#451=DIRECTION('center_axis',(0.,1.,0.));
#452=DIRECTION('ref_axis',(-1.,0.,0.));
#453=DIRECTION('',(-1.,0.,0.));
#454=DIRECTION('',(0.,0.,1.));
#455=DIRECTION('',(-1.,0.,0.));
#456=DIRECTION('',(0.,0.,1.));
#457=DIRECTION('center_axis',(1.,0.,0.));
#458=DIRECTION('ref_axis',(0.,1.,0.));
#459=DIRECTION('',(0.,1.,0.));
#460=DIRECTION('',(0.,1.,0.));
#461=DIRECTION('',(0.,0.,1.));
#462=DIRECTION('center_axis',(0.,-1.,0.));
#463=DIRECTION('ref_axis',(1.,0.,0.));
#464=DIRECTION('',(1.,0.,0.));
#465=DIRECTION('',(1.,0.,0.));
#466=DIRECTION('',(0.,0.,1.));
#467=DIRECTION('center_axis',(-1.,0.,0.));
#468=DIRECTION('ref_axis',(0.,-1.,0.));
#469=DIRECTION('',(0.,-1.,0.));
#470=DIRECTION('',(0.,-1.,0.));
#471=DIRECTION('center_axis',(0.,0.,1.));
#472=DIRECTION('ref_axis',(1.,0.,0.));
#473=DIRECTION('center_axis',(0.,0.,1.));
#474=DIRECTION('ref_axis',(1.,0.,0.));
#475=DIRECTION('center_axis',(0.999999999999977,2.14576725832133E-7,0.));
#476=DIRECTION('ref_axis',(-2.14576725832133E-7,0.999999999999977,0.));
#477=DIRECTION('',(2.14576725832133E-7,-0.999999999999977,0.));
#478=DIRECTION('',(0.,0.,1.));
#479=DIRECTION('',(-2.14576725832133E-7,0.999999999999977,0.));
#480=DIRECTION('',(0.,0.,1.));
#481=DIRECTION('',(0.,0.,1.));
#482=DIRECTION('center_axis',(0.,-1.,0.));
#483=DIRECTION('ref_axis',(1.,0.,0.));
#484=DIRECTION('',(-1.,0.,0.));
#485=DIRECTION('',(1.,0.,0.));
#486=DIRECTION('',(0.,0.,1.));
#487=DIRECTION('center_axis',(0.,1.,0.));
#488=DIRECTION('ref_axis',(-1.,0.,0.));
#489=DIRECTION('',(1.,0.,0.));
#490=DIRECTION('',(0.,0.,1.));
#491=DIRECTION('',(-1.,0.,0.));
#492=DIRECTION('center_axis',(0.,0.,1.));
#493=DIRECTION('ref_axis',(1.,0.,0.));
#494=DIRECTION('',(0.,-1.,0.));
#495=DIRECTION('center_axis',(0.,-1.,0.));
#496=DIRECTION('ref_axis',(1.,0.,0.));
#497=DIRECTION('',(1.,0.,0.));
#498=DIRECTION('',(0.,0.,1.));
#499=DIRECTION('',(1.,0.,0.));
#500=DIRECTION('',(0.,0.,1.));
#501=DIRECTION('center_axis',(-1.,1.73472347597681E-16,0.));
#502=DIRECTION('ref_axis',(-1.73472347597681E-16,-1.,0.));
#503=DIRECTION('',(0.,1.,0.));
#504=DIRECTION('',(-1.73472347597681E-16,-1.,0.));
#505=DIRECTION('center_axis',(1.,0.,0.));
#506=DIRECTION('ref_axis',(0.,1.,0.));
#507=DIRECTION('',(0.,1.,0.));
#508=DIRECTION('',(0.,1.,0.));
#509=DIRECTION('center_axis',(0.,0.,1.));
#510=DIRECTION('ref_axis',(1.,0.,0.));
#511=DIRECTION('center_axis',(0.,0.,1.));
#512=DIRECTION('ref_axis',(1.,0.,0.));
#513=DIRECTION('center_axis',(0.,1.,0.));
#514=DIRECTION('ref_axis',(-1.,0.,0.));
#515=DIRECTION('',(1.,0.,0.));
#516=DIRECTION('',(0.,0.,1.));
#517=DIRECTION('',(-1.,0.,0.));
#518=DIRECTION('',(0.,0.,1.));
#519=DIRECTION('center_axis',(0.999999999999977,-2.14576725832134E-7,0.));
#520=DIRECTION('ref_axis',(2.14576725832133E-7,0.999999999999977,0.));
#521=DIRECTION('',(2.14576725832133E-7,0.999999999999977,0.));
#522=DIRECTION('',(0.,0.,1.));
#523=DIRECTION('',(2.14576725832133E-7,0.999999999999977,0.));
#524=DIRECTION('',(0.,0.,1.));
#525=DIRECTION('center_axis',(0.,-1.,0.));
#526=DIRECTION('ref_axis',(1.,0.,0.));
#527=DIRECTION('',(1.,0.,0.));
#528=DIRECTION('',(1.,0.,0.));
#529=DIRECTION('',(0.,0.,1.));
#530=DIRECTION('center_axis',(0.,0.,1.));
#531=DIRECTION('ref_axis',(1.,0.,0.));
#532=DIRECTION('',(0.,-1.,0.));
#533=DIRECTION('center_axis',(-1.,-1.73472347597681E-16,0.));
#534=DIRECTION('ref_axis',(1.73472347597681E-16,-1.,0.));
#535=DIRECTION('',(-1.73472347597681E-16,1.,0.));
#536=DIRECTION('',(1.73472347597681E-16,-1.,0.));
#537=DIRECTION('',(0.,0.,1.));
#538=DIRECTION('center_axis',(0.,1.,0.));
#539=DIRECTION('ref_axis',(-1.,0.,0.));
#540=DIRECTION('',(1.,0.,0.));
#541=DIRECTION('',(-1.,0.,0.));
#542=DIRECTION('',(0.,0.,1.));
#543=DIRECTION('center_axis',(1.,0.,0.));
#544=DIRECTION('ref_axis',(0.,1.,0.));
#545=DIRECTION('',(0.,-1.,0.));
#546=DIRECTION('',(0.,1.,0.));
#547=DIRECTION('center_axis',(0.,0.,1.));
#548=DIRECTION('ref_axis',(1.,0.,0.));
#549=DIRECTION('center_axis',(0.,0.,1.));
#550=DIRECTION('ref_axis',(1.,0.,0.));
#551=CARTESIAN_POINT('',(0.,0.,0.));
#552=CARTESIAN_POINT('Origin',(6.6,7.1,0.));
#553=CARTESIAN_POINT('',(6.6,7.1,0.));
#554=CARTESIAN_POINT('',(0.,7.1,0.));
#555=CARTESIAN_POINT('',(6.6,7.1,0.));
#556=CARTESIAN_POINT('',(0.,7.1,5.));
#557=CARTESIAN_POINT('',(0.,7.1,0.));
#558=CARTESIAN_POINT('',(6.6,7.1,5.));
#559=CARTESIAN_POINT('',(6.6,7.1,5.));
#560=CARTESIAN_POINT('',(6.6,7.1,0.));
#561=CARTESIAN_POINT('Origin',(6.6,0.,0.));
#562=CARTESIAN_POINT('',(6.6,0.,0.));
#563=CARTESIAN_POINT('',(6.6,0.,0.));
#564=CARTESIAN_POINT('',(6.6,0.,5.));
#565=CARTESIAN_POINT('',(6.6,0.,5.));
#566=CARTESIAN_POINT('',(6.6,0.,0.));
#567=CARTESIAN_POINT('Origin',(0.,0.,0.));
#568=CARTESIAN_POINT('',(0.,0.,0.));
#569=CARTESIAN_POINT('',(0.,0.,0.));
#570=CARTESIAN_POINT('',(0.,0.,5.));
#571=CARTESIAN_POINT('',(0.,0.,5.));
#572=CARTESIAN_POINT('',(0.,0.,0.));
#573=CARTESIAN_POINT('Origin',(0.,7.1,0.));
#574=CARTESIAN_POINT('',(0.,7.1,0.));
#575=CARTESIAN_POINT('',(0.,7.1,5.));
#576=CARTESIAN_POINT('Origin',(3.3,3.55,5.));
#577=CARTESIAN_POINT('Origin',(3.3,3.55,0.));
#578=CARTESIAN_POINT('Origin',(4.8,7.1,0.));
#579=CARTESIAN_POINT('',(4.79999995708465,7.3,0.));
#580=CARTESIAN_POINT('',(4.8,7.1,0.));
#581=CARTESIAN_POINT('',(4.79999995708465,7.3,0.));
#582=CARTESIAN_POINT('',(4.79999995708465,7.3,2.));
#583=CARTESIAN_POINT('',(4.79999995708465,7.3,0.));
#584=CARTESIAN_POINT('',(4.8,7.1,2.));
#585=CARTESIAN_POINT('',(4.79999995708465,7.3,2.));
#586=CARTESIAN_POINT('',(4.8,7.1,0.2));
#587=CARTESIAN_POINT('',(4.8,7.1,0.));
#588=CARTESIAN_POINT('',(4.8,7.1,0.));
#589=CARTESIAN_POINT('Origin',(1.8,7.1,0.));
#590=CARTESIAN_POINT('',(1.8,7.1,0.2));
#591=CARTESIAN_POINT('',(6.6,7.1,0.2));
#592=CARTESIAN_POINT('',(1.8,7.1,2.));
#593=CARTESIAN_POINT('',(6.6,7.1,2.));
#594=CARTESIAN_POINT('',(1.8,7.1,0.));
#595=CARTESIAN_POINT('Origin',(4.79999995708465,7.3,0.));
#596=CARTESIAN_POINT('',(1.8,7.3,0.));
#597=CARTESIAN_POINT('',(1.8,7.3,0.));
#598=CARTESIAN_POINT('',(1.8,7.3,2.));
#599=CARTESIAN_POINT('',(1.8,7.3,0.));
#600=CARTESIAN_POINT('',(1.8,7.3,2.));
#601=CARTESIAN_POINT('Origin',(3.3,7.2,2.));
#602=CARTESIAN_POINT('',(1.8,7.1,2.));
#603=CARTESIAN_POINT('Origin',(1.8,5.5,0.));
#604=CARTESIAN_POINT('',(1.8,5.5,0.));
#605=CARTESIAN_POINT('',(4.8,5.5,0.));
#606=CARTESIAN_POINT('',(1.8,5.5,0.));
#607=CARTESIAN_POINT('',(4.8,5.5,0.2));
#608=CARTESIAN_POINT('',(4.8,5.5,0.));
#609=CARTESIAN_POINT('',(1.8,5.5,0.2));
#610=CARTESIAN_POINT('',(1.8,5.5,0.2));
#611=CARTESIAN_POINT('',(1.8,5.5,0.));
#612=CARTESIAN_POINT('Origin',(1.8,7.1,0.));
#613=CARTESIAN_POINT('',(1.8,7.1,0.));
#614=CARTESIAN_POINT('',(1.8,7.1,0.2));
#615=CARTESIAN_POINT('Origin',(4.8,5.5,0.));
#616=CARTESIAN_POINT('',(4.8,5.5,0.));
#617=CARTESIAN_POINT('',(4.8,5.5,0.2));
#618=CARTESIAN_POINT('Origin',(3.3,6.3,0.2));
#619=CARTESIAN_POINT('Origin',(3.3,6.3,0.));
#620=CARTESIAN_POINT('Origin',(4.8,0.,0.));
#621=CARTESIAN_POINT('',(1.8,0.,0.2));
#622=CARTESIAN_POINT('',(4.8,0.,0.2));
#623=CARTESIAN_POINT('',(0.,0.,0.2));
#624=CARTESIAN_POINT('',(1.8,0.,2.));
#625=CARTESIAN_POINT('',(1.8,0.,0.));
#626=CARTESIAN_POINT('',(4.8,0.,2.));
#627=CARTESIAN_POINT('',(0.,0.,2.));
#628=CARTESIAN_POINT('',(4.8,0.,0.));
#629=CARTESIAN_POINT('Origin',(4.79999995708465,-0.2,0.));
#630=CARTESIAN_POINT('',(4.79999995708465,-0.2,0.));
#631=CARTESIAN_POINT('',(4.8,0.,0.));
#632=CARTESIAN_POINT('',(4.79999995708465,-0.2,0.));
#633=CARTESIAN_POINT('',(4.8,0.,0.));
#634=CARTESIAN_POINT('',(4.79999995708465,-0.2,2.));
#635=CARTESIAN_POINT('',(4.79999995708465,-0.2,2.));
#636=CARTESIAN_POINT('',(4.79999995708465,-0.2,0.));
#637=CARTESIAN_POINT('Origin',(1.8,-0.2,0.));
#638=CARTESIAN_POINT('',(1.8,-0.2,0.));
#639=CARTESIAN_POINT('',(1.8,-0.2,0.));
#640=CARTESIAN_POINT('',(1.8,-0.2,2.));
#641=CARTESIAN_POINT('',(1.8,-0.2,2.));
#642=CARTESIAN_POINT('',(1.8,-0.2,0.));
#643=CARTESIAN_POINT('Origin',(3.3,-0.1,2.));
#644=CARTESIAN_POINT('',(1.8,0.,2.));
#645=CARTESIAN_POINT('Origin',(1.8,1.6,0.));
#646=CARTESIAN_POINT('',(1.8,1.6,0.));
#647=CARTESIAN_POINT('',(1.8,0.,0.));
#648=CARTESIAN_POINT('',(1.8,1.6,0.2));
#649=CARTESIAN_POINT('',(1.8,0.,0.2));
#650=CARTESIAN_POINT('',(1.8,1.6,0.));
#651=CARTESIAN_POINT('Origin',(4.8,1.6,0.));
#652=CARTESIAN_POINT('',(4.8,1.6,0.));
#653=CARTESIAN_POINT('',(1.8,1.6,0.));
#654=CARTESIAN_POINT('',(4.8,1.6,0.2));
#655=CARTESIAN_POINT('',(1.8,1.6,0.2));
#656=CARTESIAN_POINT('',(4.8,1.6,0.));
#657=CARTESIAN_POINT('Origin',(4.8,0.,0.));
#658=CARTESIAN_POINT('',(4.8,1.6,0.));
#659=CARTESIAN_POINT('',(4.8,1.6,0.2));
#660=CARTESIAN_POINT('Origin',(3.3,0.8,0.2));
#661=CARTESIAN_POINT('Origin',(3.3,0.8,0.));
#662=UNCERTAINTY_MEASURE_WITH_UNIT(LENGTH_MEASURE(0.01),#666,
'DISTANCE_ACCURACY_VALUE',
'Maximum model space distance between geometric entities at asserted c
onnectivities');
#663=UNCERTAINTY_MEASURE_WITH_UNIT(LENGTH_MEASURE(0.01),#666,
'DISTANCE_ACCURACY_VALUE',
'Maximum model space distance between geometric entities at asserted c
onnectivities');
#664=(
GEOMETRIC_REPRESENTATION_CONTEXT(3)
GLOBAL_UNCERTAINTY_ASSIGNED_CONTEXT((#662))
GLOBAL_UNIT_ASSIGNED_CONTEXT((#666,#668,#669))
REPRESENTATION_CONTEXT('','3D')
);
#665=(
GEOMETRIC_REPRESENTATION_CONTEXT(3)
GLOBAL_UNCERTAINTY_ASSIGNED_CONTEXT((#663))
GLOBAL_UNIT_ASSIGNED_CONTEXT((#666,#668,#669))
REPRESENTATION_CONTEXT('','3D')
);
#666=(
LENGTH_UNIT()
NAMED_UNIT(*)
SI_UNIT(.MILLI.,.METRE.)
);
#667=(
LENGTH_UNIT()
NAMED_UNIT(*)
SI_UNIT($,.METRE.)
);
#668=(
NAMED_UNIT(*)
PLANE_ANGLE_UNIT()
SI_UNIT($,.RADIAN.)
);
#669=(
NAMED_UNIT(*)
SI_UNIT($,.STERADIAN.)
SOLID_ANGLE_UNIT()
);
#670=SHAPE_DEFINITION_REPRESENTATION(#671,#672);
#671=PRODUCT_DEFINITION_SHAPE('',$,#674);
#672=SHAPE_REPRESENTATION('',(#424),#664);
#673=PRODUCT_DEFINITION_CONTEXT('part definition',#678,'design');
#674=PRODUCT_DEFINITION('inductor_47u','inductor_47u v1',#675,#673);
#675=PRODUCT_DEFINITION_FORMATION('',$,#680);
#676=PRODUCT_RELATED_PRODUCT_CATEGORY('inductor_47u v1',
'inductor_47u v1',(#680));
#677=APPLICATION_PROTOCOL_DEFINITION('international standard',
'automotive_design',2009,#678);
#678=APPLICATION_CONTEXT(
'Core Data for Automotive Mechanical Design Process');
#679=PRODUCT_CONTEXT('part definition',#678,'mechanical');
#680=PRODUCT('inductor_47u','inductor_47u v1',$,(#679));
#681=PRESENTATION_STYLE_ASSIGNMENT((#685));
#682=PRESENTATION_STYLE_ASSIGNMENT((#686));
#683=PRESENTATION_STYLE_ASSIGNMENT((#687));
#684=PRESENTATION_STYLE_ASSIGNMENT((#688));
#685=SURFACE_STYLE_USAGE(.BOTH.,#689);
#686=SURFACE_STYLE_USAGE(.BOTH.,#690);
#687=SURFACE_STYLE_USAGE(.BOTH.,#691);
#688=SURFACE_STYLE_USAGE(.BOTH.,#692);
#689=SURFACE_SIDE_STYLE('',(#693));
#690=SURFACE_SIDE_STYLE('',(#694));
#691=SURFACE_SIDE_STYLE('',(#695));
#692=SURFACE_SIDE_STYLE('',(#696));
#693=SURFACE_STYLE_FILL_AREA(#697);
#694=SURFACE_STYLE_FILL_AREA(#698);
#695=SURFACE_STYLE_FILL_AREA(#699);
#696=SURFACE_STYLE_FILL_AREA(#700);
#697=FILL_AREA_STYLE('Steel - Satin',(#701));
#698=FILL_AREA_STYLE(
'PEKK - Polyetherketoneketone Reinforced With Carbon Fibers - HT-23 (w
ith EOS P 810 3D Printer)',(#702));
#699=FILL_AREA_STYLE('Aluminum - Polished',(#703));
#700=FILL_AREA_STYLE('Aluminum - Satin',(#704));
#701=FILL_AREA_STYLE_COLOUR('Steel - Satin',#705);
#702=FILL_AREA_STYLE_COLOUR(
'PEKK - Polyetherketoneketone Reinforced With Carbon Fibers - HT-23 (w
ith EOS P 810 3D Printer)',#706);
#703=FILL_AREA_STYLE_COLOUR('Aluminum - Polished',#707);
#704=FILL_AREA_STYLE_COLOUR('Aluminum - Satin',#708);
#705=COLOUR_RGB('Steel - Satin',0.627450980392157,0.627450980392157,0.627450980392157);
#706=COLOUR_RGB(
'PEKK - Polyetherketoneketone Reinforced With Carbon Fibers - HT-23 (w
ith EOS P 810 3D Printer)',0.352941176470588,0.352941176470588,0.352941176470588);
#707=COLOUR_RGB('Aluminum - Polished',0.96078431372549,0.96078431372549,
0.964705882352941);
#708=COLOUR_RGB('Aluminum - Satin',0.96078431372549,0.96078431372549,0.964705882352941);
ENDSEC;
END-ISO-10303-21;
