0
SECTION
2
HEADER
9
$INSUNITS
70
4
9
$ACADVER
1
AC1014
9
$HANDSEED
5
FFFF
0
ENDSEC
0
SECTION
2
TABLES
0
TABLE
2
VPORT
5
8
100
AcDbSymbolTable
0
ENDTAB
0
TABLE
2
LTYPE
5
5
100
AcDbSymbolTable
0
LTYPE
5
14
100
AcDbSymbolTableRecord
100
AcDbLinetypeTableRecord
2
BYBLOCK
70
0
0
LTYPE
5
15
100
AcDbSymbolTableRecord
100
AcDbLinetypeTableRecord
2
BYLAYER
70
0
0
LTYPE
5
16
100
AcDbSymbolTableRecord
100
AcDbLinetypeTableRecord
2
DASHED
70
0
3
Dashed __ __ __ __ __ __ __ __ __ __ __ __ __ _
72
65
73
2
40
0.75
49
0.5
74
0
49
-0.25
74
0
0
ENDTAB
0
TABLE
2
LAYER
5
2
100
AcDbSymbolTable
70
2
0
LAYER
5
50
100
AcDbSymbolTableRecord
100
AcDbLayerTableRecord
2
0
70
0
62
7
6
CONTINUOUS
0
ENDTAB
0
TABLE
2
STYLE
5
3
100
AcDbSymbolTable
70
1
0
STYLE
5
11
100
AcDbSymbolTableRecord
100
AcDbTextStyleTableRecord
2
STANDARD
70
0
0
ENDTAB
0
TABLE
2
VIEW
5
6
100
AcDbSymbolTable
70
0
0
ENDTAB
0
TABLE
2
UCS
5
7
100
AcDbSymbolTable
70
0
0
ENDTAB
0
TABLE
2
APPID
5
9
100
AcDbSymbolTable
70
2
0
APPID
5
12
100
AcDbSymbolTableRecord
100
AcDbRegAppTableRecord
2
ACAD
70
0
0
ENDTAB
0
TABLE
2
DIMSTYLE
5
A
100
AcDbSymbolTable
70
1
0
ENDTAB
0
TABLE
2
BLOCK_RECORD
5
1
100
AcDbSymbolTable
70
1
0
BLOCK_RECORD
5
1F
100
AcDbSymbolTableRecord
100
AcDbBlockTableRecord
2
*MODEL_SPACE
0
BLOCK_RECORD
5
1B
100
AcDbSymbolTableRecord
100
AcDbBlockTableRecord
2
*PAPER_SPACE
0
ENDTAB
0
ENDSEC
0
SECTION
2
BLOCKS
0
BLOCK
5
20
100
AcDbEntity
100
AcDbBlockBegin
2
*MODEL_SPACE
0
ENDBLK
5
21
100
AcDbEntity
100
AcDbBlockEnd
0
BLOCK
5
1C
100
AcDbEntity
100
AcDbBlockBegin
2
*PAPER_SPACE
0
ENDBLK
5
1D
100
AcDbEntity
100
AcDbBlockEnd
0
ENDSEC
0
SECTION
2
ENTITIES
0
LWPOLYLINE
5
100
100
AcDbEntity
8
0
100
AcDbPolyline
90
8
70
1
43
0.0
10
11.449987962621586
20
2.2478865756652633
42
0.41218263392089149
10
5.9901194107946507
20
7.6699999451636884
10
-5.9901194107946401
20
7.6699999451636893
42
0.41218263392091142
10
-11.449987962621719
20
2.247886575664912
42
0.0034695134214710447
10
-11.449987962621577
20
-11.636938998152001
42
0.41218263392079918
10
-10.450012037378499
20
-12.630000054836151
10
10.45001203737854
20
-12.630000054836222
42
0.41218263392090154
10
11.449987962621577
20
-11.636938998151544
42
0.0034695134214710447
0
LWPOLYLINE
5
101
100
AcDbEntity
8
0
100
AcDbPolyline
90
4
70
1
43
0.0
10
7.7200000000000015
20
-8.0891021428497094
10
-7.7199999999999989
20
-8.0891021428497076
10
-7.7200000000000006
20
-5.3891021428497083
10
7.7199999999999953
20
-5.3891021428497075
0
LINE
5
102
100
AcDbEntity
8
0
100
AcDbLine
10
9.8375041717368887
20
6.0841747606914112
30
-3.0152626300099928e-35
11
-11.154661260994219
21
-12.339555881856249
31
-1.09753332919968e-30
6
DASHED
0
LINE
5
103
100
AcDbEntity
8
0
100
AcDbLine
10
-9.8375041717370131
20
6.0841747606912921
30
2.571898249356881e-47
11
11.154661260994311
21
-12.339555881855954
31
-1.7089781015116933e-47
6
DASHED
0
CIRCLE
5
104
100
AcDbEntity
8
0
100
AcDbCircle
10
-6.4405257245471681
20
3.1028236413836825
30
2.2589491580233565e-47
40
1.1499999999999997
210
0
220
0
230
1
0
CIRCLE
5
105
100
AcDbEntity
8
0
100
AcDbCircle
10
6.4405257245470757
20
3.1028236413837273
30
-1.3407528483898096e-31
40
1.1500000000000001
210
0
220
0
230
1
0
CIRCLE
5
106
100
AcDbEntity
8
0
100
AcDbCircle
10
-9.2786276978395996
20
-10.693058899222532
30
-9.9329853288384322e-31
40
1.1499999999999997
210
0
220
0
230
1
0
CIRCLE
5
107
100
AcDbEntity
8
0
100
AcDbCircle
10
9.2786276978397364
20
-10.693058899222308
30
-1.2631930692096656e-47
40
1.1500000000000008
210
0
220
0
230
1
0
CIRCLE
5
108
100
AcDbEntity
8
0
100
AcDbCircle
10
-9.2786276978395996
20
-10.693058899222532
30
-9.9329853288384322e-31
40
0.7999999999999996
210
0
220
0
230
1
0
CIRCLE
5
109
100
AcDbEntity
8
0
100
AcDbCircle
10
-6.4405257245471681
20
3.1028236413836825
30
2.2589491580233565e-47
40
0.80000000000000016
210
0
220
0
230
1
0
CIRCLE
5
110
100
AcDbEntity
8
0
100
AcDbCircle
10
6.4405257245470757
20
3.1028236413837273
30
-1.3407528483898096e-31
40
0.79999999999999971
210
0
220
0
230
1
0
CIRCLE
5
111
100
AcDbEntity
8
0
100
AcDbCircle
10
9.2786276978397364
20
-10.693058899222308
30
-1.2631930692096656e-47
40
0.79999999999999938
210
0
220
0
230
1
0
CIRCLE
5
112
100
AcDbEntity
8
0
100
AcDbCircle
10
-3.8099999999999987
20
-6.7391021428497089
30
0
40
0.40000000000000036
210
7.3955709864469879e-32
220
-6.4821155089684486e-47
230
1
0
CIRCLE
5
113
100
AcDbEntity
8
0
100
AcDbCircle
10
-3.8099999999999987
20
-6.7391021428497089
30
0
40
1.0000000000000007
210
-4.9303806576313238e-32
220
3.9850448215298048e-48
230
1
0
CIRCLE
5
114
100
AcDbEntity
8
0
100
AcDbCircle
10
-6.3499999999999988
20
-6.7391021428497089
30
0
40
0.40000000000000036
210
7.3955709864469879e-32
220
-6.4821155089684486e-47
230
1
0
CIRCLE
5
115
100
AcDbEntity
8
0
100
AcDbCircle
10
-6.3499999999999988
20
-6.7391021428497089
30
0
40
1.0000000000000007
210
-4.9303806576313238e-32
220
3.9850448215298048e-48
230
1
0
CIRCLE
5
116
100
AcDbEntity
8
0
100
AcDbCircle
10
-1.2699999999999989
20
-6.7391021428497089
30
0
40
0.40000000000000036
210
7.3955709864469879e-32
220
-6.4821155089684486e-47
230
1
0
CIRCLE
5
117
100
AcDbEntity
8
0
100
AcDbCircle
10
-1.2699999999999989
20
-6.7391021428497089
30
0
40
1.0000000000000007
210
-4.9303806576313238e-32
220
3.9850448215298048e-48
230
1
0
CIRCLE
5
118
100
AcDbEntity
8
0
100
AcDbCircle
10
1.2700000000000022
20
-6.7391021428497089
30
0
40
0.40000000000000036
210
7.3955709864469879e-32
220
-6.4821155089684486e-47
230
1
0
CIRCLE
5
119
100
AcDbEntity
8
0
100
AcDbCircle
10
1.2700000000000022
20
-6.7391021428497089
30
0
40
1.0000000000000007
210
-4.9303806576313238e-32
220
3.9850448215298048e-48
230
1
0
CIRCLE
5
120
100
AcDbEntity
8
0
100
AcDbCircle
10
3.8100000000000032
20
-6.7391021428497089
30
0
40
0.40000000000000036
210
7.3955709864469879e-32
220
-6.4821155089684486e-47
230
1
0
CIRCLE
5
121
100
AcDbEntity
8
0
100
AcDbCircle
10
3.8100000000000032
20
-6.7391021428497089
30
0
40
1.0000000000000007
210
-4.9303806576313238e-32
220
3.9850448215298048e-48
230
1
0
CIRCLE
5
122
100
AcDbEntity
8
0
100
AcDbCircle
10
6.350000000000005
20
-6.7391021428497089
30
0
40
0.40000000000000036
210
7.3955709864469879e-32
220
-6.4821155089684486e-47
230
1
0
CIRCLE
5
123
100
AcDbEntity
8
0
100
AcDbCircle
10
6.350000000000005
20
-6.7391021428497089
30
0
40
1.0000000000000007
210
-4.9303806576313238e-32
220
3.9850448215298048e-48
230
1
0
CIRCLE
5
124
100
AcDbEntity
8
0
100
AcDbCircle
10
-6.3499999999999988
20
-6.7391021428497089
30
0
40
1.1000000000000008
210
-4.9303806576313232e-32
220
3.9850448215298048e-48
230
1
0
CIRCLE
5
125
100
AcDbEntity
8
0
100
AcDbCircle
10
-3.8099999999999987
20
-6.7391021428497089
30
0
40
1.1000000000000008
210
-4.9303806576313232e-32
220
3.9850448215298048e-48
230
1
0
CIRCLE
5
126
100
AcDbEntity
8
0
100
AcDbCircle
10
-1.2699999999999989
20
-6.7391021428497089
30
0
40
1.1000000000000008
210
-4.9303806576313238e-32
220
3.9850448215298048e-48
230
1
0
CIRCLE
5
127
100
AcDbEntity
8
0
100
AcDbCircle
10
1.2700000000000022
20
-6.7391021428497089
30
0
40
1.1000000000000008
210
-4.9303806576313232e-32
220
3.9850448215298048e-48
230
1
0
CIRCLE
5
128
100
AcDbEntity
8
0
100
AcDbCircle
10
3.8100000000000032
20
-6.7391021428497089
30
0
40
1.1000000000000008
210
-4.9303806576313232e-32
220
3.9850448215298048e-48
230
1
0
CIRCLE
5
129
100
AcDbEntity
8
0
100
AcDbCircle
10
6.350000000000005
20
-6.7391021428497089
30
0
40
1.1000000000000008
210
-4.9303806576313232e-32
220
3.9850448215298048e-48
230
1
0
ENDSEC
0
SECTION
2
OBJECTS
0
DICTIONARY
5
C
100
AcDbDictionary
3
ACAD_GROUP
350
D
3
ACAD_MLINESTYLE
350
17
0
DICTIONARY
5
D
100
AcDbDictionary
0
DICTIONARY
5
1A
330
C
100
AcDbDictionary
0
DICTIONARY
5
17
100
AcDbDictionary
0
ENDSEC
0
EOF
